<?xml version="1.0" encoding="utf-8"?>
<!-- Generator: Adobe Illustrator 16.0.4, SVG Export Plug-In . SVG Version: 6.00 Build 0)  -->
<!DOCTYPE svg PUBLIC "-//W3C//DTD SVG 1.1//EN" "http://www.w3.org/Graphics/SVG/1.1/DTD/svg11.dtd">
<svg version="1.1"
	 id="svg2" xmlns:dc="http://purl.org/dc/elements/1.1/" xmlns:cc="http://creativecommons.org/ns#" xmlns:rdf="http://www.w3.org/1999/02/22-rdf-syntax-ns#" xmlns:svg="http://www.w3.org/2000/svg" xmlns:inkscape="http://www.inkscape.org/namespaces/inkscape"
	 xmlns="http://www.w3.org/2000/svg" xmlns:xlink="http://www.w3.org/1999/xlink" x="0px" y="0px" width="145.188px"
	 height="813.312px" viewBox="0.875 25.636 145.188 813.312" enable-background="new 0.875 25.636 145.188 813.312"
	 xml:space="preserve">
<g>
	<g>
		<g id="g10" transform="matrix(1.25,0,0,-1.25,0,990)">
			<g id="g3048">
				<g>
					<g>
						<g id="g3050">
							<g id="g3056" transform="translate(574.3207,60.6297)">
								<path id="path3058" inkscape:connector-curvature="0" fill="#FFFFFF" d="M-463.59,60.574v26.718h0.006l1.593,6.662
									l1.315,5.631l0.939,4.975l0.654,4.692l0.66,5.446l0.372,5.441l0.191,5.82l-0.191,6.102l-0.28,6.661l-0.752,7.227
									l-0.748,6.478l-0.941,6.852l-1.219,7.319l-1.593,8.637h-0.007v465.469c0,27.633-1.74,50.491-4.808,69.724l-94.301,0.148
									c-3.053-19.202-4.785-42.312-4.785-69.874V175.231h-0.003l-1.594-8.636l-1.218-7.319l-0.942-6.852l-0.749-6.478
									l-0.754-7.226l-0.28-6.661l-0.188-6.102l0.188-5.82l0.374-5.441l0.659-5.446l0.656-4.691l0.938-4.975l1.315-5.631
									l1.594-6.663h0.003V60.574H-463.59z"/>
							</g>
							<g id="g3060" transform="translate(574.3207,60.6297)">
								<path id="path3062" inkscape:connector-curvature="0" fill="none" stroke="#918F90" stroke-width="0.946" d="
									M-463.59,60.574v26.718h0.006l1.593,6.662l1.315,5.631l0.939,4.975l0.654,4.692l0.66,5.446l0.372,5.441l0.191,5.82
									l-0.191,6.102l-0.28,6.661l-0.752,7.227l-0.748,6.478l-0.941,6.852l-1.219,7.319l-1.593,8.637h-0.007v465.469
									c0,27.633-1.74,50.491-4.808,69.724l-94.301,0.148c-3.053-19.202-4.785-42.312-4.785-69.874V175.231h-0.003l-1.594-8.636
									l-1.218-7.319l-0.942-6.852l-0.749-6.478l-0.754-7.226l-0.28-6.661l-0.188-6.102l0.188-5.82l0.374-5.441l0.659-5.446
									l0.656-4.691l0.938-4.975l1.315-5.631l1.594-6.663h0.003V60.574H-463.59z"/>
							</g>
						</g>
					</g>
				</g>
			</g>
			<g id="g3064">
				<g>
					<g>
						<g id="g3066">
							<path id="path3072" inkscape:connector-curvature="0" fill="#FFFFFF" stroke="#918F90" stroke-width="0.473" d="
								M81.889,263.888h-5.166v1.189h5.166V263.888z"/>
							<path id="path3074" inkscape:connector-curvature="0" fill="#FFFFFF" stroke="#918F90" stroke-width="0.473" d="
								M81.889,265.077h-5.166v1.19h5.166V265.077z"/>
							<path id="path3076" inkscape:connector-curvature="0" fill="#FFFFFF" stroke="#918F90" stroke-width="0.473" d="
								M81.889,266.266h-5.166v1.192h5.166V266.266z"/>
							<path id="path3078" inkscape:connector-curvature="0" fill="#FFFFFF" stroke="#918F90" stroke-width="0.473" d="
								M85.77,263.888h-3.881v1.189h3.881V263.888z"/>
							<path id="path3080" inkscape:connector-curvature="0" fill="#FFFFFF" stroke="#918F90" stroke-width="0.473" d="
								M85.77,265.077h-3.881v1.19h3.881V265.077z"/>
							<path id="path3082" inkscape:connector-curvature="0" fill="#FFFFFF" stroke="#918F90" stroke-width="0.473" d="
								M85.77,266.266h-3.881v1.192h3.881V266.266z"/>
							<path id="path3084" inkscape:connector-curvature="0" fill="#FFFFFF" stroke="#918F90" stroke-width="0.473" d="
								M81.889,267.459h-5.166v1.191h5.166V267.459z"/>
							<path id="path3086" inkscape:connector-curvature="0" fill="#FFFFFF" stroke="#918F90" stroke-width="0.473" d="
								M85.77,267.459h-3.881v1.191h3.881V267.459z"/>
							<path id="path3088" inkscape:connector-curvature="0" fill="#FFFFFF" stroke="#918F90" stroke-width="0.473" d="
								M81.889,268.649h-5.166v1.191h5.166V268.649z"/>
							<path id="path3090" inkscape:connector-curvature="0" fill="#FFFFFF" stroke="#918F90" stroke-width="0.473" d="
								M85.77,268.649h-3.881v1.191h3.881V268.649z"/>
							<path id="path3092" inkscape:connector-curvature="0" fill="#FFFFFF" stroke="#918F90" stroke-width="0.473" d="
								M81.889,269.841h-5.166v1.19h5.166V269.841z"/>
							<path id="path3094" inkscape:connector-curvature="0" fill="#FFFFFF" stroke="#918F90" stroke-width="0.473" d="
								M85.77,269.841h-3.881v1.19h3.881V269.841z"/>
							<path id="path3096" inkscape:connector-curvature="0" fill="#FFFFFF" stroke="#918F90" stroke-width="0.473" d="
								M76.722,263.888h-3.88v1.189h3.88V263.888z"/>
							<path id="path3098" inkscape:connector-curvature="0" fill="#FFFFFF" stroke="#918F90" stroke-width="0.473" d="
								M76.722,265.077h-3.88v1.19h3.88V265.077z"/>
							<path id="path3100" inkscape:connector-curvature="0" fill="#FFFFFF" stroke="#918F90" stroke-width="0.473" d="
								M76.722,266.266h-3.88v1.192h3.88V266.266z"/>
							<path id="path3102" inkscape:connector-curvature="0" fill="#FFFFFF" stroke="#918F90" stroke-width="0.473" d="
								M76.722,267.459h-3.88v1.191h3.88V267.459z"/>
							<path id="path3104" inkscape:connector-curvature="0" fill="#FFFFFF" stroke="#918F90" stroke-width="0.473" d="
								M76.722,268.649h-3.88v1.191h3.88V268.649z"/>
							<path id="path3106" inkscape:connector-curvature="0" fill="#FFFFFF" stroke="#918F90" stroke-width="0.473" d="
								M76.722,269.841h-3.88v1.19h3.88V269.841z"/>
							<path id="path3108" inkscape:connector-curvature="0" fill="#FFFFFF" stroke="#918F90" stroke-width="0.473" d="
								M85.77,263.902H72.842v-3.507H85.77V263.902z"/>
							<path id="path3110" inkscape:connector-curvature="0" fill="#FFFFFF" stroke="#918F90" stroke-width="0.473" d="
								M41.112,263.888h-5.167v1.189h5.167V263.888z"/>
							<path id="path3112" inkscape:connector-curvature="0" fill="#FFFFFF" stroke="#918F90" stroke-width="0.473" d="
								M41.112,265.077h-5.167v1.19h5.167V265.077z"/>
							<path id="path3114" inkscape:connector-curvature="0" fill="#FFFFFF" stroke="#918F90" stroke-width="0.473" d="
								M41.112,266.266h-5.167v1.192h5.167V266.266z"/>
							<path id="path3116" inkscape:connector-curvature="0" fill="#FFFFFF" stroke="#918F90" stroke-width="0.473" d="
								M44.993,263.888h-3.88v1.189h3.88V263.888z"/>
							<path id="path3118" inkscape:connector-curvature="0" fill="#FFFFFF" stroke="#918F90" stroke-width="0.473" d="
								M44.993,265.077h-3.88v1.19h3.88V265.077z"/>
							<path id="path3120" inkscape:connector-curvature="0" fill="#FFFFFF" stroke="#918F90" stroke-width="0.473" d="
								M44.993,266.266h-3.88v1.192h3.88V266.266z"/>
							<path id="path3122" inkscape:connector-curvature="0" fill="#FFFFFF" stroke="#918F90" stroke-width="0.473" d="
								M41.112,267.459h-5.167v1.191h5.167V267.459z"/>
							<path id="path3124" inkscape:connector-curvature="0" fill="#FFFFFF" stroke="#918F90" stroke-width="0.473" d="
								M44.993,267.459h-3.88v1.191h3.88V267.459z"/>
							<path id="path3126" inkscape:connector-curvature="0" fill="#FFFFFF" stroke="#918F90" stroke-width="0.473" d="
								M41.112,268.649h-5.167v1.191h5.167V268.649z"/>
							<path id="path3128" inkscape:connector-curvature="0" fill="#FFFFFF" stroke="#918F90" stroke-width="0.473" d="
								M44.993,268.649h-3.88v1.191h3.88V268.649z"/>
							<path id="path3130" inkscape:connector-curvature="0" fill="#FFFFFF" stroke="#918F90" stroke-width="0.473" d="
								M41.112,269.841h-5.167v1.19h5.167V269.841z"/>
							<path id="path3132" inkscape:connector-curvature="0" fill="#FFFFFF" stroke="#918F90" stroke-width="0.473" d="
								M44.993,269.841h-3.88v1.19h3.88V269.841z"/>
							<path id="path3134" inkscape:connector-curvature="0" fill="#FFFFFF" stroke="#918F90" stroke-width="0.473" d="
								M35.945,263.888h-3.88v1.189h3.88V263.888z"/>
							<path id="path3136" inkscape:connector-curvature="0" fill="#FFFFFF" stroke="#918F90" stroke-width="0.473" d="
								M35.945,265.077h-3.88v1.19h3.88V265.077z"/>
							<path id="path3138" inkscape:connector-curvature="0" fill="#FFFFFF" stroke="#918F90" stroke-width="0.473" d="
								M35.945,266.266h-3.88v1.192h3.88V266.266z"/>
							<path id="path3140" inkscape:connector-curvature="0" fill="#FFFFFF" stroke="#918F90" stroke-width="0.473" d="
								M35.945,267.459h-3.88v1.191h3.88V267.459z"/>
							<path id="path3142" inkscape:connector-curvature="0" fill="#FFFFFF" stroke="#918F90" stroke-width="0.473" d="
								M35.945,268.649h-3.88v1.191h3.88V268.649z"/>
							<path id="path3144" inkscape:connector-curvature="0" fill="#FFFFFF" stroke="#918F90" stroke-width="0.473" d="
								M35.945,269.841h-3.88v1.19h3.88V269.841z"/>
							<path id="path3146" inkscape:connector-curvature="0" fill="#FFFFFF" stroke="#918F90" stroke-width="0.473" d="
								M44.993,263.902H32.065v-3.507h12.928V263.902z"/>
							<path id="path3148" inkscape:connector-curvature="0" fill="#FFFFFF" stroke="#918F90" stroke-width="0.473" d="
								M75.166,651.292h5.166v-1.19h-5.166V651.292z"/>
							<path id="path3150" inkscape:connector-curvature="0" fill="#FFFFFF" stroke="#918F90" stroke-width="0.473" d="
								M75.166,650.101h5.166v-1.19h-5.166V650.101z"/>
							<path id="path3152" inkscape:connector-curvature="0" fill="#FFFFFF" stroke="#918F90" stroke-width="0.473" d="
								M75.166,648.911h5.166v-1.191h-5.166V648.911z"/>
							<path id="path3154" inkscape:connector-curvature="0" fill="#FFFFFF" stroke="#918F90" stroke-width="0.473" d="
								M71.285,651.292h3.881v-1.19h-3.881V651.292z"/>
							<path id="path3156" inkscape:connector-curvature="0" fill="#FFFFFF" stroke="#918F90" stroke-width="0.473" d="
								M71.285,650.101h3.881v-1.19h-3.881V650.101z"/>
							<path id="path3158" inkscape:connector-curvature="0" fill="#FFFFFF" stroke="#918F90" stroke-width="0.473" d="
								M71.285,648.911h3.881v-1.191h-3.881V648.911z"/>
							<path id="path3160" inkscape:connector-curvature="0" fill="#FFFFFF" stroke="#918F90" stroke-width="0.473" d="
								M75.166,647.72h5.166v-1.19h-5.166V647.72z"/>
							<path id="path3162" inkscape:connector-curvature="0" fill="#FFFFFF" stroke="#918F90" stroke-width="0.473" d="
								M71.285,647.72h3.881v-1.19h-3.881V647.72z"/>
							<path id="path3164" inkscape:connector-curvature="0" fill="#FFFFFF" stroke="#918F90" stroke-width="0.473" d="
								M75.166,646.53h5.166v-1.191h-5.166V646.53z"/>
							<path id="path3166" inkscape:connector-curvature="0" fill="#FFFFFF" stroke="#918F90" stroke-width="0.473" d="
								M71.285,646.53h3.881v-1.191h-3.881V646.53z"/>
							<path id="path3168" inkscape:connector-curvature="0" fill="#FFFFFF" stroke="#918F90" stroke-width="0.473" d="
								M75.166,645.339h5.166v-1.19h-5.166V645.339z"/>
							<path id="path3170" inkscape:connector-curvature="0" fill="#FFFFFF" stroke="#918F90" stroke-width="0.473" d="
								M71.285,645.339h3.881v-1.19h-3.881V645.339z"/>
							<path id="path3172" inkscape:connector-curvature="0" fill="#FFFFFF" stroke="#918F90" stroke-width="0.473" d="
								M80.333,651.292h3.882v-1.19h-3.882V651.292z"/>
							<path id="path3174" inkscape:connector-curvature="0" fill="#FFFFFF" stroke="#918F90" stroke-width="0.473" d="
								M80.333,650.101h3.882v-1.19h-3.882V650.101z"/>
							<path id="path3176" inkscape:connector-curvature="0" fill="#FFFFFF" stroke="#918F90" stroke-width="0.473" d="
								M80.333,648.911h3.882v-1.191h-3.882V648.911z"/>
							<path id="path3178" inkscape:connector-curvature="0" fill="#FFFFFF" stroke="#918F90" stroke-width="0.473" d="
								M80.333,647.72h3.882v-1.19h-3.882V647.72z"/>
							<path id="path3180" inkscape:connector-curvature="0" fill="#FFFFFF" stroke="#918F90" stroke-width="0.473" d="
								M80.333,646.53h3.882v-1.191h-3.882V646.53z"/>
							<path id="path3182" inkscape:connector-curvature="0" fill="#FFFFFF" stroke="#918F90" stroke-width="0.473" d="
								M80.333,645.339h3.882v-1.19h-3.882V645.339z"/>
							<path id="path3184" inkscape:connector-curvature="0" fill="#FFFFFF" stroke="#918F90" stroke-width="0.473" d="
								M71.285,651.278h12.93v3.509h-12.93V651.278z"/>
							<path id="path3186" inkscape:connector-curvature="0" fill="#FFFFFF" stroke="#918F90" stroke-width="0.473" d="
								M36.832,651.218h5.167v-1.19h-5.167V651.218z"/>
							<path id="path3188" inkscape:connector-curvature="0" fill="#FFFFFF" stroke="#918F90" stroke-width="0.473" d="
								M36.832,650.027h5.167v-1.192h-5.167V650.027z"/>
							<path id="path3190" inkscape:connector-curvature="0" fill="#FFFFFF" stroke="#918F90" stroke-width="0.473" d="
								M36.832,648.835h5.167v-1.19h-5.167V648.835z"/>
							<path id="path3192" inkscape:connector-curvature="0" fill="#FFFFFF" stroke="#918F90" stroke-width="0.473" d="
								M32.952,651.218h3.88v-1.19h-3.88V651.218z"/>
							<path id="path3194" inkscape:connector-curvature="0" fill="#FFFFFF" stroke="#918F90" stroke-width="0.473" d="
								M32.952,650.027h3.88v-1.192h-3.88V650.027z"/>
							<path id="path3196" inkscape:connector-curvature="0" fill="#FFFFFF" stroke="#918F90" stroke-width="0.473" d="
								M32.952,648.835h3.88v-1.19h-3.88V648.835z"/>
							<path id="path3198" inkscape:connector-curvature="0" fill="#FFFFFF" stroke="#918F90" stroke-width="0.473" d="
								M36.832,647.645h5.167v-1.191h-5.167V647.645z"/>
							<path id="path3200" inkscape:connector-curvature="0" fill="#FFFFFF" stroke="#918F90" stroke-width="0.473" d="
								M32.952,647.645h3.88v-1.191h-3.88V647.645z"/>
							<path id="path3202" inkscape:connector-curvature="0" fill="#FFFFFF" stroke="#918F90" stroke-width="0.473" d="
								M36.832,646.454h5.167v-1.19h-5.167V646.454z"/>
							<path id="path3204" inkscape:connector-curvature="0" fill="#FFFFFF" stroke="#918F90" stroke-width="0.473" d="
								M32.952,646.454h3.88v-1.19h-3.88V646.454z"/>
							<path id="path3206" inkscape:connector-curvature="0" fill="#FFFFFF" stroke="#918F90" stroke-width="0.473" d="
								M36.832,645.264h5.167v-1.19h-5.167V645.264z"/>
							<path id="path3208" inkscape:connector-curvature="0" fill="#FFFFFF" stroke="#918F90" stroke-width="0.473" d="
								M32.952,645.264h3.88v-1.19h-3.88V645.264z"/>
							<path id="path3210" inkscape:connector-curvature="0" fill="#FFFFFF" stroke="#918F90" stroke-width="0.473" d="M42,651.218
								h3.882v-1.19H42V651.218z"/>
							<path id="path3212" inkscape:connector-curvature="0" fill="#FFFFFF" stroke="#918F90" stroke-width="0.473" d="M42,650.027
								h3.882v-1.192H42V650.027z"/>
							<path id="path3214" inkscape:connector-curvature="0" fill="#FFFFFF" stroke="#918F90" stroke-width="0.473" d="M42,648.835
								h3.882v-1.19H42V648.835z"/>
							<path id="path3216" inkscape:connector-curvature="0" fill="#FFFFFF" stroke="#918F90" stroke-width="0.473" d="M42,647.645
								h3.882v-1.191H42V647.645z"/>
							<path id="path3218" inkscape:connector-curvature="0" fill="#FFFFFF" stroke="#918F90" stroke-width="0.473" d="M42,646.454
								h3.882v-1.19H42V646.454z"/>
							<path id="path3220" inkscape:connector-curvature="0" fill="#FFFFFF" stroke="#918F90" stroke-width="0.473" d="M42,645.264
								h3.882v-1.19H42V645.264z"/>
							<path id="path3222" inkscape:connector-curvature="0" fill="#FFFFFF" stroke="#918F90" stroke-width="0.473" d="
								M32.952,651.201h12.93v3.511h-12.93V651.201z"/>
							<path id="path3224" inkscape:connector-curvature="0" fill="#FFFFFF" stroke="#918F90" stroke-width="0.473" d="
								M36.1,301.428h-6.162v-17.905H36.1V301.428z"/>
							<path id="path3226" inkscape:connector-curvature="0" fill="#FFFFFF" stroke="#918F90" stroke-width="0.473" d="
								M87.439,301.481H81.28v-17.909h6.159V301.481z"/>
							<g id="g3228" transform="translate(525.4132,230.4272)">
								<path id="path3230" inkscape:connector-curvature="0" fill="#FFFFFF" d="M-463.59,60.574c0,4.1,1.219,8.166,3.011,10.545
									c1.075,1.43,3.516,1.507,3.516,1.507h3.514v-21.79h-7.734C-461.284,50.836-463.59,54.955-463.59,60.574"/>
							</g>
							<g id="g3232" transform="translate(525.4132,230.4272)">
								<path id="path3234" inkscape:connector-curvature="0" fill="none" stroke="#918F90" stroke-width="0.946" d="
									M-463.59,60.574c0,4.1,1.219,8.166,3.011,10.545c1.075,1.43,3.516,1.507,3.516,1.507h3.514v-21.79h-7.734
									C-461.284,50.836-463.59,54.955-463.59,60.574z"/>
							</g>
							<g id="g3236" transform="translate(519.1676,230.4272)">
								<path id="path3238" inkscape:connector-curvature="0" fill="#FFFFFF" d="M-463.59,60.574c0,4.1-1.22,8.166-3.013,10.545
									c-1.075,1.43-3.516,1.507-3.516,1.507h-3.511v-21.79h7.731C-465.899,50.836-463.59,54.955-463.59,60.574"/>
							</g>
							<g id="g3240" transform="translate(519.1676,230.4272)">
								<path id="path3242" inkscape:connector-curvature="0" fill="none" stroke="#918F90" stroke-width="0.946" d="
									M-463.59,60.574c0,4.1-1.22,8.166-3.013,10.545c-1.075,1.43-3.516,1.507-3.516,1.507h-3.511v-21.79h7.731
									C-465.899,50.836-463.59,54.955-463.59,60.574z"/>
							</g>
							<g id="g3244" transform="translate(535.4375,221.6602)">
								<path id="path3246" inkscape:connector-curvature="0" fill="none" stroke="#918F90" stroke-width="0.473" d="
									M-463.59,60.574h-3.401c-1.52,0-2.752,1.698-2.752,3.791c0,2.097,1.232,3.794,2.752,3.794h3.401V60.574z M-489.895,60.574
									h3.398c1.52,0,2.756,1.698,2.756,3.791c0,2.097-1.236,3.794-2.756,3.794h-3.398V60.574z M-463.59,70.379h-3.401
									c-1.52,0-2.752,1.695-2.752,3.791c0,2.095,1.232,3.793,2.752,3.793h3.401V70.379z M-489.895,70.379h3.398
									c1.52,0,2.756,1.695,2.756,3.791c0,2.095-1.236,3.793-2.756,3.793h-3.398V70.379z M-482.903,99.741l-4.054-1.203
									 M-483.101,100.841l-4.217-0.878 M-483.234,101.945l-4.323-0.533 M-483.436,103.047l-4.24-0.173 M-483.33,104.162
									l-4.345,0.184 M-483.305,105.275l-4.248,0.534 M-483.068,106.363l-4.242,0.892 M-482.948,107.486l-3.999,1.193
									 M-481.942,109.828l-3.757,1.941 M-481.405,110.8l-3.572,2.236 M-480.867,111.785l-3.284,2.454 M-483.839,115.013
									c-0.875-1.143-1.609-2.402-2.205-3.733l-0.849-2.302c-0.576-1.955-0.857-4.039-0.758-6.199
									c0.068-1.473,0.319-2.884,0.695-4.241c0.818-3.136,2.62-5.419,3.558-6.507l0.534-0.611l2.946,3.091
									c-0.598,0.695-1.418,1.93-1.878,2.739c0.527,0.598,0.512,1.509-0.064,2.07c-0.291,0.278-0.666,0.416-1.041,0.421
									l0.055,0.012c-0.288,1.032-0.476,2.106-0.526,3.22c-0.071,1.52,0.112,2.989,0.484,4.373c0.373,0.028,0.74,0.184,1.009,0.484
									c0.545,0.596,0.512,1.502-0.051,2.066c0.409,0.835,1.153,2.117,1.709,2.849l-3.123,2.908L-483.839,115.013z
									 M-481.811,97.322l-3.634-2.168 M-481.216,96.382l-3.434-2.447 M-480.621,95.431l-3.136-2.646 M-470.403,99.741l4.054-1.203
									 M-470.203,100.841l4.212-0.878 M-470.072,101.945l4.323-0.533 M-469.869,103.047l4.239-0.173 M-469.974,104.162
									l4.341,0.184 M-470.001,105.275l4.249,0.534 M-470.237,106.363l4.241,0.892 M-470.361,107.486l4.003,1.193
									 M-471.364,109.828l3.756,1.941 M-471.9,110.8l3.57,2.236 M-472.438,111.785l3.286,2.454 M-469.466,115.013
									c0.875-1.143,1.608-2.402,2.205-3.733l0.849-2.302c0.577-1.955,0.858-4.039,0.758-6.199
									c-0.067-1.473-0.318-2.884-0.695-4.241c-0.818-3.136-2.62-5.419-3.561-6.507l-0.53-0.611l-2.951,3.091
									c0.6,0.695,1.423,1.93,1.88,2.739c-0.526,0.598-0.512,1.509,0.067,2.07c0.291,0.278,0.664,0.416,1.041,0.421l-0.058,0.012
									c0.287,1.032,0.479,2.106,0.529,3.22c0.071,1.52-0.112,2.989-0.485,4.373c-0.372,0.028-0.738,0.184-1.012,0.484
									c-0.542,0.596-0.51,1.502,0.054,2.066c-0.409,0.835-1.154,2.117-1.714,2.849l3.128,2.908L-469.466,115.013z
									 M-471.497,97.322l3.636-2.168 M-472.089,96.382l3.432-2.447 M-472.686,95.431l3.137-2.646"/>
							</g>
							<path id="path3248" inkscape:connector-curvature="0" fill="#FFFFFF" stroke="#918F90" stroke-width="0.473" d="
								M38.77,631.058h-6.16v-17.907h6.16V631.058z"/>
							<path id="path3250" inkscape:connector-curvature="0" fill="#FFFFFF" stroke="#918F90" stroke-width="0.473" d="
								M85.099,631.058h-6.16v-17.907h6.16V631.058z"/>
							<g id="g3252" transform="translate(534.5258,552.8184)">
								<path id="path3254" inkscape:connector-curvature="0" fill="#FFFFFF" d="M-463.59,60.574v19.922h-5.095
									c-1.238-2.823-3.693-3.377-7.016-3.377c-3.327,0-5.78,0.554-7.02,3.377h-5.062V60.577c3.062-1.395,7.348-3.271,12.098-3.271
									S-466.651,59.181-463.59,60.574"/>
							</g>
							<g id="g3256" transform="translate(534.5258,552.8184)">
								<path id="path3258" inkscape:connector-curvature="0" fill="none" stroke="#918F90" stroke-width="0.946" d="
									M-463.59,60.574v19.922h-5.095c-1.238-2.823-3.693-3.377-7.016-3.377c-3.327,0-5.78,0.554-7.02,3.377h-5.062V60.577
									c3.062-1.395,7.348-3.271,12.098-3.271S-466.651,59.181-463.59,60.574z M-506.698,214.461h61.825v-19.684h-7.648
									l-2.108-3.713l8.134-4.719l1.105-1.708c-2.116-7.626-0.326-11.638,0.188-13.584c0.514-1.943,4.009-9.401-0.917-18.434
									c-5.577-10.215-16.215-11.346-29.822-11.346c-13.608,0-24.245,1.131-29.823,11.346c-4.928,9.033-1.43,16.491-0.916,18.434
									c0.513,1.946,2.075,6.052-0.042,13.678l1.383,1.489l8.435,4.743l-2.408,3.994h-7.385L-506.698,214.461L-506.698,214.461z"/>
							</g>
							<g id="g3260" transform="translate(536.9031,609.3524)">
								
									<path id="path3262" inkscape:connector-curvature="0" fill="#FFFFFF" stroke="#918F90" stroke-width="0.473" stroke-linejoin="round" d="
									M-463.59,60.574c-0.088-0.331-0.133-0.681-0.133-1.043c0-1.072,0.414-2.043,1.087-2.746
									c0.673-0.702,1.603-1.136,2.628-1.136c1.026,0,1.77,0.571,2.379,1.207c0.609,0.636,0.675,1.437,0.675,2.32
									c0,0.882-0.454,1.047-0.961,1.576c-0.751,0.786-1.191,1.232-3.411,0.647c-2.861-0.753-3.538-1.429-4.818-3.614
									c-1.281-2.185,0.076-4.594,1.383-5.519c0.51-0.379,1.052-0.72,1.644-0.972c0.956-0.405,2.009-0.628,3.11-0.628
									c1.105,0,2.154,0.223,3.111,0.628c0.956,0.405,1.816,0.989,2.54,1.712c0.724,0.723,1.309,1.586,1.713,2.54
									c0.405,0.958,0.628,2.009,0.628,3.111s-0.223,2.154-0.63,3.111c-0.403,0.956-1.373,3.248-1.373,3.248"/>
							</g>
							<g id="g3264" transform="translate(543.262,608.8901)">
								<path id="path3266" inkscape:connector-curvature="0" fill="none" stroke="#918F90" stroke-width="0.473" d="
									M-463.59,60.574l4.304,2.253 M-463.251,59.685l4.746,0.862 M-463.389,58.75l4.955-0.614 M-463.615,57.871l4.527-2.054
									 M-464.133,57.124l3.729-3.329 M-464.805,56.513l2.539-4.252 M-465.664,56.198l1.168-4.849 M-466.573,56.048l-0.326-4.902
									 M-467.492,56.21l-1.759-4.542 M-468.353,56.625l-2.993-3.756 M-497.054-337.417l1.538-0.031l1.926-7.198l0.46-3.327
									l2.531-3.002l-1.133-12.616l2.059-0.548l-3.86-17.51h-14.066v-1.56h-2.881v8.532h-1.562v3.972h1.582v4.668h-11.449"/>
							</g>
							<g id="g3268" transform="translate(513.9399,90.4005)">
								<path id="path3270" inkscape:connector-curvature="0" fill="#FFFFFF" d="M-463.59,60.574
									c0.617-4.092,4.144-7.232,8.408-7.232c4.263,0,7.778,3.134,8.402,7.223v3.45c0.436-0.084,0.885-0.13,1.348-0.13
									c3.832,0,6.936,3.104,6.936,6.936c0,2.639-1.482,4.911-3.648,6.085c-0.79,0.247-1.537,0.659-2.162,1.282
									c-1.031,1.034-1.548,2.384-1.548,3.736c0,1.355,0.514,2.707,1.548,3.739c1.022,1.02,2.362,1.53,3.701,1.543
									c2.911,2.962,4.943,6.791,5.615,11.084c-0.851,0.793-1.392,1.913-1.392,3.166c0,1.263,0.546,2.388,1.406,3.179
									c-0.641,4.061-2.478,7.721-5.145,10.604c-0.296-0.048-0.594-0.084-0.891-0.084c-1.349,0-2.705,0.516-3.735,1.545
									c-1.034,1.034-1.547,2.385-1.547,3.738c0,1.35,0.512,2.705,1.547,3.734c0.186,0.189,0.391,0.338,0.594,0.489l-0.166,0.134
									c-3.127,1.291-6.802,2.052-10.76,2.052c-3.961,0-7.646-0.764-10.774-2.057l-0.164-0.136c0.187-0.143,0.38-0.278,0.55-0.45
									c1.034-1.03,1.549-2.384,1.549-3.736v-0.022v-0.006c0,0-0.002-0.002-0.002-0.005c-0.009-1.341-0.521-2.68-1.548-3.702
									c-1.027-1.036-2.38-1.55-3.734-1.55c-0.274,0-0.55,0.041-0.827,0.082c-2.727-2.947-4.586-6.695-5.19-10.859
									c0.72-0.773,1.17-1.807,1.17-2.95c0-1.134-0.442-2.156-1.157-2.932c0.637-4.401,2.701-8.33,5.68-11.347
									c1.239-0.08,2.456-0.568,3.4-1.515c1.036-1.032,1.549-2.384,1.549-3.739c0-1.352-0.513-2.702-1.549-3.736
									c-0.621-0.623-1.371-1.035-2.158-1.282c-2.168-1.174-3.652-3.446-3.652-6.085c0-3.832,3.109-6.936,6.938-6.936
									c0.481,0,0.953,0.046,1.407,0.141V60.574z"/>
							</g>
							<g id="g3272" transform="translate(513.9399,90.4005)">
								
									<path id="path3274" inkscape:connector-curvature="0" fill="none" stroke="#918F90" stroke-width="0.946" stroke-linejoin="round" d="
									M-463.59,60.574c0.617-4.092,4.144-7.232,8.408-7.232c4.263,0,7.778,3.134,8.402,7.223v3.45
									c0.436-0.084,0.885-0.13,1.348-0.13c3.832,0,6.936,3.104,6.936,6.936c0,2.639-1.482,4.911-3.648,6.085
									c-0.79,0.247-1.537,0.659-2.162,1.282c-1.031,1.034-1.548,2.384-1.548,3.736c0,1.355,0.514,2.707,1.548,3.739
									c1.022,1.02,2.362,1.53,3.701,1.543c2.911,2.962,4.943,6.791,5.615,11.084c-0.851,0.793-1.392,1.913-1.392,3.166
									c0,1.263,0.546,2.388,1.406,3.179c-0.641,4.061-2.478,7.721-5.145,10.604c-0.296-0.048-0.594-0.084-0.891-0.084
									c-1.349,0-2.705,0.516-3.735,1.545c-1.034,1.034-1.547,2.385-1.547,3.738c0,1.35,0.512,2.705,1.547,3.734
									c0.186,0.189,0.391,0.338,0.594,0.489l-0.166,0.134c-3.127,1.291-6.802,2.052-10.76,2.052
									c-3.961,0-7.646-0.764-10.774-2.057l-0.164-0.136c0.187-0.143,0.38-0.278,0.55-0.45c1.034-1.03,1.549-2.384,1.549-3.736
									v-0.022v-0.006c0,0-0.002-0.002-0.002-0.005c-0.009-1.341-0.521-2.68-1.548-3.702c-1.027-1.036-2.38-1.55-3.734-1.55
									c-0.274,0-0.55,0.041-0.827,0.082c-2.727-2.947-4.586-6.695-5.19-10.859c0.72-0.773,1.17-1.807,1.17-2.95
									c0-1.134-0.442-2.156-1.157-2.932c0.637-4.401,2.701-8.33,5.68-11.347c1.239-0.08,2.456-0.568,3.4-1.515
									c1.036-1.032,1.549-2.384,1.549-3.739c0-1.352-0.513-2.702-1.549-3.736c-0.621-0.623-1.371-1.035-2.158-1.282
									c-2.168-1.174-3.652-3.446-3.652-6.085c0-3.832,3.109-6.936,6.938-6.936c0.481,0,0.953,0.046,1.407,0.141V60.574z"/>
							</g>
							<g id="g3276" transform="translate(515.1288,90.5599)">
								<path id="path3278" inkscape:connector-curvature="0" fill="none" stroke="#100F0D" stroke-width="0.473" d="
									M-463.59,60.574L-463.59,60.574"/>
							</g>
							<g id="g3280" transform="translate(517.6628,102.1785)">
								<path id="path3282" inkscape:connector-curvature="0" fill="#FFFFFF" d="M-463.59,60.574
									c0.216-0.284,0.395-0.595,0.545-0.916c0.15-0.316,0.267-0.652,0.347-0.998c0.078-0.348,0.119-0.705,0.119-1.073
									c0-0.369-0.041-0.727-0.119-1.072c-0.08-0.346-0.197-0.683-0.347-1.002c-0.151-0.316-0.335-0.62-0.548-0.902
									c-0.217-0.284-0.457-0.547-0.727-0.789c-0.271-0.24-0.566-0.457-0.881-0.647c-0.319-0.193-0.657-0.358-1.015-0.491
									c-0.356-0.135-0.726-0.242-1.114-0.31c-0.388-0.072-0.79-0.111-1.201-0.111c-0.412,0-0.812,0.039-1.2,0.111
									c-0.389,0.068-0.76,0.175-1.116,0.31c-0.355,0.133-0.695,0.298-1.011,0.488l-1.759-3.457
									c0.362-0.187,0.741-0.354,1.128-0.503c0.607-0.227,1.247-0.409,1.909-0.529c0.663-0.12,1.347-0.184,2.049-0.184
									c0.702,0,1.386,0.064,2.052,0.184c0.657,0.12,1.298,0.302,1.906,0.529c0.61,0.23,1.188,0.512,1.727,0.837
									c0.54,0.328,1.044,0.7,1.505,1.112c0.068,0.063,0.128,0.126,0.194,0.19c0.677,0.438,1.478,0.697,2.345,0.697
									c0.823,0,1.583-0.241,2.239-0.637c0.084-0.084,0.165-0.17,0.253-0.248c0.459-0.412,0.962-0.784,1.505-1.112
									c0.541-0.325,1.117-0.608,1.728-0.837c0.605-0.227,1.244-0.409,1.905-0.529c0.663-0.12,1.35-0.184,2.049-0.184
									c0.705,0,1.39,0.064,2.049,0.184c0.661,0.12,1.301,0.302,1.909,0.529c0.389,0.148,0.768,0.316,1.128,0.503l-1.755,3.456
									c-0.316-0.19-0.657-0.355-1.013-0.488c-0.355-0.135-0.73-0.242-1.116-0.31c-0.386-0.073-0.789-0.112-1.202-0.112
									c-0.408,0-0.81,0.039-1.2,0.111c-0.386,0.068-0.76,0.175-1.114,0.31c-0.355,0.133-0.698,0.298-1.013,0.491
									c-0.316,0.19-0.614,0.407-0.881,0.647c-0.27,0.242-0.513,0.505-0.727,0.789c-0.216,0.283-0.398,0.586-0.548,0.902
									c-0.151,0.319-0.27,0.655-0.347,1.002c-0.08,0.345-0.122,0.703-0.122,1.072c0,0.368,0.041,0.725,0.122,1.071
									c0.077,0.347,0.196,0.682,0.347,0.998c0.15,0.321,0.328,0.632,0.542,0.916c-1.327,0.995-2.974,1.605-4.763,1.605
									C-460.613,62.179-462.264,61.568-463.59,60.574"/>
							</g>
							<g id="g3284" transform="translate(517.6628,102.1785)">
								
									<path id="path3286" inkscape:connector-curvature="0" fill="none" stroke="#918F90" stroke-width="0.473" stroke-linejoin="round" d="
									M-463.59,60.574c0.216-0.284,0.395-0.595,0.545-0.916c0.15-0.316,0.267-0.652,0.347-0.998
									c0.078-0.348,0.119-0.705,0.119-1.073c0-0.369-0.041-0.727-0.119-1.072c-0.08-0.346-0.197-0.683-0.347-1.002
									c-0.151-0.316-0.335-0.62-0.548-0.902c-0.217-0.284-0.457-0.547-0.727-0.789c-0.271-0.24-0.566-0.457-0.881-0.647
									c-0.319-0.193-0.657-0.358-1.015-0.491c-0.356-0.135-0.726-0.242-1.114-0.31c-0.388-0.072-0.79-0.111-1.201-0.111
									c-0.412,0-0.812,0.039-1.2,0.111c-0.389,0.068-0.76,0.175-1.116,0.31c-0.355,0.133-0.695,0.298-1.011,0.488l-1.759-3.457
									c0.362-0.187,0.741-0.354,1.128-0.503c0.607-0.227,1.247-0.409,1.909-0.529c0.663-0.12,1.347-0.184,2.049-0.184
									c0.702,0,1.386,0.064,2.052,0.184c0.657,0.12,1.298,0.302,1.906,0.529c0.61,0.23,1.188,0.512,1.727,0.837
									c0.54,0.328,1.044,0.7,1.505,1.112c0.068,0.063,0.128,0.126,0.194,0.19c0.677,0.438,1.478,0.697,2.345,0.697
									c0.823,0,1.583-0.241,2.239-0.637c0.084-0.084,0.165-0.17,0.253-0.248c0.459-0.412,0.962-0.784,1.505-1.112
									c0.541-0.325,1.117-0.608,1.728-0.837c0.605-0.227,1.244-0.409,1.905-0.529c0.663-0.12,1.35-0.184,2.049-0.184
									c0.705,0,1.39,0.064,2.049,0.184c0.661,0.12,1.301,0.302,1.909,0.529c0.389,0.148,0.768,0.316,1.128,0.503l-1.755,3.456
									c-0.316-0.19-0.657-0.355-1.013-0.488c-0.355-0.135-0.73-0.242-1.116-0.31c-0.386-0.073-0.789-0.112-1.202-0.112
									c-0.408,0-0.81,0.039-1.2,0.111c-0.386,0.068-0.76,0.175-1.114,0.31c-0.355,0.133-0.698,0.298-1.013,0.491
									c-0.316,0.19-0.614,0.407-0.881,0.647c-0.27,0.242-0.513,0.505-0.727,0.789c-0.216,0.283-0.398,0.586-0.548,0.902
									c-0.151,0.319-0.27,0.655-0.347,1.002c-0.08,0.345-0.122,0.703-0.122,1.072c0,0.368,0.041,0.725,0.122,1.071
									c0.077,0.347,0.196,0.682,0.347,0.998c0.15,0.321,0.328,0.632,0.542,0.916c-1.327,0.995-2.974,1.605-4.763,1.605
									C-460.613,62.179-462.264,61.568-463.59,60.574z"/>
							</g>
							<g id="g3288" transform="translate(526.5068,101.0317)">
								<path id="path3290" inkscape:connector-curvature="0" fill="none" stroke="#918F90" stroke-width="0.473" d="
									M-463.59,60.575c-1.188,0.727-2.584,1.157-4.081,1.157c-1.502,0-2.906-0.435-4.099-1.17 M-463.866,59.139
									c-1.125,0.628-2.422,0.997-3.805,0.997c-1.394,0-2.7-0.374-3.837-1.014 M-463.74,57.485c-1.159,0.668-2.5,1.054-3.931,1.054
									c-1.451,0-2.811-0.4-3.981-1.082 M-462.154,55.084l-2.682-3.171 M-461.22,54.355l-1.955-3.391 M-460.186,53.718
									l-1.248-3.475 M-458.985,53.552l-0.642-3.836 M-457.796,53.489l0.052-3.843 M-456.609,53.566l0.734-3.769 M-455.479,53.95
									l1.418-3.652 M-473.139,55.084l2.682-3.171 M-474.074,54.355l1.956-3.391 M-475.108,53.718l1.247-3.475 M-476.309,53.552
									l0.642-3.836 M-477.498,53.489l-0.05-3.843 M-478.685,53.566l-0.733-3.769 M-479.815,53.95l-1.416-3.652"/>
							</g>
							<g id="g3292" transform="translate(517.5089,91.0018)">
								<path id="path3294" inkscape:connector-curvature="0" fill="#FFFFFF" d="M-463.59,60.574
									c-0.264-0.159-0.804-0.298-1.129-0.416c-0.325-0.114-0.678-0.209-1.05-0.278c-0.372-0.07-0.77-0.116-1.186-0.136
									c-0.411-0.019-0.843-0.132-1.285-0.103c-0.445,0.037-0.909-0.052-1.379,0.017c-0.47,0.07-0.923,0.166-1.361,0.285
									c-0.437,0.119-0.976,0.258-1.37,0.418c-0.395,0.161-0.766,0.336-1.113,0.532l-1.796-2.924
									c0.369-0.196,0.755-0.386,1.157-0.56c0.626-0.27,1.412-0.512,2.104-0.712c0.691-0.204,1.413-0.367,2.16-0.49
									c0.745-0.12,1.467-0.112,2.171-0.168c0.705-0.055,1.389,0.055,2.049,0.091c0.655,0.036,1.284,0.112,1.877,0.235
									c0.594,0.12,1.152,0.162,1.668,0.364L-463.59,60.574z"/>
							</g>
							<g id="g3296" transform="translate(517.5089,91.0018)">
								
									<path id="path3298" inkscape:connector-curvature="0" fill="none" stroke="#918F90" stroke-width="0.473" stroke-linejoin="round" d="
									M-463.59,60.574c-0.264-0.159-0.804-0.298-1.129-0.416c-0.325-0.114-0.678-0.209-1.05-0.278
									c-0.372-0.07-0.77-0.116-1.186-0.136c-0.411-0.019-0.843-0.132-1.285-0.103c-0.445,0.037-0.909-0.052-1.379,0.017
									c-0.47,0.07-0.923,0.166-1.361,0.285c-0.437,0.119-0.976,0.258-1.37,0.418c-0.395,0.161-0.766,0.336-1.113,0.532
									l-1.796-2.924c0.369-0.196,0.755-0.386,1.157-0.56c0.626-0.27,1.412-0.512,2.104-0.712c0.691-0.204,1.413-0.367,2.16-0.49
									c0.745-0.12,1.467-0.112,2.171-0.168c0.705-0.055,1.389,0.055,2.049,0.091c0.655,0.036,1.284,0.112,1.877,0.235
									c0.594,0.12,1.152,0.162,1.668,0.364L-463.59,60.574z"/>
							</g>
							<g id="g3300" transform="translate(513.8296,86.7113)">
								<path id="path3302" inkscape:connector-curvature="0" fill="none" stroke="#918F90" stroke-width="0.473" d="
									M-463.59,60.574L-463.59,60.574 M-461.003,64.529l1.168-3.795 M-462.12,64.2l0.846-3.741 M-463.343,63.964l0.182-3.652
									 M-464.71,63.989l-0.039-3.639 M-466.074,64.027l-0.664-3.491 M-467.422,64.288l-0.893-3.327 M-468.798,64.757l-1.523-3.117
									"/>
							</g>
							<g id="g3304" transform="translate(527.3458,91.0018)">
								<path id="path3306" inkscape:connector-curvature="0" fill="#FFFFFF" d="M-463.59,60.574
									c0.263-0.159,0.802-0.298,1.129-0.416c0.323-0.114,0.675-0.209,1.05-0.278c0.372-0.07,0.769-0.116,1.184-0.136
									c0.413-0.019,0.842-0.132,1.288-0.103c0.443,0.037,0.909-0.052,1.376,0.017c0.469,0.07,0.927,0.166,1.361,0.285
									c0.437,0.119,0.973,0.258,1.373,0.418c0.395,0.161,0.763,0.336,1.11,0.532l1.799-2.924c-0.372-0.196-0.755-0.386-1.159-0.56
									c-0.625-0.27-1.409-0.512-2.102-0.712c-0.694-0.204-1.416-0.367-2.16-0.49c-0.745-0.12-1.469-0.112-2.171-0.168
									c-0.705-0.055-1.389,0.056-2.049,0.091c-0.652,0.036-1.284,0.113-1.877,0.235c-0.593,0.12-1.154,0.162-1.67,0.364
									L-463.59,60.574z"/>
							</g>
							<g id="g3308" transform="translate(527.3458,91.0018)">
								
									<path id="path3310" inkscape:connector-curvature="0" fill="none" stroke="#918F90" stroke-width="0.473" stroke-linejoin="round" d="
									M-463.59,60.574c0.263-0.159,0.802-0.298,1.129-0.416c0.323-0.114,0.675-0.209,1.05-0.278
									c0.372-0.07,0.769-0.116,1.184-0.136c0.413-0.019,0.842-0.132,1.288-0.103c0.443,0.037,0.909-0.052,1.376,0.017
									c0.469,0.07,0.927,0.166,1.361,0.285c0.437,0.119,0.973,0.258,1.373,0.418c0.395,0.161,0.763,0.336,1.11,0.532l1.799-2.924
									c-0.372-0.196-0.755-0.386-1.159-0.56c-0.625-0.27-1.409-0.512-2.102-0.712c-0.694-0.204-1.416-0.367-2.16-0.49
									c-0.745-0.12-1.469-0.112-2.171-0.168c-0.705-0.055-1.389,0.056-2.049,0.091c-0.652,0.036-1.284,0.113-1.877,0.235
									c-0.593,0.12-1.154,0.162-1.67,0.364L-463.59,60.574z"/>
							</g>
							<g id="g3312" transform="translate(531.0253,86.7113)">
								<path id="path3314" inkscape:connector-curvature="0" fill="none" stroke="#918F90" stroke-width="0.473" d="
									M-463.59,60.574L-463.59,60.574 M-466.178,64.529l-1.167-3.795 M-465.063,64.2l-0.843-3.741 M-463.84,63.964l-0.182-3.652
									 M-462.47,63.989l0.037-3.639 M-461.11,64.027l0.668-3.491 M-459.758,64.288l0.893-3.327 M-458.383,64.757l1.523-3.117
									 M-501.538,173.014v8.587h-6.926v-17.899h8.43L-501.538,173.014z M-459.664,184.762l-1.534-0.031l-1.93-7.198l-0.46-3.326
									l-2.533-3.002l1.132-12.616l-2.059-0.548l3.863-17.51h14.065v-1.559h2.881v8.532h1.562v3.972h-1.582v6.201h11.448
									 M-443.171,172.936v8.588h8.51v-23.848h-11.146L-443.171,172.936z M-454.841,216.847c0.976-0.98,3.312-0.754,4.215,1.355
									c0.905,2.109,7.066,3.389,7.066-0.151v-12.953l2.046-2.939v-7.407l6.853,0.02 M-490.242,216.847
									c-0.976-0.98-3.312-0.754-4.215,1.355c-0.905,2.109-5.727,4.216-8.587-1.054c0,0,1.957-0.605,1.957-2.43
									c0-1.488-1.505-2.845-1.505-5.855c0-3.012,1.355-3.012,1.355-6.327c0-3.313-1.807-2.26-1.807-4.517v-3.315h-6.929
									 M-493.403,240.775c0,2.298-1.864,4.162-4.163,4.162c-2.296,0-4.16-1.864-4.16-4.162v-4.549c0-2.297,1.864-4.159,4.16-4.159
									c2.298,0,4.163,1.862,4.163,4.159V240.775z M-494.364,240.25c0,1.767-1.434,3.198-3.202,3.198
									c-1.765,0-3.196-1.43-3.196-3.198v-3.499c0-1.766,1.431-3.198,3.196-3.198c1.769,0,3.202,1.432,3.202,3.198V240.25z
									 M-434.66,434.951h-7.23c0,4.321-3.223,5.981-4.362,5.981v4.916h-14.642v11.366l0.025,1.383v23.444l3.817,6.127h22.454
									 M-434.61,457.34h-11.623v-16.408"/>
							</g>
							<g id="g3316" transform="translate(522.4261,274.2374)">
								
									<path id="path3318" inkscape:connector-curvature="0" fill="none" stroke="#918F90" stroke-width="0.946" stroke-linejoin="round" d="
									M-463.59,60.574c-1.027,0-1.98,0.281-2.829,0.734l-0.79-1.14c-0.557-0.73-1.301-2.012-1.709-2.848
									c0.562-0.565,0.595-1.471,0.05-2.067c-0.27-0.3-0.638-0.455-1.01-0.483c-0.37-1.386-0.555-2.854-0.484-4.374
									c0.051-1.113,0.238-2.187,0.526-3.219l-0.055-0.013c0.377-0.006,0.751-0.143,1.042-0.421
									c0.576-0.562,0.591-1.473,0.062-2.07c0.463-0.809,1.28-2.045,1.88-2.739l0.829-1.116c0.762,0.345,1.6,0.55,2.487,0.55
									c0.878,0,1.709-0.198,2.461-0.537l0.75,1.102c0.6,0.695,1.423,1.93,1.88,2.739c-0.527,0.597-0.513,1.509,0.066,2.07
									c0.291,0.278,0.666,0.415,1.041,0.421l-0.057,0.013c0.286,1.032,0.478,2.105,0.528,3.22c0.072,1.52-0.113,2.987-0.485,4.373
									c-0.372,0.03-0.738,0.184-1.011,0.484c-0.543,0.596-0.511,1.502,0.053,2.067c-0.409,0.835-1.154,2.117-1.713,2.848
									l-0.843,1.054C-461.729,60.817-462.625,60.574-463.59,60.574z"/>
							</g>
							<g id="g3320" transform="translate(542.483,554.3721)">
								<path id="path3322" inkscape:connector-curvature="0" fill="none" stroke="#918F90" stroke-width="0.473" d="
									M-463.59,60.574l-0.579-0.287c-0.936-0.926-1.515-2.211-1.515-3.629c0-2.823,2.291-5.114,5.115-5.114
									c2.822,0,5.113,2.291,5.113,5.114c0,0.968-0.288,1.862-0.753,2.634v4.37h10.104 M-456.435,79.703v-7.909h10.316v6.554
									h-7.528v1.355H-456.435z M-514.002,78.348h-7.404v-6.427h10.419v7.934h-3.015V78.348z"/>
							</g>
							<path id="path3324" inkscape:connector-curvature="0" fill="none" stroke="#918F90" stroke-width="0.946" d="M65.238,655.65
								H52.435v-10.881h12.803V655.65z"/>
							<g id="g3326" transform="translate(528.0983,595.423)">
								<path id="path3328" inkscape:connector-curvature="0" fill="none" stroke="#918F90" stroke-width="0.473" d="
									M-463.59,60.574v1.125c0,0,5.685,0.325,7.907,4.216"/>
							</g>
							<g id="g3330" transform="translate(546.4756,613.7944)">
								
									<path id="path3332" inkscape:connector-curvature="0" fill="none" stroke="#918F90" stroke-width="0.473" stroke-linejoin="round" d="
									M-463.59,60.574l3.565,1.097l1.932-4.788V31.05h7.678 M-494.04,42.121h-4.498v15.742c0,0-14.759,2.936-16.945,3.69
									l-2.109-4.143V31.126h-7.833 M-534.633,112.99l7.93,5.65c1.996,2.484,6.38,5.115,8.029,5.115 M-457.34,123.661
									c2.409,0,6.173-2.234,8.333-4.921l8.258-5.748"/>
							</g>
							<g id="g3334" transform="translate(568.5927,89.0663)">
								<path id="path3336" inkscape:connector-curvature="0" fill="none" stroke="#918F90" stroke-width="0.946" d="
									M-463.59,60.574L-463.59,60.574l1.312,2.221l1.128,3.098l0.937,3.941l0.845,4.787l0.562,5.724l0.469,6.665l0.284,7.413
									v5.035v6.605v5.16l-0.284,7.415l-0.469,6.568l-0.562,5.726l-0.845,4.878l-0.937,3.943l-1.127,3.097l-1.312,2.188
									l-3.191,1.755l-5.43-0.005l0.03,444.463l8.539,6.1h1.432l0.011,14.911c0,8.986-0.187,17.456-0.548,25.449"/>
							</g>
							
								<path id="path3338" inkscape:connector-curvature="0" fill="#FFFFFF" stroke="#918F90" stroke-width="0.473" stroke-linecap="round" stroke-linejoin="round" d="
								M16.3,675.29h4.521v-1.19H16.3V675.29z"/>
							
								<path id="path3340" inkscape:connector-curvature="0" fill="#FFFFFF" stroke="#918F90" stroke-width="0.473" stroke-linecap="round" stroke-linejoin="round" d="
								M16.3,674.1h4.521v-1.191H16.3V674.1z"/>
							
								<path id="path3342" inkscape:connector-curvature="0" fill="#FFFFFF" stroke="#918F90" stroke-width="0.473" stroke-linecap="round" stroke-linejoin="round" d="
								M16.3,672.909h4.521v-1.19H16.3V672.909z"/>
							
								<path id="path3344" inkscape:connector-curvature="0" fill="#FFFFFF" stroke="#918F90" stroke-width="0.473" stroke-linecap="round" stroke-linejoin="round" d="
								M16.3,671.719h4.521v-1.192H16.3V671.719z"/>
							
								<path id="path3346" inkscape:connector-curvature="0" fill="#FFFFFF" stroke="#918F90" stroke-width="0.473" stroke-linecap="round" stroke-linejoin="round" d="
								M16.3,670.527h4.521v-1.189H16.3V670.527z"/>
							
								<path id="path3348" inkscape:connector-curvature="0" fill="#FFFFFF" stroke="#918F90" stroke-width="0.473" stroke-linecap="round" stroke-linejoin="round" d="
								M16.3,669.338h4.521v-1.192H16.3V669.338z"/>
							<g id="g3350" transform="translate(479.89,621.7811)">
								<path id="path3352" inkscape:connector-curvature="0" fill="#FFFFFF" d="M-463.59,60.574h1.657l1.432-1.19h-3.089V60.574z"
									/>
							</g>
							<g id="g3354" transform="translate(479.89,621.7811)">
								
									<path id="path3356" inkscape:connector-curvature="0" fill="none" stroke="#918F90" stroke-width="0.473" stroke-linecap="round" stroke-linejoin="round" d="
									M-463.59,60.574h1.657l1.432-1.19h-3.089V60.574z"/>
							</g>
							<g id="g3358" transform="translate(479.89,620.5909)">
								<path id="path3360" inkscape:connector-curvature="0" fill="#FFFFFF" d="M-463.59,60.574h3.089l1.432-1.19h-4.521V60.574z"
									/>
							</g>
							<g id="g3362" transform="translate(479.89,620.5909)">
								
									<path id="path3364" inkscape:connector-curvature="0" fill="none" stroke="#918F90" stroke-width="0.473" stroke-linecap="round" stroke-linejoin="round" d="
									M-463.59,60.574h3.089l1.432-1.19h-4.521V60.574z"/>
							</g>
							
								<path id="path3366" inkscape:connector-curvature="0" fill="#FFFFFF" stroke="#918F90" stroke-width="0.473" stroke-linecap="round" stroke-linejoin="round" d="
								M16.3,679.975h4.521v-1.192H16.3V679.975z"/>
							
								<path id="path3368" inkscape:connector-curvature="0" fill="#FFFFFF" stroke="#918F90" stroke-width="0.473" stroke-linecap="round" stroke-linejoin="round" d="
								M16.3,675.275h4.521v3.509H16.3V675.275z"/>
							
								<path id="path3370" inkscape:connector-curvature="0" fill="#FFFFFF" stroke="#918F90" stroke-width="0.473" stroke-linecap="round" stroke-linejoin="round" d="
								M101.127,675.546h-4.521v-1.19h4.521V675.546z"/>
							
								<path id="path3372" inkscape:connector-curvature="0" fill="#FFFFFF" stroke="#918F90" stroke-width="0.473" stroke-linecap="round" stroke-linejoin="round" d="
								M101.127,674.357h-4.521v-1.191h4.521V674.357z"/>
							
								<path id="path3374" inkscape:connector-curvature="0" fill="#FFFFFF" stroke="#918F90" stroke-width="0.473" stroke-linecap="round" stroke-linejoin="round" d="
								M101.127,673.165h-4.521v-1.19h4.521V673.165z"/>
							
								<path id="path3376" inkscape:connector-curvature="0" fill="#FFFFFF" stroke="#918F90" stroke-width="0.473" stroke-linecap="round" stroke-linejoin="round" d="
								M101.127,671.975h-4.521v-1.191h4.521V671.975z"/>
							
								<path id="path3378" inkscape:connector-curvature="0" fill="#FFFFFF" stroke="#918F90" stroke-width="0.473" stroke-linecap="round" stroke-linejoin="round" d="
								M101.127,670.784h-4.521v-1.19h4.521V670.784z"/>
							
								<path id="path3380" inkscape:connector-curvature="0" fill="#FFFFFF" stroke="#918F90" stroke-width="0.473" stroke-linecap="round" stroke-linejoin="round" d="
								M101.127,669.594h-4.521v-1.191h4.521V669.594z"/>
							<g id="g3382" transform="translate(564.7174,622.0398)">
								<path id="path3384" inkscape:connector-curvature="0" fill="#FFFFFF" d="M-463.59,60.574h-1.66l-1.429-1.192h3.089V60.574z"
									/>
							</g>
							<g id="g3386" transform="translate(564.7174,622.0398)">
								
									<path id="path3388" inkscape:connector-curvature="0" fill="none" stroke="#918F90" stroke-width="0.473" stroke-linecap="round" stroke-linejoin="round" d="
									M-463.59,60.574h-1.66l-1.429-1.192h3.089V60.574z"/>
							</g>
							<g id="g3390" transform="translate(564.7174,620.8477)">
								<path id="path3392" inkscape:connector-curvature="0" fill="#FFFFFF" d="M-463.59,60.574h-3.089l-1.432-1.189h4.521V60.574z
									"/>
							</g>
							<g id="g3394" transform="translate(564.7174,620.8477)">
								
									<path id="path3396" inkscape:connector-curvature="0" fill="none" stroke="#918F90" stroke-width="0.473" stroke-linecap="round" stroke-linejoin="round" d="
									M-463.59,60.574h-3.089l-1.432-1.189h4.521V60.574z"/>
							</g>
							
								<path id="path3398" inkscape:connector-curvature="0" fill="#FFFFFF" stroke="#918F90" stroke-width="0.473" stroke-linecap="round" stroke-linejoin="round" d="
								M101.127,680.233h-4.521v-1.192h4.521V680.233z"/>
							
								<path id="path3400" inkscape:connector-curvature="0" fill="#FFFFFF" stroke="#918F90" stroke-width="0.473" stroke-linecap="round" stroke-linejoin="round" d="
								M101.127,675.532h-4.521v3.509h4.521V675.532z"/>
							<g id="g3402" transform="translate(520.3451,560.7324)">
								
									<path id="path3404" inkscape:connector-curvature="0" fill="none" stroke="#918F90" stroke-width="0.473" stroke-linejoin="round" d="
									M-463.59,60.574c-0.288-2.075-0.311-7.153-1.134-8.167c-0.603-0.829-2.445,2.395-2.445,4.265v0.003v2.688
									c-0.723,0.722-1.703,0.889-2.7,0.889c-1.152,0-1.916-0.258-2.611-0.958v-2.639c0-1.781,0.408-3.464,1.12-4.97
									c1.314-0.548,2.763-1.074,4.32-1.493c-1.695,1.621-2.752,3.917-2.752,6.469 M-453.328,56.661
									c0-2.552-1.06-4.848-2.753-6.469c1.556,0.419,3.006,0.945,4.318,1.493c0.716,1.506,1.123,3.189,1.123,4.97v2.639
									c-0.737,0.736-1.565,1.038-2.715,1.038c-0.998,0-1.753-0.217-2.509-0.969v-2.685l-0.002-0.003
									c0-1.873-1.248-4.345-2.473-4.222c-0.673,0.926-0.795,4.567-0.977,6.946c0.027,0.01,0.064,0.02,0.092,0.028h-0.096
									c-0.034,0.449-0.072,0.856-0.116,1.188c0.023,0.004,0.045,0.007,0.066,0.012h-0.066c-0.002,0.023-0.005,0.048-0.009,0.067
									 M-464.292,53.161c0.713-0.263,1.696-0.526,2.783-0.526c1.089,0,2.073,0.263,2.787,0.526 M-464.179,54.407
									c0.697-0.249,1.636-0.488,2.67-0.488c1.039,0,1.982,0.24,2.677,0.491 M-464.065,55.651c0.679-0.232,1.573-0.451,2.555-0.451
									c0.989,0,1.891,0.222,2.573,0.456 M-463.952,56.897c0.663-0.216,1.514-0.414,2.443-0.414c0.941,0,1.798,0.2,2.464,0.421
									 M-463.836,58.143c0.644-0.201,1.451-0.377,2.327-0.377c0.891,0,1.709,0.18,2.359,0.386 M-463.724,59.389
									c0.627-0.186,1.391-0.342,2.215-0.342c0.842,0,1.621,0.162,2.252,0.352 M-463.611,60.636
									c0.611-0.171,1.331-0.304,2.102-0.304c0.791,0,1.527,0.138,2.145,0.315"/>
							</g>
							<g id="g3406" transform="translate(516.7665,556.8306)">
								
									<path id="path3408" inkscape:connector-curvature="0" fill="#FFFFFF" stroke="#918F90" stroke-width="0.473" stroke-linejoin="round" d="
									M-463.59,60.574l-5.312-0.017"/>
							</g>
							<g id="g3410" transform="translate(516.8069,556.0265)">
								
									<path id="path3412" inkscape:connector-curvature="0" fill="#FFFFFF" stroke="#918F90" stroke-width="0.473" stroke-linejoin="round" d="
									M-463.59,60.574l-5.241-0.768"/>
							</g>
							<g id="g3414" transform="translate(516.9749,555.2391)">
								
									<path id="path3416" inkscape:connector-curvature="0" fill="#FFFFFF" stroke="#918F90" stroke-width="0.473" stroke-linejoin="round" d="
									M-463.59,60.574l-5.081-1.502"/>
							</g>
							<g id="g3418" transform="translate(517.2699,554.4882)">
								
									<path id="path3420" inkscape:connector-curvature="0" fill="#FFFFFF" stroke="#918F90" stroke-width="0.473" stroke-linejoin="round" d="
									M-463.589,60.574l-4.835-2.21"/>
							</g>
							<g id="g3422" transform="translate(517.5845,553.7385)">
								
									<path id="path3424" inkscape:connector-curvature="0" fill="#FFFFFF" stroke="#918F90" stroke-width="0.473" stroke-linejoin="round" d="
									M-463.59,60.574l-3.769-2.422"/>
							</g>
							<g id="g3426" transform="translate(518.0573,553.0715)">
								
									<path id="path3428" inkscape:connector-curvature="0" fill="#FFFFFF" stroke="#918F90" stroke-width="0.473" stroke-linejoin="round" d="
									M-463.59,60.574l-2.682-2.321"/>
							</g>
							<g id="g3430" transform="translate(527.9794,556.8306)">
								
									<path id="path3432" inkscape:connector-curvature="0" fill="#FFFFFF" stroke="#918F90" stroke-width="0.473" stroke-linejoin="round" d="
									M-463.59,60.574l5.316-0.017"/>
							</g>
							<g id="g3434" transform="translate(527.943,556.0265)">
								
									<path id="path3436" inkscape:connector-curvature="0" fill="#FFFFFF" stroke="#918F90" stroke-width="0.473" stroke-linejoin="round" d="
									M-463.59,60.574l5.242-0.768"/>
							</g>
							<g id="g3438" transform="translate(527.7725,555.2391)">
								
									<path id="path3440" inkscape:connector-curvature="0" fill="#FFFFFF" stroke="#918F90" stroke-width="0.473" stroke-linejoin="round" d="
									M-463.59,60.574l5.082-1.502"/>
							</g>
							<g id="g3442" transform="translate(527.4801,554.4882)">
								
									<path id="path3444" inkscape:connector-curvature="0" fill="#FFFFFF" stroke="#918F90" stroke-width="0.473" stroke-linejoin="round" d="
									M-463.59,60.574l4.835-2.21"/>
							</g>
							<g id="g3446" transform="translate(527.1641,553.7385)">
								
									<path id="path3448" inkscape:connector-curvature="0" fill="#FFFFFF" stroke="#918F90" stroke-width="0.473" stroke-linejoin="round" d="
									M-463.59,60.574l3.769-2.422"/>
							</g>
							<g id="g3450" transform="translate(526.6914,553.0715)">
								
									<path id="path3452" inkscape:connector-curvature="0" fill="#FFFFFF" stroke="#918F90" stroke-width="0.473" stroke-linejoin="round" d="
									M-463.59,60.574l2.682-2.321"/>
							</g>
							<g id="g3454" transform="translate(518.5969,552.452)">
								
									<path id="path3456" inkscape:connector-curvature="0" fill="#FFFFFF" stroke="#918F90" stroke-width="0.473" stroke-linejoin="round" d="
									M-463.59,60.574l-1.702-2.102"/>
							</g>
							<g id="g3458" transform="translate(526.1516,552.452)">
								<path id="path3460" inkscape:connector-curvature="0" fill="#FFFFFF" d="M-463.59,60.574l1.702-2.102"/>
							</g>
							<g id="g3462" transform="translate(526.1516,552.452)">
								
									<path id="path3464" inkscape:connector-curvature="0" fill="none" stroke="#918F90" stroke-width="0.473" stroke-linejoin="round" d="
									M-463.59,60.574l1.702-2.102 M-460.676-39.785c4.731-4.732,4.224-12.388,0.096-16.516c-1.62-1.62-2.428-3.58-3.007-5.07
									l-3.366,1.304c0.548,1.427,1.577,4.081,3.816,6.32c1.389,1.39,2.219,3.518,2.219,5.689c0,2.195-0.822,4.223-2.314,5.716
									L-460.676-39.785z M-463.232-42.341l2.556,2.556 M-462.401-43.422l2.928,2.117 M-461.754-44.621l3.228,1.625
									 M-461.305-45.906l3.446,1.089 M-461.066-47.247l3.576,0.526 M-461.046-48.609l3.616-0.048 M-461.241-49.957l3.561-0.62
									 M-461.648-51.257l3.418-1.182 M-462.256-52.475l3.184-1.709"/>
							</g>
							<g id="g3466" transform="translate(525.1237,436.1392)">
								<path id="path3468" inkscape:connector-curvature="0" fill="none" stroke="#918F90" stroke-width="0.473" d="
									M-463.59,60.574l2.959-1.968 M-461.273,57.384l-3.096,1.747 M-461.915,56.165l-3.232,1.523 M-464.684,67.162
									c1.807,5.098,1.246,9.916-1.254,10.758c-2.499,0.842-5.994-2.611-7.805-7.714c-1.809-5.1-1.246-9.915,1.254-10.76
									C-469.985,58.605-466.492,62.062-464.684,67.162z"/>
							</g>
							<g id="g3470" transform="translate(474.7015,626.221)">
								<path id="path3472" inkscape:connector-curvature="0" fill="none" stroke="#918F90" stroke-width="0.946" d="
									M-463.59,60.574h-4.218 M-368.319,60.197h4.247"/>
							</g>
							<g id="g3474" transform="translate(476.0553,89.0663)">
								<path id="path3476" inkscape:connector-curvature="0" fill="none" stroke="#918F90" stroke-width="0.473" d="
									M-463.59,60.574c9-11.967,24.869-19.397,46.959-19.397c20.888,0,36.579,7.23,45.578,19.397"/>
							</g>
							<path id="path3478" inkscape:connector-curvature="0" fill="#FFFFFF" stroke="#918F90" stroke-width="0.473" d="
								M63.714,608.735h-9.743v2.779h9.743V608.735z"/>
							<g id="g3480" transform="translate(484.6447,483.4007)">
								
									<path id="path3482" inkscape:connector-curvature="0" fill="none" stroke="#918F90" stroke-width="0.473" stroke-linejoin="round" d="
									M-463.59,60.574h26.284v14.109h2.39l1.978,4.389 M-446.509,102.781h-2.404v3.005h-5.883v-3.005h-2.446V88.138h2.446v-4.464
									h5.883v4.464h2.404V102.781z"/>
							</g>
							<g id="g3484" transform="translate(502.3594,552.5764)">
								<path id="path3486" inkscape:connector-curvature="0" fill="none" stroke="#918F90" stroke-width="0.473" d="
									M-463.59,60.574c0-20.511,8.441-14.783,8.441-20.511V16.964 M-470.762-16.976v8.375h-10.52v-11.473h7.424L-470.762-16.976z"
									/>
							</g>
							<g id="g3488" transform="translate(516.1847,314.5862)">
								
									<path id="path3490" inkscape:connector-curvature="0" fill="none" stroke="#918F90" stroke-width="0.473" stroke-linejoin="round" d="
									M-463.59,60.574c-4.73,4.734-4.222,12.388-0.094,16.517c1.62,1.619,2.427,3.578,3.004,5.07l3.373-1.309
									c-0.555-1.424-1.584-4.078-3.82-6.317c-1.39-1.387-2.219-3.516-2.219-5.689c0-2.191,0.821-4.223,2.313-5.716L-463.59,60.574
									z M-461.031,63.129l-2.559-2.555 M-461.86,64.211l-2.934-2.117 M-462.51,65.409l-3.231-1.623 M-462.958,66.695l-3.447-1.087
									 M-463.194,68.036l-3.578-0.527 M-463.221,69.401l-3.614,0.045 M-463.024,70.748l-3.56,0.622 M-462.617,72.049l-3.416,1.18
									 M-462.007,73.267l-3.189,1.707"/>
							</g>
							<g id="g3492" transform="translate(520.1283,330.5401)">
								<path id="path3494" inkscape:connector-curvature="0" fill="none" stroke="#918F90" stroke-width="0.473" d="
									M-463.59,60.574l-2.955,1.968 M-465.904,63.765l3.093-1.748 M-465.265,64.985l3.233-1.526 M-423.543,119.366h-7.52v-3.938
									h-23.406V94.212h30.926 M-423.543,89.398h-9.493c0,0,6.23-1.91,6.23-8.861V70.296c0-8.476-10.164-8.026-10.164-8.026
									s10.164-0.653,10.164-9.623V41.602c0-7.037-9.289-8.424-9.289-8.424V23.116h-6.126c0,0,1.029-1.827,2.13-3.965
									c1.035-2.014,1.043-4.239,1.043-4.239h2.952v-3.609h12.548 M-498.861,15.67h14.045l1.211-4.357h7.75
									c0,0,0.245,3.63,1.452,5.812c1.216,2.18,4.663,5.633,4.663,5.633h-5.75c0,0-1.21-2.12-3.148-2.12
									c-1.372,0-1.939,1.09-1.939,2.664s1.153,2.725,1.153,2.725s-2.484-0.183-3.211-0.906c-0.727-0.727-2.263-1.213-3.996-1.213
									c-2.605,0-7.63,5.169-7.63,13.322c0,10.051,7.145,12.475,7.145,12.475s-9.566,1.812-9.566,12.229
									c0,10.416,4.966,11.385,4.966,11.385h-7.145 M-498.869,141.619h7.149c0,0-1.453-11.868,7.389-20.709
									c8.839-8.84,15.741-7.507,15.741-7.507V93.904h-6.296l-0.97-3.271c0,0-1.452,2.181-6.174,2.181
									c-4.724,0-7.145-3.623-7.145-7.023c0-3.142,1.198-4.535,2.921-5.943c1.102-0.902,2.811-1.569,3.277-0.94
									c-0.834-1.131-2.231-2.947-3.291-4.38c1.091,1.402-0.695,3.027-1.591,3.027h-11.002"/>
							</g>
						</g>
					</g>
				</g>
			</g>
			<g id="g13706">
				<g>
					<g>
						<g id="g13708">
							<g id="g14280" transform="translate(475.3085,666.2093)">
								<path id="path14282" inkscape:connector-curvature="0" fill="none" stroke="#A7A5A6" stroke-width="0.946" d="
									M-463.59,60.574c-0.358-7.988-0.544-16.454-0.544-25.435l-0.063-14.536h2.415l7.523-5.94l0.032-445.017l-5.428,0.004
									l-3.191-1.754l-1.312-2.19l-1.128-3.096l-0.937-3.942l-0.845-4.878l-0.566-5.726l-0.467-6.568l-0.281-7.416v-5.159v-6.605
									v-5.035l0.281-7.413l0.467-6.667l0.566-5.723l0.845-4.787l0.937-3.941l1.128-3.097l1.312-2.221"/>
							</g>
							<g id="g15380" transform="translate(490.4778,201.4591)">
								<path id="path15382" inkscape:connector-curvature="0" fill="#231F20" d="M-463.589,60.574h-0.37
									c0.352,0.147,0.603,0.494,0.603,0.903c0,0.54-0.44,0.979-0.982,0.979c-0.538,0-0.978-0.439-0.978-0.979
									c0-0.409,0.248-0.756,0.603-0.903h-0.385c-0.495,0-0.901-0.404-0.901-0.905v-2.258c0-0.632,0.353-0.895,0.872-0.996v-3.147
									h1.583v3.148c0.513,0.105,0.858,0.368,0.858,0.995v2.258C-462.687,60.171-463.091,60.574-463.589,60.574"/>
							</g>
							<g id="g15384" transform="translate(556.7363,195.9771)">
								<path id="path15386" inkscape:connector-curvature="0" fill="#231F20" d="M-463.59,60.574h0.599l-0.599,1.805h-0.684
									c0.357,0.146,0.607,0.497,0.607,0.907c0,0.539-0.439,0.976-0.98,0.976c-0.541,0-0.98-0.437-0.98-0.976
									c0-0.41,0.25-0.761,0.603-0.907h-0.679l-0.602-1.805h0.603l-0.603-2.411h0.845l0.323-3.088h0.98l0.322,3.088h0.844
									L-463.59,60.574z"/>
							</g>
							<g id="g15388" transform="translate(487.5844,569.4561)">
								<path id="path15390" inkscape:connector-curvature="0" fill="#231F20" d="M-463.59,60.574v-0.301
									c-0.119,0.287-0.4,0.488-0.733,0.488c-0.438,0-0.793-0.355-0.793-0.791c0-0.438,0.355-0.793,0.793-0.793
									c0.333,0,0.614,0.201,0.733,0.488v-0.309c0-0.406,0.33-0.733,0.734-0.733h1.829c0.512,0,0.722,0.287,0.803,0.706h2.554
									v1.283h-2.554c-0.084,0.412-0.296,0.696-0.803,0.696h-1.829C-463.26,61.308-463.59,60.978-463.59,60.574"/>
							</g>
							<g id="g15392" transform="translate(554.0485,569.7007)">
								<path id="path15394" inkscape:connector-curvature="0" fill="#231F20" d="M-463.59,60.574v0.49l-1.464-0.49v-0.55
									c-0.119,0.286-0.4,0.489-0.733,0.489c-0.438,0-0.793-0.354-0.793-0.792c0-0.439,0.355-0.794,0.793-0.794
									c0.333,0,0.614,0.201,0.733,0.488v-0.548l1.464-0.488v0.488l1.951-0.488v0.68l2.503,0.265v0.793l-2.503,0.263v0.684
									L-463.59,60.574z"/>
							</g>
						</g>
					</g>
				</g>
			</g>
			<text transform="matrix(0.8 0 0 -0.8 44.2422 724.4485)" fill="#231F20" font-family="'ArialNarrow-Bold'" font-size="7.5169">A</text>
			<text transform="matrix(0.8 0 0 -0.8 48.0969 724.4485)" fill="#231F20" font-family="'ArialNarrow-Bold'" font-size="7.5169">L</text>
			<text transform="matrix(0.8 0 0 -0.8 50.9477 724.4485)" fill="#231F20" font-family="'ArialNarrow-Bold'" font-size="7.5169">H</text>
			<text transform="matrix(0.8 0 0 -0.8 54.8024 724.4485)" fill="#231F20" font-family="'ArialNarrow-Bold'" font-size="7.5169">A</text>
			<text transform="matrix(0.8 0 0 -0.8 58.6563 724.4485)" fill="#231F20" font-family="'ArialNarrow-Bold'" font-size="7.5169">M</text>
			<text transform="matrix(0.8 0 0 -0.8 63.8461 724.4485)" fill="#231F20" font-family="'ArialNarrow-Bold'" font-size="7.5169">B</text>
			<text transform="matrix(0.8 0 0 -0.8 67.7008 724.4485)" fill="#231F20" font-family="'ArialNarrow-Bold'" font-size="7.5169">R</text>
			<text transform="matrix(0.8 0 0 -0.8 71.2251 724.4485)" fill="#231F20" font-family="'ArialNarrow-Bold'" font-size="7.5169">A</text>
			<text transform="matrix(0.8 0 0 -0.8 47.6704 718.4352)" fill="#231F20" font-family="'ArialNarrow-Bold'" font-size="7.5169">T</text>
			<text transform="matrix(0.8 0 0 -0.8 50.8571 718.4352)" fill="#231F20" font-family="'ArialNarrow-Bold'" font-size="7.5169">H</text>
			<text transform="matrix(0.8 0 0 -0.8 54.7118 718.4352)" fill="#231F20" font-family="'ArialNarrow-Bold'" font-size="7.5169">E</text>
			<text transform="matrix(0.8 0 0 -0.8 57.8993 718.4352)" fill="#231F20" font-family="'ArialNarrow-Bold'" font-size="7.5169">A</text>
			<text transform="matrix(0.8 0 0 -0.8 61.754 718.4352)" fill="#231F20" font-family="'ArialNarrow-Bold'" font-size="7.5169">T</text>
			<text transform="matrix(0.8 0 0 -0.8 64.9407 718.4352)" fill="#231F20" font-family="'ArialNarrow-Bold'" font-size="7.5169">R</text>
			<text transform="matrix(0.8 0 0 -0.8 68.4649 718.4352)" fill="#231F20" font-family="'ArialNarrow-Bold'" font-size="7.5169">E</text>
			<text transform="matrix(0.8 0 0 -0.8 28.3907 557.6156)" fill="#231F20" font-family="'ArialNarrow-Bold'" font-size="7.5169">T</text>
			<text transform="matrix(0.8 0 0 -0.8 31.5782 557.6156)" fill="#231F20" font-family="'ArialNarrow-Bold'" font-size="7.5169">H</text>
			<text transform="matrix(0.8 0 0 -0.8 35.4329 557.6156)" fill="#231F20" font-family="'ArialNarrow-Bold'" font-size="7.5169">E</text>
			<text transform="matrix(0.8 0 0 -0.8 24.368 551.6024)" fill="#231F20" font-family="'ArialNarrow-Bold'" font-size="7.5169">R</text>
			<text transform="matrix(0.8 0 0 -0.8 27.8915 551.6024)" fill="#231F20" font-family="'ArialNarrow-Bold'" font-size="7.5169">A</text>
			<text transform="matrix(0.8 0 0 -0.8 31.7461 551.6024)" fill="#231F20" font-family="'ArialNarrow-Bold'" font-size="7.5169">V</text>
			<text transform="matrix(0.8 0 0 -0.8 35.2704 551.6024)" fill="#231F20" font-family="'ArialNarrow-Bold'" font-size="7.5169">E</text>
			<text transform="matrix(0.8 0 0 -0.8 38.4571 551.6024)" fill="#231F20" font-family="'ArialNarrow-Bold'" font-size="7.5169">N</text>
			<text transform="matrix(0.8 0 0 -0.8 45.818 192.8008)" fill="#231F20" font-family="'ArialNarrow-Bold'" font-size="7.5169">M</text>
			<text transform="matrix(0.8 0 0 -0.8 51.0079 192.8008)" fill="#231F20" font-family="'ArialNarrow-Bold'" font-size="7.5169">A</text>
			<text transform="matrix(0.8 0 0 -0.8 54.8625 192.8008)" fill="#231F20" font-family="'ArialNarrow-Bold'" font-size="7.5169">C</text>
			<text transform="matrix(0.8 0 0 -0.8 58.386 192.8008)" fill="#231F20" font-family="'ArialNarrow-Bold'" font-size="7.5169">B</text>
			<text transform="matrix(0.8 0 0 -0.8 62.2407 192.8008)" fill="#231F20" font-family="'ArialNarrow-Bold'" font-size="7.5169">E</text>
			<text transform="matrix(0.8 0 0 -0.8 65.4282 192.8008)" fill="#231F20" font-family="'ArialNarrow-Bold'" font-size="7.5169">T</text>
			<text transform="matrix(0.8 0 0 -0.8 68.6149 192.8008)" fill="#231F20" font-family="'ArialNarrow-Bold'" font-size="7.5169">H</text>
			<text transform="matrix(0.8 0 0 -0.8 40.2735 186.7875)" fill="#231F20" font-family="'ArialNarrow-Bold'" font-size="7.5169">D</text>
			<text transform="matrix(0.8 0 0 -0.8 44.1282 186.7875)" fill="#231F20" font-family="'ArialNarrow-Bold'" font-size="7.5169">I</text>
			<text transform="matrix(0.8 0 0 -0.8 45.9805 186.7875)" fill="#231F20" font-family="'ArialNarrow-Bold'" font-size="7.5169">N</text>
			<text transform="matrix(0.8 0 0 -0.8 50.1719 186.7875)" fill="#231F20" font-family="'ArialNarrow-Bold'" font-size="7.5169">I</text>
			<text transform="matrix(0.8 0 0 -0.8 52.0235 186.7875)" fill="#231F20" font-family="'ArialNarrow-Bold'" font-size="7.5169">N</text>
			<text transform="matrix(0.8 0 0 -0.8 56.2149 186.7875)" fill="#231F20" font-family="'ArialNarrow-Bold'" font-size="7.5169">G</text>
			<text transform="matrix(0.8 0 0 -0.8 60.0696 186.7875)" fill="#231F20" font-family="'ArialNarrow-Bold'" font-size="7.5169"> </text>
			<text transform="matrix(0.8 0 0 -0.8 61.5852 186.7875)" fill="#231F20" font-family="'ArialNarrow-Bold'" font-size="7.5169">R</text>
			<text transform="matrix(0.8 0 0 -0.8 65.1094 186.7875)" fill="#231F20" font-family="'ArialNarrow-Bold'" font-size="7.5169">O</text>
			<text transform="matrix(0.8 0 0 -0.8 68.9641 186.7875)" fill="#231F20" font-family="'ArialNarrow-Bold'" font-size="7.5169">O</text>
			<text transform="matrix(0.8 0 0 -0.8 72.8188 186.7875)" fill="#231F20" font-family="'ArialNarrow-Bold'" font-size="7.5169">M</text>
			<text transform="matrix(0.8 0 0 -0.8 68.7969 591.5992)" fill="#231F20" font-family="'ArialNarrow-Bold'" font-size="6.7782">S</text>
			<text transform="matrix(0.8 0 0 -0.8 71.8118 591.5992)" fill="#231F20" font-family="'ArialNarrow-Bold'" font-size="6.7782">C</text>
			<text transform="matrix(0.8 0 0 -0.8 74.8266 591.5992)" fill="#231F20" font-family="'ArialNarrow-Bold'" font-size="6.7782">H</text>
			<text transform="matrix(0.8 0 0 -0.8 78.1399 591.5992)" fill="#231F20" font-family="'ArialNarrow-Bold'" font-size="6.7782">O</text>
			<text transform="matrix(0.8 0 0 -0.8 81.4532 591.5992)" fill="#231F20" font-family="'ArialNarrow-Bold'" font-size="6.7782">O</text>
			<text transform="matrix(0.8 0 0 -0.8 84.7665 591.5992)" fill="#231F20" font-family="'ArialNarrow-Bold'" font-size="6.7782">N</text>
			<text transform="matrix(0.8 0 0 -0.8 88.3829 591.5992)" fill="#231F20" font-family="'ArialNarrow-Bold'" font-size="6.7782">E</text>
			<text transform="matrix(0.8 0 0 -0.8 91.0946 591.5992)" fill="#231F20" font-family="'ArialNarrow-Bold'" font-size="6.7782">R</text>
			<text transform="matrix(0.8 0 0 -0.8 76.6329 586.1766)" fill="#231F20" font-family="'ArialNarrow-Bold'" font-size="6.7782">B</text>
			<text transform="matrix(0.8 0 0 -0.8 79.9454 586.1766)" fill="#231F20" font-family="'ArialNarrow-Bold'" font-size="6.7782">A</text>
			<text transform="matrix(0.8 0 0 -0.8 83.2587 586.1766)" fill="#231F20" font-family="'ArialNarrow-Bold'" font-size="6.7782">R</text>
			<text transform="matrix(0.8 0 0 -0.8 50.8422 502.7883)" fill="#231F20" font-family="'ArialNarrow-Bold'" font-size="6.7782">B</text>
			<text transform="matrix(0.8 0 0 -0.8 54.1555 502.7883)" fill="#231F20" font-family="'ArialNarrow-Bold'" font-size="6.7782">A</text>
			<text transform="matrix(0.8 0 0 -0.8 57.4688 502.7883)" fill="#231F20" font-family="'ArialNarrow-Bold'" font-size="6.7782">R</text>
			<text transform="matrix(0.8 0 0 -0.8 37.0641 478.2726)" fill="#231F20" font-family="'ArialNarrow-Bold'" font-size="6.7782">C</text>
			<text transform="matrix(0.8 0 0 -0.8 40.079 478.2726)" fill="#231F20" font-family="'ArialNarrow-Bold'" font-size="6.7782">A</text>
			<text transform="matrix(0.8 0 0 -0.8 43.3922 478.2726)" fill="#231F20" font-family="'ArialNarrow-Bold'" font-size="6.7782">S</text>
			<text transform="matrix(0.8 0 0 -0.8 46.4071 478.2726)" fill="#231F20" font-family="'ArialNarrow-Bold'" font-size="6.7782">I</text>
			<text transform="matrix(0.8 0 0 -0.8 47.9141 478.2726)" fill="#231F20" font-family="'ArialNarrow-Bold'" font-size="6.7782">N</text>
			<text transform="matrix(0.8 0 0 -0.8 51.5313 478.2726)" fill="#231F20" font-family="'ArialNarrow-Bold'" font-size="6.7782">O</text>
			<text transform="matrix(0.8 0 0 -0.8 37.0688 472.85)" fill="#231F20" font-family="'ArialNarrow-Bold'" font-size="6.7782">R</text>
			<text transform="matrix(0.8 0 0 -0.8 40.0844 472.85)" fill="#231F20" font-family="'ArialNarrow-Bold'" font-size="6.7782">O</text>
			<text transform="matrix(0.8 0 0 -0.8 43.3977 472.85)" fill="#231F20" font-family="'ArialNarrow-Bold'" font-size="6.7782">Y</text>
			<text transform="matrix(0.8 0 0 -0.8 46.4126 472.85)" fill="#231F20" font-family="'ArialNarrow-Bold'" font-size="6.7782">A</text>
			<text transform="matrix(0.8 0 0 -0.8 49.7258 472.85)" fill="#231F20" font-family="'ArialNarrow-Bold'" font-size="6.7782">L</text>
			<text transform="matrix(0.8 0 0 -0.8 52.1329 472.85)" fill="#231F20" font-family="'ArialNarrow-Bold'" font-size="6.7782">E</text>
			<text transform="matrix(0 0.8 0.8 0 34.9157 286.9508)" fill="#231F20" font-family="'ArialNarrow-Bold'" font-size="6.7782">E</text>
			<text transform="matrix(0 0.8 0.8 0 34.9157 289.6633)" fill="#231F20" font-family="'ArialNarrow-Bold'" font-size="6.7782">L</text>
			<text transform="matrix(0 0.8 0.8 0 34.9157 292.0695)" fill="#231F20" font-family="'ArialNarrow-Bold'" font-size="6.7782">E</text>
			<text transform="matrix(0 0.8 0.8 0 34.9157 294.782)" fill="#231F20" font-family="'ArialNarrow-Bold'" font-size="6.7782">V</text>
			<text transform="matrix(0 0.8 0.8 0 34.9157 297.7977)" fill="#231F20" font-family="'ArialNarrow-Bold'" font-size="6.7782">.</text>
			<text transform="matrix(0.8 0 0 -0.8 66.1508 375.8914)" fill="#231F20" font-family="'ArialNarrow-Bold'" font-size="6.7782">P</text>
			<text transform="matrix(0.8 0 0 -0.8 69.1657 375.8914)" fill="#231F20" font-family="'ArialNarrow-Bold'" font-size="6.7782">H</text>
			<text transform="matrix(0.8 0 0 -0.8 72.479 375.8914)" fill="#231F20" font-family="'ArialNarrow-Bold'" font-size="6.7782">O</text>
			<text transform="matrix(0.8 0 0 -0.8 75.7922 375.8914)" fill="#231F20" font-family="'ArialNarrow-Bold'" font-size="6.7782">T</text>
			<text transform="matrix(0.8 0 0 -0.8 78.504 375.8914)" fill="#231F20" font-family="'ArialNarrow-Bold'" font-size="6.7782">O</text>
			<text transform="matrix(0.8 0 0 -0.8 63.8899 370.4688)" fill="#231F20" font-family="'ArialNarrow-Bold'" font-size="6.7782">G</text>
			<text transform="matrix(0.8 0 0 -0.8 67.2032 370.4688)" fill="#231F20" font-family="'ArialNarrow-Bold'" font-size="6.7782">A</text>
			<text transform="matrix(0.8 0 0 -0.8 70.5165 370.4688)" fill="#231F20" font-family="'ArialNarrow-Bold'" font-size="6.7782">L</text>
			<text transform="matrix(0.8 0 0 -0.8 72.9235 370.4688)" fill="#231F20" font-family="'ArialNarrow-Bold'" font-size="6.7782">L</text>
			<text transform="matrix(0.8 0 0 -0.8 75.3313 370.4688)" fill="#231F20" font-family="'ArialNarrow-Bold'" font-size="6.7782">E</text>
			<text transform="matrix(0.8 0 0 -0.8 78.043 370.4688)" fill="#231F20" font-family="'ArialNarrow-Bold'" font-size="6.7782">R</text>
			<text transform="matrix(0.8 0 0 -0.8 81.0579 370.4688)" fill="#231F20" font-family="'ArialNarrow-Bold'" font-size="6.7782">Y</text>
			<text transform="matrix(0.8 0 0 -0.8 65.2454 365.0461)" fill="#231F20" font-family="'ArialNarrow-Bold'" font-size="6.7782">&amp;</text>
			<text transform="matrix(0.8 0 0 -0.8 68.8625 365.0461)" fill="#231F20" font-family="'ArialNarrow-Bold'" font-size="6.7782"> </text>
			<text transform="matrix(0.8 0 0 -0.8 70.0665 365.0461)" fill="#231F20" font-family="'ArialNarrow-Bold'" font-size="6.7782">S</text>
			<text transform="matrix(0.8 0 0 -0.8 73.0813 365.0461)" fill="#231F20" font-family="'ArialNarrow-Bold'" font-size="6.7782">H</text>
			<text transform="matrix(0.8 0 0 -0.8 76.3946 365.0461)" fill="#231F20" font-family="'ArialNarrow-Bold'" font-size="6.7782">O</text>
			<text transform="matrix(0.8 0 0 -0.8 79.7079 365.0461)" fill="#231F20" font-family="'ArialNarrow-Bold'" font-size="6.7782">P</text>
			<text transform="matrix(0 0.8 0.8 0 86.2555 287.0039)" fill="#231F20" font-family="'ArialNarrow-Bold'" font-size="6.7782">E</text>
			<text transform="matrix(0 0.8 0.8 0 86.2555 289.7164)" fill="#231F20" font-family="'ArialNarrow-Bold'" font-size="6.7782">L</text>
			<text transform="matrix(0 0.8 0.8 0 86.2555 292.1227)" fill="#231F20" font-family="'ArialNarrow-Bold'" font-size="6.7782">E</text>
			<text transform="matrix(0 0.8 0.8 0 86.2555 294.8351)" fill="#231F20" font-family="'ArialNarrow-Bold'" font-size="6.7782">V</text>
			<text transform="matrix(0 0.8 0.8 0 86.2555 297.8508)" fill="#231F20" font-family="'ArialNarrow-Bold'" font-size="6.7782">.</text>
			<text transform="matrix(0.8 0 0 -0.8 72.2899 325.1828)" fill="#231F20" font-family="'ArialNarrow-Bold'" font-size="6.7782">B</text>
			<text transform="matrix(0.8 0 0 -0.8 75.6032 325.1828)" fill="#231F20" font-family="'ArialNarrow-Bold'" font-size="6.7782">O</text>
			<text transform="matrix(0.8 0 0 -0.8 78.9165 325.1828)" fill="#231F20" font-family="'ArialNarrow-Bold'" font-size="6.7782">L</text>
			<text transform="matrix(0.8 0 0 -0.8 81.3243 325.1828)" fill="#231F20" font-family="'ArialNarrow-Bold'" font-size="6.7782">E</text>
			<text transform="matrix(0.8 0 0 -0.8 84.0352 325.1828)" fill="#231F20" font-family="'ArialNarrow-Bold'" font-size="6.7782">R</text>
			<text transform="matrix(0.8 0 0 -0.8 87.05 325.1828)" fill="#231F20" font-family="'ArialNarrow-Bold'" font-size="6.7782">O</text>
			<text transform="matrix(0.8 0 0 -0.8 90.3633 325.1828)" fill="#231F20" font-family="'ArialNarrow-Bold'" font-size="6.7782">S</text>
			<text transform="matrix(0.8 0 0 -0.8 73.4993 319.7602)" fill="#231F20" font-family="'ArialNarrow-Bold'" font-size="6.7782">L</text>
			<text transform="matrix(0.8 0 0 -0.8 75.9071 319.7602)" fill="#231F20" font-family="'ArialNarrow-Bold'" font-size="6.7782">O</text>
			<text transform="matrix(0.8 0 0 -0.8 79.2204 319.7602)" fill="#231F20" font-family="'ArialNarrow-Bold'" font-size="6.7782">U</text>
			<text transform="matrix(0.8 0 0 -0.8 82.5336 319.7602)" fill="#231F20" font-family="'ArialNarrow-Bold'" font-size="6.7782">N</text>
			<text transform="matrix(0.8 0 0 -0.8 86.1501 319.7602)" fill="#231F20" font-family="'ArialNarrow-Bold'" font-size="6.7782">G</text>
			<text transform="matrix(0.8 0 0 -0.8 89.4633 319.7602)" fill="#231F20" font-family="'ArialNarrow-Bold'" font-size="6.7782">E</text>
			<text transform="matrix(0.8 0 0 -0.8 24.0727 313.3664)" fill="#231F20" font-family="'ArialNarrow-Bold'" font-size="6.7782">B</text>
			<text transform="matrix(0.8 0 0 -0.8 27.3852 313.3664)" fill="#231F20" font-family="'ArialNarrow-Bold'" font-size="6.7782">O</text>
			<text transform="matrix(0.8 0 0 -0.8 30.6985 313.3664)" fill="#231F20" font-family="'ArialNarrow-Bold'" font-size="6.7782">L</text>
			<text transform="matrix(0.8 0 0 -0.8 33.1063 313.3664)" fill="#231F20" font-family="'ArialNarrow-Bold'" font-size="6.7782">E</text>
			<text transform="matrix(0.8 0 0 -0.8 35.818 313.3664)" fill="#231F20" font-family="'ArialNarrow-Bold'" font-size="6.7782">R</text>
			<text transform="matrix(0.8 0 0 -0.8 38.8329 313.3664)" fill="#231F20" font-family="'ArialNarrow-Bold'" font-size="6.7782">O</text>
			<text transform="matrix(0.8 0 0 -0.8 42.1461 313.3664)" fill="#231F20" font-family="'ArialNarrow-Bold'" font-size="6.7782">S</text>
			<text transform="matrix(0.8 0 0 -0.8 25.2813 307.9438)" fill="#231F20" font-family="'ArialNarrow-Bold'" font-size="6.7782">L</text>
			<text transform="matrix(0.8 0 0 -0.8 27.6891 307.9438)" fill="#231F20" font-family="'ArialNarrow-Bold'" font-size="6.7782">O</text>
			<text transform="matrix(0.8 0 0 -0.8 31.0024 307.9438)" fill="#231F20" font-family="'ArialNarrow-Bold'" font-size="6.7782">U</text>
			<text transform="matrix(0.8 0 0 -0.8 34.3157 307.9438)" fill="#231F20" font-family="'ArialNarrow-Bold'" font-size="6.7782">N</text>
			<text transform="matrix(0.8 0 0 -0.8 37.9329 307.9438)" fill="#231F20" font-family="'ArialNarrow-Bold'" font-size="6.7782">G</text>
			<text transform="matrix(0.8 0 0 -0.8 41.2454 307.9438)" fill="#231F20" font-family="'ArialNarrow-Bold'" font-size="6.7782">E</text>
			<text transform="matrix(0 0.8 0.8 0 37.5852 616.5781)" fill="#100F0D" font-family="'ArialNarrow-Bold'" font-size="6.7782">E</text>
			<text transform="matrix(0 0.8 0.8 0 37.5852 619.2906)" fill="#100F0D" font-family="'ArialNarrow-Bold'" font-size="6.7782">L</text>
			<text transform="matrix(0 0.8 0.8 0 37.5852 621.6969)" fill="#100F0D" font-family="'ArialNarrow-Bold'" font-size="6.7782">E</text>
			<text transform="matrix(0 0.8 0.8 0 37.5852 624.4094)" fill="#100F0D" font-family="'ArialNarrow-Bold'" font-size="6.7782">V</text>
			<text transform="matrix(0 0.8 0.8 0 37.5852 627.425)" fill="#100F0D" font-family="'ArialNarrow-Bold'" font-size="6.7782">.</text>
			<text transform="matrix(0 0.8 0.8 0 83.9165 616.5781)" fill="#100F0D" font-family="'ArialNarrow-Bold'" font-size="6.7782">E</text>
			<text transform="matrix(0 0.8 0.8 0 83.9165 619.2906)" fill="#100F0D" font-family="'ArialNarrow-Bold'" font-size="6.7782">L</text>
			<text transform="matrix(0 0.8 0.8 0 83.9165 621.6969)" fill="#100F0D" font-family="'ArialNarrow-Bold'" font-size="6.7782">E</text>
			<text transform="matrix(0 0.8 0.8 0 83.9165 624.4094)" fill="#100F0D" font-family="'ArialNarrow-Bold'" font-size="6.7782">V</text>
			<text transform="matrix(0 0.8 0.8 0 83.9165 627.425)" fill="#100F0D" font-family="'ArialNarrow-Bold'" font-size="6.7782">.</text>
		</g>
	</g>
</g>
</svg>
