<?xml version="1.0" encoding="utf-8"?>
<!-- Generator: Adobe Illustrator 16.0.4, SVG Export Plug-In . SVG Version: 6.00 Build 0)  -->
<!DOCTYPE svg PUBLIC "-//W3C//DTD SVG 1.1//EN" "http://www.w3.org/Graphics/SVG/1.1/DTD/svg11.dtd">
<svg version="1.1"
	 id="svg2" xmlns:dc="http://purl.org/dc/elements/1.1/" xmlns:cc="http://creativecommons.org/ns#" xmlns:rdf="http://www.w3.org/1999/02/22-rdf-syntax-ns#" xmlns:svg="http://www.w3.org/2000/svg" xmlns:inkscape="http://www.inkscape.org/namespaces/inkscape"
	 xmlns="http://www.w3.org/2000/svg" xmlns:xlink="http://www.w3.org/1999/xlink" x="0px" y="0px" width="126.5px"
	 height="813.417px" viewBox="592.25 102.333 126.5 813.417" enable-background="new 592.25 102.333 126.5 813.417"
	 xml:space="preserve">
<g>
	<g>
		<g id="g10" transform="matrix(1.25,0,0,-1.25,0,990)">
			<g id="g12990">
				<g>
					<g id="g12992">
						<g id="g12998" transform="translate(488.9115,696.1821)">
							<path id="path13000" inkscape:connector-curvature="0" fill="#FFFFFF" d="M0,0.134
								c-10.034-10.03-14.702-27.765-14.702-55.811v-399.478v-0.428l0.105-0.421l2.52-9.95l0.195-0.755l0.497-0.604l2.13-2.547
								v-121.494c0-12.037,4.652-23.355,13.105-31.866c8.451-8.513,19.687-13.198,31.64-13.198c11.955,0,23.189,4.685,31.643,13.198
								c8.449,8.511,13.105,19.829,13.105,31.866v121.545l2.084,2.495l0.499,0.604l0.192,0.755l2.52,9.95l0.106,0.421v0.428
								l0.046,399.478c0,28.046-4.672,45.781-14.701,55.811c-8.63,8.63-20.571,13.429-35.495,13.429
								C20.569,13.562,8.629,8.764,0,0.134"/>
						</g>
						<g id="g13002" transform="translate(488.9115,696.1821)">
							<path id="path13004" inkscape:connector-curvature="0" fill="none" stroke="#918F90" stroke-width="0.957" d="M0,0.134
								c-10.034-10.03-14.702-27.765-14.702-55.811v-399.478v-0.428l0.105-0.421l2.52-9.95l0.195-0.755l0.497-0.604l2.13-2.547
								v-121.494c0-12.037,4.652-23.355,13.105-31.866c8.451-8.513,19.687-13.198,31.64-13.198c11.955,0,23.189,4.685,31.643,13.198
								c8.449,8.511,13.105,19.829,13.105,31.866v121.545l2.084,2.495l0.499,0.604l0.192,0.755l2.52,9.95l0.106,0.421v0.428
								l0.046,399.478c0,28.046-4.672,45.781-14.701,55.811c-8.63,8.63-20.571,13.429-35.495,13.429
								C20.569,13.562,8.629,8.764,0,0.134z"/>
						</g>
					</g>
				</g>
			</g>
			<g id="g13006">
				<g>
					<g id="g13008">
						<g id="g13014" transform="translate(491.2498,608.0835)">
							<path id="path13016" inkscape:connector-curvature="0" fill="none" stroke="#918F90" stroke-width="0.478" d="M0,0.134
								c0.597,0.804,1.117,1.671,1.562,2.584l0.796,1.943c0.554,1.658,0.856,3.435,0.834,5.29c-0.014,1.26-0.188,2.479-0.47,3.649
								l-3.558-0.921c0.217-0.891,0.348-1.814,0.36-2.77C-0.46,8.605-0.66,7.354-1.021,6.175L-1.914,4.02
								c-0.244-0.453-0.612-1.059-0.975-1.597L0,0.134z M-0.787,12.69l3.51,0.91 M-0.647,11.742l3.634,0.627 M-0.566,10.792
								l3.717,0.332 M-0.427,9.843l3.638,0.02 M-0.548,8.892l3.713-0.285 M-0.975,6.054l3.392-1.138 M-1.439,5.068l3.275-1.458
								 M-1.905,4.081l3.161-1.776 M-2.394,3.265l2.993-2.021 M65.556,0.134c-0.598,0.806-1.122,1.671-1.566,2.582l-0.795,1.947
								c-0.553,1.658-0.853,3.433-0.832,5.289c0.014,1.259,0.186,2.477,0.47,3.648l3.557-0.921c-0.216-0.89-0.347-1.814-0.36-2.77
								c-0.014-1.304,0.186-2.555,0.547-3.732L67.47,4.02c0.242-0.453,0.609-1.059,0.973-1.597L65.556,0.134z M66.341,12.69
								l-3.509,0.91 M66.201,11.742l-3.633,0.628 M66.121,10.792l-3.716,0.332 M65.982,9.843l-3.638,0.021 M66.103,8.892
								L62.39,8.607 M66.53,6.056l-3.389-1.139 M66.994,5.068l-3.275-1.458 M67.458,4.082l-3.157-1.777 M67.948,3.265l-2.994-2.021"
								/>
						</g>
						<path id="path13018" inkscape:connector-curvature="0" fill="#FFFFFF" stroke="#918F90" stroke-width="0.478" d="
							M526.18,659.287h-4.426v1.02h4.426V659.287z"/>
						<path id="path13020" inkscape:connector-curvature="0" fill="#FFFFFF" stroke="#918F90" stroke-width="0.478" d="
							M526.18,660.308h-4.426v1.018h4.426V660.308z"/>
						<path id="path13022" inkscape:connector-curvature="0" fill="#FFFFFF" stroke="#918F90" stroke-width="0.478" d="
							M526.18,661.326h-4.426v1.021h4.426V661.326z"/>
						<path id="path13024" inkscape:connector-curvature="0" fill="#FFFFFF" stroke="#918F90" stroke-width="0.478" d="
							M529.505,659.287h-3.326v1.02h3.326V659.287z"/>
						<path id="path13026" inkscape:connector-curvature="0" fill="#FFFFFF" stroke="#918F90" stroke-width="0.478" d="
							M529.505,660.308h-3.326v1.018h3.326V660.308z"/>
						<path id="path13028" inkscape:connector-curvature="0" fill="#FFFFFF" stroke="#918F90" stroke-width="0.478" d="
							M529.505,661.326h-3.326v1.021h3.326V661.326z"/>
						<path id="path13030" inkscape:connector-curvature="0" fill="#FFFFFF" stroke="#918F90" stroke-width="0.478" d="
							M526.18,662.346h-4.426v1.019h4.426V662.346z"/>
						<path id="path13032" inkscape:connector-curvature="0" fill="#FFFFFF" stroke="#918F90" stroke-width="0.478" d="
							M529.505,662.346h-3.326v1.019h3.326V662.346z"/>
						<path id="path13034" inkscape:connector-curvature="0" fill="#FFFFFF" stroke="#918F90" stroke-width="0.478" d="
							M526.18,663.366h-4.426v1.021h4.426V663.366z"/>
						<path id="path13036" inkscape:connector-curvature="0" fill="#FFFFFF" stroke="#918F90" stroke-width="0.478" d="
							M529.505,663.366h-3.326v1.021h3.326V663.366z"/>
						<path id="path13038" inkscape:connector-curvature="0" fill="#FFFFFF" stroke="#918F90" stroke-width="0.478" d="
							M526.18,664.387h-4.426v1.02h4.426V664.387z"/>
						<path id="path13040" inkscape:connector-curvature="0" fill="#FFFFFF" stroke="#918F90" stroke-width="0.478" d="
							M529.505,664.387h-3.326v1.02h3.326V664.387z"/>
						<path id="path13042" inkscape:connector-curvature="0" fill="#FFFFFF" stroke="#918F90" stroke-width="0.478" d="
							M521.753,659.287h-3.326v1.02h3.326V659.287z"/>
						<path id="path13044" inkscape:connector-curvature="0" fill="#FFFFFF" stroke="#918F90" stroke-width="0.478" d="
							M521.753,660.308h-3.326v1.018h3.326V660.308z"/>
						<path id="path13046" inkscape:connector-curvature="0" fill="#FFFFFF" stroke="#918F90" stroke-width="0.478" d="
							M521.753,661.326h-3.326v1.021h3.326V661.326z"/>
						<path id="path13048" inkscape:connector-curvature="0" fill="#FFFFFF" stroke="#918F90" stroke-width="0.478" d="
							M521.753,662.346h-3.326v1.019h3.326V662.346z"/>
						<path id="path13050" inkscape:connector-curvature="0" fill="#FFFFFF" stroke="#918F90" stroke-width="0.478" d="
							M521.753,663.366h-3.326v1.021h3.326V663.366z"/>
						<path id="path13052" inkscape:connector-curvature="0" fill="#FFFFFF" stroke="#918F90" stroke-width="0.478" d="
							M521.753,664.387h-3.326v1.02h3.326V664.387z"/>
						<path id="path13054" inkscape:connector-curvature="0" fill="#FFFFFF" stroke="#918F90" stroke-width="0.478" d="
							M529.505,659.298h-11.077v-3.007h11.077V659.298z"/>
						<g id="g13056" transform="translate(550.8235,619.6742)">
							<path id="path13058" inkscape:connector-curvature="0" fill="#FFFFFF" d="M0,0.134h-23.191l-3.612-1.142l-4.13,1.142h-22.794
								c0.048-3.803,0.655-13.239,6.834-22.447c3.185,1.299,9.666,5.055,20.034,5.055c10.371,0,15.646-3.378,20.035-5.055
								C-4.709-18.771-0.165-12.188,0,0.134"/>
						</g>
						<g id="g13060" transform="translate(550.8235,619.6742)">
							<path id="path13062" inkscape:connector-curvature="0" fill="none" stroke="#918F90" stroke-width="0.478" d="M0,0.134
								h-23.191l-3.612-1.142l-4.13,1.142h-22.794c0.048-3.803,0.655-13.239,6.834-22.447c3.185,1.299,9.666,5.055,20.034,5.055
								c10.371,0,15.646-3.378,20.035-5.055C-4.709-18.771-0.165-12.188,0,0.134z"/>
						</g>
						<path id="path13064" inkscape:connector-curvature="0" fill="#FFFFFF" stroke="#918F90" stroke-width="0.478" d="
							M506.762,618.044h-5.277V602.7h5.277V618.044z"/>
						<path id="path13066" inkscape:connector-curvature="0" fill="#FFFFFF" stroke="#918F90" stroke-width="0.478" d="
							M546.459,618.044h-5.278V602.7h5.278V618.044z"/>
						<g id="g13068" transform="translate(523.9658,619.231)">
							<path id="path13070" inkscape:connector-curvature="0" fill="#FFFFFF" d="M0,0.133c-1.312,0-2.38,1.062-2.51,2.418
								C-4.183,2.194-5.62,1.497-6.612,0.576h-3.751l0.002-8.7h2.714v1.149c0,0,1.031,0.173,1.381,0.458
								c1.672-0.76,3.928-1.229,6.416-1.229c2.397,0,4.569,0.438,6.222,1.148C6.696-6.83,7.647-6.974,7.647-6.974v-1.149h2.72v8.7
								H6.612C5.619,1.497,4.181,2.194,2.51,2.551C2.382,1.196,1.312,0.133,0,0.133"/>
						</g>
						<g id="g13072" transform="translate(523.9658,619.231)">
							
								<path id="path13074" inkscape:connector-curvature="0" fill="none" stroke="#918F90" stroke-width="0.957" stroke-linejoin="round" d="
								M0,0.133c-1.312,0-2.38,1.062-2.51,2.418C-4.183,2.194-5.62,1.497-6.612,0.576h-3.751l0.002-8.7h2.714v1.149
								c0,0,1.031,0.173,1.381,0.458c1.672-0.76,3.928-1.229,6.416-1.229c2.397,0,4.569,0.438,6.222,1.148
								C6.696-6.83,7.647-6.974,7.647-6.974v-1.149h2.72v8.7H6.612C5.619,1.497,4.181,2.194,2.51,2.551
								C2.382,1.196,1.312,0.133,0,0.133z"/>
						</g>
						<g id="g13076" transform="translate(534.3327,612.123)">
							<path id="path13078" inkscape:connector-curvature="0" fill="#FFFFFF" d="M0,0.134h-2.913c-1.302,0-2.358,1.454-2.358,3.249
								c0,1.795,1.056,3.251,2.358,3.251H0V0.134z"/>
						</g>
						<g id="g13080" transform="translate(513.5989,612.123)">
							<path id="path13082" inkscape:connector-curvature="0" fill="#FFFFFF" d="M0,0.134h2.912c1.302,0,2.359,1.454,2.359,3.249
								c0,1.795-1.057,3.251-2.359,3.251H0V0.134z"/>
						</g>
						<g id="g13084" transform="translate(513.5989,612.123)">
							<path id="path13086" inkscape:connector-curvature="0" fill="none" stroke="#918F90" stroke-width="0.478" d="M0,0.134h2.912
								c1.302,0,2.359,1.454,2.359,3.249c0,1.795-1.057,3.251-2.359,3.251H0V0.134z M20.734,0.134h-2.913
								c-1.302,0-2.358,1.454-2.358,3.249c0,1.795,1.056,3.251,2.358,3.251h2.913V0.134z M0,0.134h2.912
								c1.302,0,2.359,1.454,2.359,3.249c0,1.795-1.057,3.251-2.359,3.251H0V0.134z"/>
						</g>
						<g id="g13088" transform="translate(524.0161,696.7973)">
							<path id="path13090" inkscape:connector-curvature="0" fill="#FFFFFF" d="M0,0.134c-0.131,0.01-13.463,0.989-23.585-8.456
								c-8.071-7.53-12.163-19.432-12.163-35.378v-33.086c0-7.026-6.097-100.986-6.097-107.896v-219.302
								c0-2.192,1.118-3.689,2.226-4.202c0.943-0.438,1.923-0.227,2.916,0.613c10.827,9.212,23.25,8.629,36.653,8.629
								c13.404,0,25.823,0.583,36.655-8.629c0.99-0.839,1.971-1.05,2.915-0.613c1.106,0.513,2.225,2.009,2.225,4.202v219.302
								c0,6.91-6.096,100.87-6.096,107.896V-43.7c0,15.946-4.094,27.848-12.162,35.378C13.364,1.123,0.099,0.127,0,0.134
								 M26.291-5.318C35.225-13.656,39.759-26.57,39.759-43.7v-33.086c0-7.992,6.096-99.404,6.096-107.896v-219.302
								c0-3.523-1.811-6.637-4.613-7.93c-2.419-1.118-5.079-0.675-7.3,1.21c-9.752,8.299-21.116,7.651-33.991,7.651
								c-12.877,0-24.241,0.648-33.992-7.651c-2.221-1.885-4.882-2.328-7.301-1.21c-2.802,1.294-4.611,4.407-4.611,7.93v219.302
								c0,8.492,6.095,99.904,6.095,107.896V-43.7c0,17.131,4.532,30.044,13.47,38.382C-15.131,5.189-0.337,4.276,0.287,4.233
								l-0.456,0.007C2.418,4.368,15.762,4.503,26.291-5.318"/>
						</g>
						<g id="g13092" transform="translate(524.0161,696.7973)">
							
								<path id="path13094" inkscape:connector-curvature="0" fill="none" stroke="#918F90" stroke-width="0.478" stroke-linejoin="round" d="
								M0,0.134c-0.131,0.01-13.463,0.989-23.585-8.456c-8.071-7.53-12.163-19.432-12.163-35.378v-33.086
								c0-7.026-6.097-100.986-6.097-107.896v-219.302c0-2.192,1.118-3.689,2.226-4.202c0.943-0.438,1.923-0.227,2.916,0.613
								c10.827,9.212,23.25,8.629,36.653,8.629c13.404,0,25.823,0.583,36.655-8.629c0.99-0.839,1.971-1.05,2.915-0.613
								c1.106,0.513,2.225,2.009,2.225,4.202v219.302c0,6.91-6.096,100.87-6.096,107.896V-43.7c0,15.946-4.094,27.848-12.162,35.378
								C13.364,1.123,0.099,0.127,0,0.134z M26.291-5.318C35.225-13.656,39.759-26.57,39.759-43.7v-33.086
								c0-7.992,6.096-99.404,6.096-107.896v-219.302c0-3.523-1.811-6.637-4.613-7.93c-2.419-1.118-5.079-0.675-7.3,1.21
								c-9.752,8.299-21.116,7.651-33.991,7.651c-12.877,0-24.241,0.648-33.992-7.651c-2.221-1.885-4.882-2.328-7.301-1.21
								c-2.802,1.294-4.611,4.407-4.611,7.93v219.302c0,8.492,6.095,99.904,6.095,107.896V-43.7c0,17.131,4.532,30.044,13.47,38.382
								C-15.131,5.189-0.337,4.276,0.287,4.233l-0.456,0.007C2.418,4.368,15.762,4.503,26.291-5.318L26.291-5.318z"/>
						</g>
						<g id="g13096" transform="translate(523.9658,547.9054)">
							<path id="path13098" inkscape:connector-curvature="0" fill="#FFFFFF" d="M0,0.134c-5.058,0-9.546,1.429-12.423,3.642
								c-2.062-2.662-3.303-5.991-3.303-9.618c0-4.262,1.702-8.123,4.457-10.955l4.009,4.011c1.743-2.382,4.346-3.898,7.26-3.898
								c2.88,0,5.455,1.484,7.195,3.816l4.004-4.003c2.797,2.838,4.525,6.73,4.525,11.03c0,3.627-1.24,6.956-3.301,9.618
								C9.543,1.563,5.057,0.134,0,0.134"/>
						</g>
						<g id="g13100" transform="translate(523.9658,547.9054)">
							
								<path id="path13102" inkscape:connector-curvature="0" fill="none" stroke="#918F90" stroke-width="0.478" stroke-linejoin="round" d="
								M0,0.134c-5.058,0-9.546,1.429-12.423,3.642c-2.062-2.662-3.303-5.991-3.303-9.618c0-4.262,1.702-8.123,4.457-10.955
								l4.009,4.011c1.743-2.382,4.346-3.898,7.26-3.898c2.88,0,5.455,1.484,7.195,3.816l4.004-4.003
								c2.797,2.838,4.525,6.73,4.525,11.03c0,3.627-1.24,6.956-3.301,9.618C9.543,1.563,5.057,0.134,0,0.134z"/>
						</g>
						<g id="g13104" transform="translate(538.3925,547.8788)">
							<path id="path13106" inkscape:connector-curvature="0" fill="none" stroke="#918F90" stroke-width="0.478" d="M0,0.134
								c0.58-1.171,0.945-2.391,1.134-3.619l0.141-2.359C1.256-6.365,1.193-7.083,1.103-7.735l3.548-0.734
								C4.836-7.47,4.924-6.447,4.924-5.417L4.786-3.292c-0.227,1.751-0.73,3.493-1.55,5.157L0,0.134z M0.27-0.76l3.36,1.639
								 M0.712-1.608l3.386,1.317 M0.908-2.551l3.559,1.056 M1.227-3.576l3.499,0.538 M1.242-4.678l3.535,0.193 M1.256-5.787
								l3.572-0.147 M1.178-6.749l3.527-0.442 M-28.997,0.134c-0.578-1.171-0.943-2.391-1.135-3.619l-0.137-2.359
								c0.019-0.521,0.08-1.238,0.17-1.891l-3.55-0.734c-0.184,0.998-0.27,2.022-0.27,3.052l0.137,2.125
								c0.227,1.751,0.728,3.493,1.552,5.157L-28.997,0.134z M-29.267-0.76l-3.359,1.639 M-29.706-1.608l-3.389,1.317
								 M-29.904-2.551l-3.56,1.056 M-30.222-3.576l-3.501,0.538 M-30.236-4.678l-3.536,0.193 M-30.253-5.787l-3.573-0.147
								 M-30.175-6.749l-3.527-0.442"/>
						</g>
						<path id="path13108" inkscape:connector-curvature="0" fill="#FFFFFF" stroke="#918F90" stroke-width="0.478" d="
							M508.395,250.006h-4.428v1.021h4.428V250.006z"/>
						<path id="path13110" inkscape:connector-curvature="0" fill="#FFFFFF" stroke="#918F90" stroke-width="0.478" d="
							M508.395,251.027h-4.428v1.018h4.428V251.027z"/>
						<path id="path13112" inkscape:connector-curvature="0" fill="#FFFFFF" stroke="#918F90" stroke-width="0.478" d="
							M508.395,252.045h-4.428v1.02h4.428V252.045z"/>
						<path id="path13114" inkscape:connector-curvature="0" fill="#FFFFFF" stroke="#918F90" stroke-width="0.478" d="
							M511.719,250.006h-3.323v1.021h3.323V250.006z"/>
						<path id="path13116" inkscape:connector-curvature="0" fill="#FFFFFF" stroke="#918F90" stroke-width="0.478" d="
							M511.719,251.027h-3.323v1.018h3.323V251.027z"/>
						<path id="path13118" inkscape:connector-curvature="0" fill="#FFFFFF" stroke="#918F90" stroke-width="0.478" d="
							M511.719,252.045h-3.323v1.02h3.323V252.045z"/>
						<path id="path13120" inkscape:connector-curvature="0" fill="#FFFFFF" stroke="#918F90" stroke-width="0.478" d="
							M508.395,253.065h-4.428v1.021h4.428V253.065z"/>
						<path id="path13122" inkscape:connector-curvature="0" fill="#FFFFFF" stroke="#918F90" stroke-width="0.478" d="
							M511.719,253.065h-3.323v1.021h3.323V253.065z"/>
						<path id="path13124" inkscape:connector-curvature="0" fill="#FFFFFF" stroke="#918F90" stroke-width="0.478" d="
							M508.395,254.086h-4.428v1.02h4.428V254.086z"/>
						<path id="path13126" inkscape:connector-curvature="0" fill="#FFFFFF" stroke="#918F90" stroke-width="0.478" d="
							M511.719,254.086h-3.323v1.02h3.323V254.086z"/>
						<path id="path13128" inkscape:connector-curvature="0" fill="#FFFFFF" stroke="#918F90" stroke-width="0.478" d="
							M508.395,255.106h-4.428v1.02h4.428V255.106z"/>
						<path id="path13130" inkscape:connector-curvature="0" fill="#FFFFFF" stroke="#918F90" stroke-width="0.478" d="
							M511.719,255.106h-3.323v1.02h3.323V255.106z"/>
						<path id="path13132" inkscape:connector-curvature="0" fill="#FFFFFF" stroke="#918F90" stroke-width="0.478" d="
							M503.967,250.006h-3.324v1.021h3.324V250.006z"/>
						<path id="path13134" inkscape:connector-curvature="0" fill="#FFFFFF" stroke="#918F90" stroke-width="0.478" d="
							M503.967,251.027h-3.324v1.018h3.324V251.027z"/>
						<path id="path13136" inkscape:connector-curvature="0" fill="#FFFFFF" stroke="#918F90" stroke-width="0.478" d="
							M503.967,252.045h-3.324v1.02h3.324V252.045z"/>
						<path id="path13138" inkscape:connector-curvature="0" fill="#FFFFFF" stroke="#918F90" stroke-width="0.478" d="
							M503.967,253.065h-3.324v1.021h3.324V253.065z"/>
						<path id="path13140" inkscape:connector-curvature="0" fill="#FFFFFF" stroke="#918F90" stroke-width="0.478" d="
							M503.967,254.086h-3.324v1.02h3.324V254.086z"/>
						<path id="path13142" inkscape:connector-curvature="0" fill="#FFFFFF" stroke="#918F90" stroke-width="0.478" d="
							M503.967,255.106h-3.324v1.02h3.324V255.106z"/>
						<path id="path13144" inkscape:connector-curvature="0" fill="#FFFFFF" stroke="#918F90" stroke-width="0.478" d="
							M511.719,250.018h-11.076v-3.007h11.076V250.018z"/>
						<path id="path13146" inkscape:connector-curvature="0" fill="#FFFFFF" stroke="#918F90" stroke-width="0.478" d="
							M549.975,283.468h-5.276v-15.345h5.276V283.468z"/>
						<path id="path13148" inkscape:connector-curvature="0" fill="#FFFFFF" stroke="#918F90" stroke-width="0.478" d="
							M503.196,283.498h-5.276v-15.343h5.276V283.498z"/>
						<g id="g13150" transform="translate(534.5215,286.9774)">
							
								<path id="path13152" inkscape:connector-curvature="0" fill="#FFFFFF" stroke="#918F90" stroke-width="0.957" stroke-linejoin="round" d="
								M0,0.134l0.93-3.643v-16.95h-8.444v0.009c0,1.677-1.362,3.04-3.042,3.04c-1.679,0-3.041-1.363-3.041-3.04v-0.009h-8.443
								v16.95l0.929,3.643"/>
						</g>
						<g id="g13154" transform="translate(535.4375,267.2155)">
							<path id="path13156" inkscape:connector-curvature="0" fill="none" stroke="#918F90" stroke-width="0.478" d="M0,0.134
								h-2.913c-1.302,0-2.361,1.456-2.361,3.25c0,1.796,1.059,3.251,2.361,3.251H0V0.134z M-22.953,0.134h2.914
								c1.304,0,2.359,1.456,2.359,3.25c0,1.796-1.055,3.251-2.359,3.251h-2.914V0.134z M0,8.533h-2.913
								c-1.302,0-2.361,1.459-2.361,3.252c0,1.794,1.059,3.251,2.361,3.251H0V8.533z M-22.953,8.533h2.914
								c1.304,0,2.359,1.459,2.359,3.252c0,1.794-1.055,3.251-2.359,3.251h-2.914V8.533z M-22.953,8.533h2.914
								c1.304,0,2.359,1.459,2.359,3.252c0,1.794-1.055,3.251-2.359,3.251h-2.914V8.533z"/>
						</g>
						<path id="path13158" inkscape:connector-curvature="0" fill="#FFFFFF" stroke="#918F90" stroke-width="0.478" d="
							M534.507,635.603h3.324v-1.021h-3.324V635.603z"/>
						<path id="path13160" inkscape:connector-curvature="0" fill="#FFFFFF" stroke="#918F90" stroke-width="0.478" d="
							M534.507,634.582h3.324v-1.019h-3.324V634.582z"/>
						<path id="path13162" inkscape:connector-curvature="0" fill="#FFFFFF" stroke="#918F90" stroke-width="0.478" d="
							M534.507,633.562h3.324v-1.021h-3.324V633.562z"/>
						<path id="path13164" inkscape:connector-curvature="0" fill="#FFFFFF" stroke="#918F90" stroke-width="0.478" d="
							M534.507,632.541h3.324v-1.019h-3.324V632.541z"/>
						<path id="path13166" inkscape:connector-curvature="0" fill="#FFFFFF" stroke="#918F90" stroke-width="0.478" d="
							M534.507,631.523h3.324v-1.021h-3.324V631.523z"/>
						<path id="path13168" inkscape:connector-curvature="0" fill="#FFFFFF" stroke="#918F90" stroke-width="0.478" d="
							M534.507,630.502h3.324v-1.019h-3.324V630.502z"/>
						<path id="path13170" inkscape:connector-curvature="0" fill="#FFFFFF" stroke="#918F90" stroke-width="0.478" d="
							M537.832,635.603h3.326v-1.021h-3.326V635.603z"/>
						<path id="path13172" inkscape:connector-curvature="0" fill="#FFFFFF" stroke="#918F90" stroke-width="0.478" d="
							M537.832,634.582h3.326v-1.019h-3.326V634.582z"/>
						<path id="path13174" inkscape:connector-curvature="0" fill="#FFFFFF" stroke="#918F90" stroke-width="0.478" d="
							M537.832,633.562h3.326v-1.021h-3.326V633.562z"/>
						<path id="path13176" inkscape:connector-curvature="0" fill="#FFFFFF" stroke="#918F90" stroke-width="0.478" d="
							M537.832,632.541h3.326v-1.019h-3.326V632.541z"/>
						<path id="path13178" inkscape:connector-curvature="0" fill="#FFFFFF" stroke="#918F90" stroke-width="0.478" d="
							M537.832,631.523h3.326v-1.021h-3.326V631.523z"/>
						<path id="path13180" inkscape:connector-curvature="0" fill="#FFFFFF" stroke="#918F90" stroke-width="0.478" d="
							M537.832,630.502h3.326v-1.019h-3.326V630.502z"/>
						<path id="path13182" inkscape:connector-curvature="0" fill="#FFFFFF" stroke="#918F90" stroke-width="0.478" d="
							M534.507,635.589h6.65v3.007h-6.65V635.589z"/>
						<path id="path13184" inkscape:connector-curvature="0" fill="#FFFFFF" stroke="#918F90" stroke-width="0.478" d="
							M506.703,635.603h3.326v-1.021h-3.326V635.603z"/>
						<path id="path13186" inkscape:connector-curvature="0" fill="#FFFFFF" stroke="#918F90" stroke-width="0.478" d="
							M506.703,634.582h3.326v-1.019h-3.326V634.582z"/>
						<path id="path13188" inkscape:connector-curvature="0" fill="#FFFFFF" stroke="#918F90" stroke-width="0.478" d="
							M506.703,633.562h3.326v-1.021h-3.326V633.562z"/>
						<path id="path13190" inkscape:connector-curvature="0" fill="#FFFFFF" stroke="#918F90" stroke-width="0.478" d="
							M506.703,632.541h3.326v-1.019h-3.326V632.541z"/>
						<path id="path13192" inkscape:connector-curvature="0" fill="#FFFFFF" stroke="#918F90" stroke-width="0.478" d="
							M506.703,631.523h3.326v-1.021h-3.326V631.523z"/>
						<path id="path13194" inkscape:connector-curvature="0" fill="#FFFFFF" stroke="#918F90" stroke-width="0.478" d="
							M506.703,630.502h3.326v-1.019h-3.326V630.502z"/>
						<path id="path13196" inkscape:connector-curvature="0" fill="#FFFFFF" stroke="#918F90" stroke-width="0.478" d="
							M510.029,635.603h3.324v-1.021h-3.324V635.603L510.029,635.603z"/>
						<path id="path13198" inkscape:connector-curvature="0" fill="#FFFFFF" stroke="#918F90" stroke-width="0.478" d="
							M510.029,634.582h3.324v-1.019h-3.324V634.582L510.029,634.582z"/>
						<path id="path13200" inkscape:connector-curvature="0" fill="#FFFFFF" stroke="#918F90" stroke-width="0.478" d="
							M510.029,633.562h3.324v-1.021h-3.324V633.562L510.029,633.562z"/>
						<path id="path13202" inkscape:connector-curvature="0" fill="#FFFFFF" stroke="#918F90" stroke-width="0.478" d="
							M510.029,632.541h3.324v-1.019h-3.324V632.541L510.029,632.541z"/>
						<path id="path13204" inkscape:connector-curvature="0" fill="#FFFFFF" stroke="#918F90" stroke-width="0.478" d="
							M510.029,631.523h3.324v-1.021h-3.324V631.523L510.029,631.523z"/>
						<path id="path13206" inkscape:connector-curvature="0" fill="#FFFFFF" stroke="#918F90" stroke-width="0.478" d="
							M510.029,630.502h3.324v-1.019h-3.324V630.502L510.029,630.502z"/>
						<path id="path13208" inkscape:connector-curvature="0" fill="#FFFFFF" d="M506.703,635.589h6.65v3.007h-6.65V635.589z"/>
						<path id="path13210" inkscape:connector-curvature="0" fill="none" stroke="#918F90" stroke-width="0.478" d="
							M506.703,635.589h6.65v3.007h-6.65V635.589z M541.14,626.789h5.306l1.032,1.034v12.373h-6.338V626.789z"/>
						<path id="path13212" inkscape:connector-curvature="0" fill="#FFFFFF" d="M506.629,628.798h-9.514v11.399h9.514V628.798z"/>
						
							<path id="path13214" inkscape:connector-curvature="0" fill="none" stroke="#918F90" stroke-width="0.478" stroke-linejoin="round" d="
							M506.629,628.798h-9.514v11.399h9.514V628.798z M506.109,640.187h-14.095c1.296,19.949,0.401,27.811,6.01,36.392
							c6.849,10.472,17.023,14.508,25.941,14.508c9.756,0,18.066-4.657,21.844-9.147c8.904-10.578,9.087-14.332,10.301-41.644
							l-29.824-0.1h-4.523h-25.455"/>
						<g id="g13216" transform="translate(516.5146,503.3499)">
							<path id="path13218" inkscape:connector-curvature="0" fill="#FFFFFF" d="M0,0.134l-2.414-0.601L-2.66,0.52l2.414,0.605
								L0,0.134z"/>
						</g>
						<g id="g13220" transform="translate(516.5146,503.3499)">
							<path id="path13222" inkscape:connector-curvature="0" fill="none" stroke="#918F90" stroke-width="0.478" d="M0,0.134
								l-2.414-0.601L-2.66,0.52l2.414,0.605L0,0.134z"/>
						</g>
						<g id="g13224" transform="translate(516.2686,504.3414)">
							<path id="path13226" inkscape:connector-curvature="0" fill="#FFFFFF" d="M0,0.134L-2.414-0.47L-2.66,0.52l2.412,0.604
								L0,0.134z"/>
						</g>
						<g id="g13228" transform="translate(516.2686,504.3414)">
							<path id="path13230" inkscape:connector-curvature="0" fill="none" stroke="#918F90" stroke-width="0.478" d="M0,0.134
								L-2.414-0.47L-2.66,0.52l2.412,0.604L0,0.134z"/>
						</g>
						<g id="g13232" transform="translate(516.021,505.3315)">
							<path id="path13234" inkscape:connector-curvature="0" fill="#FFFFFF" d="M0,0.133l-2.412-0.604l-0.249,0.989l2.412,0.602
								L0,0.133z"/>
						</g>
						<g id="g13236" transform="translate(516.021,505.3315)">
							<path id="path13238" inkscape:connector-curvature="0" fill="none" stroke="#918F90" stroke-width="0.478" d="M0,0.133
								l-2.412-0.604l-0.249,0.989l2.412,0.602L0,0.133z"/>
						</g>
						<g id="g13240" transform="translate(515.7721,506.3188)">
							<path id="path13242" inkscape:connector-curvature="0" fill="#FFFFFF" d="M0,0.134L-2.412-0.47L-2.66,0.52l2.414,0.603
								L0,0.134z"/>
						</g>
						<g id="g13244" transform="translate(515.7721,506.3188)">
							<path id="path13246" inkscape:connector-curvature="0" fill="none" stroke="#918F90" stroke-width="0.478" d="M0,0.134
								L-2.412-0.47L-2.66,0.52l2.414,0.603L0,0.134z M-18.187,1.27l3.048-5.87C-10.15-1.838-4.26,0.19-0.246,1.123l-1.288,6.243"/>
						</g>
						<g id="g13248" transform="translate(515.0197,509.5927)">
							<path id="path13250" inkscape:connector-curvature="0" fill="#FFFFFF" d="M0,0.134l-2.411-0.6L-2.66,0.523l2.412,0.602
								L0,0.134z"/>
						</g>
						<g id="g13252" transform="translate(515.0197,509.5927)">
							<path id="path13254" inkscape:connector-curvature="0" fill="none" stroke="#918F90" stroke-width="0.478" d="M0,0.134
								l-2.411-0.6L-2.66,0.523l2.412,0.602L0,0.134z"/>
						</g>
						<g id="g13256" transform="translate(514.7708,510.5842)">
							<path id="path13258" inkscape:connector-curvature="0" fill="#FFFFFF" d="M0,0.134l-2.411-0.603l-0.246,0.99l2.411,0.603
								L0,0.134z"/>
						</g>
						<g id="g13260" transform="translate(514.7708,510.5842)">
							<path id="path13262" inkscape:connector-curvature="0" fill="none" stroke="#918F90" stroke-width="0.478" d="M0,0.134
								l-2.411-0.603l-0.246,0.99l2.411,0.603L0,0.134z"/>
						</g>
						<g id="g13264" transform="translate(514.5247,511.5743)">
							<path id="path13266" inkscape:connector-curvature="0" fill="#FFFFFF" d="M0,0.134L-2.411-0.47l-0.248,0.988l2.411,0.604
								L0,0.134z"/>
						</g>
						<g id="g13268" transform="translate(514.5247,511.5743)">
							<path id="path13270" inkscape:connector-curvature="0" fill="none" stroke="#918F90" stroke-width="0.478" d="M0,0.134
								L-2.411-0.47l-0.248,0.988l2.411,0.604L0,0.134z"/>
						</g>
						<g id="g13272" transform="translate(514.2771,512.563)">
							<path id="path13274" inkscape:connector-curvature="0" fill="#FFFFFF" d="M0,0.134L-2.411-0.47l-0.248,0.99l2.413,0.603
								L0,0.134z"/>
						</g>
						<g id="g13276" transform="translate(514.2771,512.563)">
							<path id="path13278" inkscape:connector-curvature="0" fill="none" stroke="#918F90" stroke-width="0.478" d="M0,0.134
								L-2.411-0.47l-0.248,0.99l2.413,0.603L0,0.134z M-19.492,0.556l2.8-5.529c4.991,2.762,12.638,5.162,16.653,6.096l-1.29,6.245
								"/>
						</g>
						<g id="g13280" transform="translate(513.7317,515.8383)">
							<path id="path13282" inkscape:connector-curvature="0" fill="#FFFFFF" d="M0,0.134L-2.412-0.47l-0.247,0.99l2.412,0.603
								L0,0.134z"/>
						</g>
						<g id="g13284" transform="translate(513.7317,515.8383)">
							<path id="path13286" inkscape:connector-curvature="0" fill="none" stroke="#918F90" stroke-width="0.478" d="M0,0.134
								L-2.412-0.47l-0.247,0.99l2.412,0.603L0,0.134z"/>
						</g>
						<g id="g13288" transform="translate(513.4842,516.8271)">
							<path id="path13290" inkscape:connector-curvature="0" fill="#FFFFFF" d="M0,0.134l-2.411-0.603l-0.248,0.992l2.411,0.601
								L0,0.134z"/>
						</g>
						<g id="g13292" transform="translate(513.4842,516.8271)">
							<path id="path13294" inkscape:connector-curvature="0" fill="none" stroke="#918F90" stroke-width="0.478" d="M0,0.134
								l-2.411-0.603l-0.248,0.992l2.411,0.601L0,0.134z"/>
						</g>
						<g id="g13296" transform="translate(513.2366,517.8172)">
							<path id="path13298" inkscape:connector-curvature="0" fill="#FFFFFF" d="M0,0.134l-2.411-0.601L-2.66,0.52l2.415,0.601
								L0,0.134z"/>
						</g>
						<g id="g13300" transform="translate(513.2366,517.8172)">
							<path id="path13302" inkscape:connector-curvature="0" fill="none" stroke="#918F90" stroke-width="0.478" d="M0,0.134
								l-2.411-0.601L-2.66,0.52l2.415,0.601L0,0.134z"/>
						</g>
						<g id="g13304" transform="translate(512.9919,518.8045)">
							<path id="path13306" inkscape:connector-curvature="0" fill="#FFFFFF" d="M0,0.134l-2.416-0.602l-0.245,0.991l2.412,0.604
								L0,0.134z"/>
						</g>
						<g id="g13308" transform="translate(512.9919,518.8045)">
							<path id="path13310" inkscape:connector-curvature="0" fill="none" stroke="#918F90" stroke-width="0.478" d="M0,0.134
								l-2.416-0.602l-0.245,0.991l2.412,0.604L0,0.134z"/>
						</g>
						<g id="g13312" transform="translate(513.4254,524.4068)">
							<path id="path13314" inkscape:connector-curvature="0" fill="#FFFFFF" d="M0,0.134L-3.362-0.94L-3.66,0.038l3.361,1.069
								L0,0.134z"/>
						</g>
						<g id="g13316" transform="translate(513.4254,524.4068)">
							<path id="path13318" inkscape:connector-curvature="0" fill="none" stroke="#918F90" stroke-width="0.478" d="M0,0.134
								L-3.362-0.94L-3.66,0.038l3.361,1.069L0,0.134z"/>
						</g>
						<g id="g13320" transform="translate(513.1262,525.3801)">
							<path id="path13322" inkscape:connector-curvature="0" fill="#FFFFFF" d="M0,0.134l-3.362-1.07L-3.66,0.039l3.362,1.07
								L0,0.134z"/>
						</g>
						<g id="g13324" transform="translate(513.1262,525.3801)">
							<path id="path13326" inkscape:connector-curvature="0" fill="none" stroke="#918F90" stroke-width="0.478" d="M0,0.134
								l-3.362-1.07L-3.66,0.039l3.362,1.07L0,0.134z"/>
						</g>
						<g id="g13328" transform="translate(531.3861,503.2017)">
							<path id="path13330" inkscape:connector-curvature="0" fill="#FFFFFF" d="M0,0.133L2.411-0.47l0.25,0.991L0.249,1.123
								L0,0.133z"/>
						</g>
						<g id="g13332" transform="translate(531.3861,503.2017)">
							<path id="path13334" inkscape:connector-curvature="0" fill="none" stroke="#918F90" stroke-width="0.478" d="M0,0.133
								L2.411-0.47l0.25,0.991L0.249,1.123L0,0.133z"/>
						</g>
						<g id="g13336" transform="translate(531.635,504.1918)">
							<path id="path13338" inkscape:connector-curvature="0" fill="#FFFFFF" d="M0,0.134l2.412-0.603L2.66,0.518L0.248,1.121
								L0,0.134z"/>
						</g>
						<g id="g13340" transform="translate(531.635,504.1918)">
							<path id="path13342" inkscape:connector-curvature="0" fill="none" stroke="#918F90" stroke-width="0.478" d="M0,0.134
								l2.412-0.603L2.66,0.518L0.248,1.121L0,0.134z"/>
						</g>
						<g id="g13344" transform="translate(531.8826,505.1791)">
							<path id="path13346" inkscape:connector-curvature="0" fill="#FFFFFF" d="M0,0.133L2.412-0.47l0.247,0.992L0.246,1.126
								L0,0.133z"/>
						</g>
						<g id="g13348" transform="translate(531.8826,505.1791)">
							<path id="path13350" inkscape:connector-curvature="0" fill="none" stroke="#918F90" stroke-width="0.478" d="M0,0.133
								L2.412-0.47l0.247,0.992L0.246,1.126L0,0.133z"/>
						</g>
						<g id="g13352" transform="translate(532.1287,506.1707)">
							<path id="path13354" inkscape:connector-curvature="0" fill="#FFFFFF" d="M0,0.133l2.412-0.602L2.658,0.52L0.247,1.124
								L0,0.133z"/>
						</g>
						<g id="g13356" transform="translate(532.1287,506.1707)">
							<path id="path13358" inkscape:connector-curvature="0" fill="none" stroke="#918F90" stroke-width="0.478" d="M0,0.133
								l2.412-0.602L2.658,0.52L0.247,1.124L0,0.133z M18.239,1.495l-3.05-5.874C10.201-1.614,4.263,0.186,0.247,1.124l1.287,6.243"
								/>
						</g>
						<g id="g13360" transform="translate(532.9314,509.5927)">
							<path id="path13362" inkscape:connector-curvature="0" fill="#FFFFFF" d="M0,0.134l2.411-0.6L2.66,0.523L0.249,1.125L0,0.134
								z"/>
						</g>
						<g id="g13364" transform="translate(532.9314,509.5927)">
							<path id="path13366" inkscape:connector-curvature="0" fill="none" stroke="#918F90" stroke-width="0.478" d="M0,0.134
								l2.411-0.6L2.66,0.523L0.249,1.125L0,0.134z"/>
						</g>
						<g id="g13368" transform="translate(533.1804,510.5842)">
							<path id="path13370" inkscape:connector-curvature="0" fill="#FFFFFF" d="M0,0.134l2.411-0.603l0.247,0.99L0.245,1.124
								L0,0.134z"/>
						</g>
						<g id="g13372" transform="translate(533.1804,510.5842)">
							<path id="path13374" inkscape:connector-curvature="0" fill="none" stroke="#918F90" stroke-width="0.478" d="M0,0.134
								l2.411-0.603l0.247,0.99L0.245,1.124L0,0.134z"/>
						</g>
						<g id="g13376" transform="translate(533.425,511.5743)">
							<path id="path13378" inkscape:connector-curvature="0" fill="#FFFFFF" d="M0,0.134L2.414-0.47L2.66,0.519L0.249,1.123
								L0,0.134z"/>
						</g>
						<g id="g13380" transform="translate(533.425,511.5743)">
							<path id="path13382" inkscape:connector-curvature="0" fill="none" stroke="#918F90" stroke-width="0.478" d="M0,0.134
								L2.414-0.47L2.66,0.519L0.249,1.123L0,0.134z"/>
						</g>
						<g id="g13384" transform="translate(533.674,512.563)">
							<path id="path13386" inkscape:connector-curvature="0" fill="#FFFFFF" d="M0,0.134L2.411-0.47L2.66,0.52L0.248,1.123L0,0.134
								z"/>
						</g>
						<g id="g13388" transform="translate(533.674,512.563)">
							<path id="path13390" inkscape:connector-curvature="0" fill="none" stroke="#918F90" stroke-width="0.478" d="M0,0.134
								L2.411-0.47L2.66,0.52L0.248,1.123L0,0.134z M19.668,0.902l-3.05-5.875C11.63-2.211,4.056,0.189,0.039,1.123l1.29,6.245"/>
						</g>
						<g id="g13392" transform="translate(534.2698,515.988)">
							<path id="path13394" inkscape:connector-curvature="0" fill="#FFFFFF" d="M0,0.134L2.412-0.47L2.66,0.52L0.246,1.123L0,0.134
								z"/>
						</g>
						<g id="g13396" transform="translate(534.2698,515.988)">
							<path id="path13398" inkscape:connector-curvature="0" fill="none" stroke="#918F90" stroke-width="0.478" d="M0,0.134
								L2.412-0.47L2.66,0.52L0.246,1.123L0,0.134z"/>
						</g>
						<g id="g13400" transform="translate(534.5159,516.9767)">
							<path id="path13402" inkscape:connector-curvature="0" fill="#FFFFFF" d="M0,0.133L2.414-0.47L2.66,0.52L0.248,1.123L0,0.133
								z"/>
						</g>
						<g id="g13404" transform="translate(534.5159,516.9767)">
							<path id="path13406" inkscape:connector-curvature="0" fill="none" stroke="#918F90" stroke-width="0.478" d="M0,0.133
								L2.414-0.47L2.66,0.52L0.248,1.123L0,0.133z"/>
						</g>
						<g id="g13408" transform="translate(534.7634,517.9654)">
							<path id="path13410" inkscape:connector-curvature="0" fill="#FFFFFF" d="M0,0.134l2.413-0.602l0.248,0.988L0.249,1.127
								L0,0.134z"/>
						</g>
						<g id="g13412" transform="translate(534.7634,517.9654)">
							<path id="path13414" inkscape:connector-curvature="0" fill="none" stroke="#918F90" stroke-width="0.478" d="M0,0.134
								l2.413-0.602l0.248,0.988L0.249,1.127L0,0.134z"/>
						</g>
						<g id="g13416" transform="translate(535.0123,518.9583)">
							<path id="path13418" inkscape:connector-curvature="0" fill="#FFFFFF" d="M0,0.134l2.412-0.606l0.247,0.991L0.245,1.121
								L0,0.134z"/>
						</g>
						<g id="g13420" transform="translate(535.0123,518.9583)">
							<path id="path13422" inkscape:connector-curvature="0" fill="none" stroke="#918F90" stroke-width="0.478" d="M0,0.134
								l2.412-0.606l0.247,0.991L0.245,1.121L0,0.134z"/>
						</g>
						<g id="g13424" transform="translate(534.5074,524.4068)">
							<path id="path13426" inkscape:connector-curvature="0" fill="#FFFFFF" d="M0,0.134L3.359-0.94l0.299,0.977l-3.36,1.069
								L0,0.134z"/>
						</g>
						<g id="g13428" transform="translate(534.5074,524.4068)">
							<path id="path13430" inkscape:connector-curvature="0" fill="none" stroke="#918F90" stroke-width="0.478" d="M0,0.134
								L3.359-0.94l0.299,0.977l-3.36,1.069L0,0.134z"/>
						</g>
						<g id="g13432" transform="translate(534.8053,525.3801)">
							<path id="path13434" inkscape:connector-curvature="0" fill="#FFFFFF" d="M0,0.134l3.361-1.07l0.3,0.975l-3.36,1.07L0,0.134z
								"/>
						</g>
						<g id="g13436" transform="translate(534.8053,525.3801)">
							<path id="path13438" inkscape:connector-curvature="0" fill="none" stroke="#918F90" stroke-width="0.478" d="M0,0.134
								l3.361-1.07l0.3,0.975l-3.36,1.07L0,0.134z M18.515-11.915l2.082,4.012c0.331,0.757,1.045,1.887-0.912,2.685
								C17.85-4.466,0.787,0.961-1.482,1.688C-2.91,1.129-6.453-0.691-10.84-0.691c-4.388,0-7.927,1.82-9.357,2.379
								c-2.268-0.727-19.332-6.154-21.167-6.905c-1.957-0.798-1.241-1.928-0.911-2.685l2.08-4.012"/>
						</g>
						<g id="g13440" transform="translate(560.9233,508.7299)">
							
								<path id="path13442" inkscape:connector-curvature="0" fill="none" stroke="#918F90" stroke-width="0.957" stroke-linejoin="round" d="
								M0,0.133c0,0-11.883,8.045-26.333,11.136c-1.809-6.578-6.148-12.051-10.616-12.051c-4.462,0-8.802,5.47-10.611,12.043
								C-61.962,8.165-73.894,0.133-73.894,0.133v-30.115c3.765-4.885,6.094-11.642,6.094-19.106c0-7.466-2.329-14.221-6.094-19.109
								v-28.269c0-6.224,2.088-6.4,2.923-6.035c3.281,2.584,11.638,4.355,20.037,5.28c1.813,5.772,7.202,9.959,13.571,9.959
								c6.342,0,11.713-4.155,13.545-9.891c8.404-0.905,16.745-2.701,20.9-5.348c2.395-1.04,2.919,1.62,2.919,6.034v28.269
								c-3.767,4.887-6.096,11.643-6.096,19.109c0,7.464,2.329,14.221,6.096,19.106V0.133z"/>
						</g>
						<g id="g13444" transform="translate(491.3812,396.1958)">
							<path id="path13446" inkscape:connector-curvature="0" fill="none" stroke="#918F90" stroke-width="0.478" d="M0,0.134
								c-0.694-0.723-1.317-1.52-1.871-2.37l-1.025-1.833c-0.757-1.577-1.271-3.303-1.478-5.147
								c-0.139-1.253-0.118-2.484,0.022-3.68l3.643,0.48c-0.105,0.909-0.122,1.841-0.016,2.793c0.143,1.296,0.497,2.512,0.998,3.636
								l1.152,2.03C1.72-3.536,2.158-2.979,2.586-2.49L0,0.134z M-0.758-12.422l-3.595-0.474 M-0.779-11.465l-3.686-0.177
								 M-0.747-10.511l-3.725,0.127 M-0.765-9.555L-4.379-9.13 M-0.53-8.623l-3.65,0.737 M0.239-5.861l-3.223,1.546 M0.824-4.937
								l-3.073,1.846 M1.406-4.015l-2.92,2.151 M1.99-3.264l-2.723,2.37"/>
						</g>
						<g id="g13448" transform="translate(523.5602,392.887)">
							
								<path id="path13450" inkscape:connector-curvature="0" fill="none" stroke="#918F90" stroke-width="0.957" stroke-linejoin="round" d="
								M0,0.133c-7.378,0-13.445,5.62-14.153,12.811c-6.424-1.811-12.127-4.15-16.167-6.005 M-36.531-9.588v-16.693v-38.216v-28.27
								c0-6.223,3.123-5.366,3.956-5.002c5.038,3.97,19.604,6.036,32.99,6.036 M-30.084,6.79c0,0,1.862-0.655,1.862-2.622
								c0-1.968-1.37-3.35-1.37-3.35"/>
						</g>
						<g id="g13452" transform="translate(556.5727,396.1958)">
							<path id="path13454" inkscape:connector-curvature="0" fill="none" stroke="#918F90" stroke-width="0.478" d="M0,0.134
								c0.692-0.723,1.315-1.52,1.868-2.37l1.028-1.833C3.649-5.647,4.165-7.372,4.37-9.216c0.141-1.253,0.118-2.484-0.02-3.68
								l-3.645,0.48c0.108,0.909,0.123,1.841,0.018,2.793C0.579-8.327,0.229-7.111-0.273-5.987l-1.152,2.03
								C-1.721-3.536-2.161-2.979-2.586-2.49L0,0.134z M0.755-12.422l3.596-0.474 M0.778-11.465l3.685-0.177 M0.743-10.511
								l3.728,0.127 M0.765-9.555L4.376-9.13 M0.527-8.623l3.652,0.737 M-0.243-5.861l3.226,1.546 M-0.824-4.937l3.071,1.846
								 M-1.41-4.015l2.92,2.151 M-1.991-3.264l2.72,2.37"/>
						</g>
						<g id="g13456" transform="translate(524.3923,392.887)">
							
								<path id="path13458" inkscape:connector-curvature="0" fill="none" stroke="#918F90" stroke-width="0.957" stroke-linejoin="round" d="
								M0,0.133c7.38,0,13.444,5.62,14.153,12.811c6.423-1.811,12.126-4.15,16.167-6.005 M36.531-9.588v-16.693v-38.216v-28.27
								c0-6.223-3.124-5.366-3.959-5.002c-5.037,3.97-19.603,6.036-32.989,6.036 M30.083,6.79c0,0-1.859-0.655-1.859-2.622
								c0-1.968,1.371-3.35,1.371-3.35"/>
						</g>
						<g id="g13460" transform="translate(505.3828,570.7936)">
							<path id="path13462" inkscape:connector-curvature="0" fill="none" stroke="#918F90" stroke-width="0.957" d="M0,0.134
								c3.939,3.653,10.785,6.078,18.583,6.078c7.795,0,14.634-2.422,18.577-6.071c7.483,5.785,12.327,14.94,12.327,25.015
								c0,11.659-1.912,20.144-4.234,20.296c-0.884-10.049-4.735-15.702-6.634-18.885c-0.051,0.021-0.105,0.042-0.156,0.062
								c-4.936,6.176-12.015,10.048-19.879,10.048c-7.861,0-14.936-3.869-19.873-10.041c-0.052-0.022-0.11-0.048-0.162-0.069
								c-4.787,7.134-6.223,14.394-6.652,19.074c-1.846-0.652-3.956-5.641-3.956-21.083C-12.06,14.604-7.331,5.759,0,0.134z"/>
						</g>
						<g id="g13464" transform="translate(550.0124,283.3637)">
							<path id="path13466" inkscape:connector-curvature="0" fill="none" stroke="#969695" stroke-width="0.478" d="M0,0.134
								c0,2.861-11.661,3.834-26.047,3.834c-14.384,0-26.046-0.973-26.046-3.834 M-49.369-36.353l1.634-14.444V-65.25h12.649v20.391
								l-3.208,8.505"/>
						</g>
						<path id="path13468" inkscape:connector-curvature="0" fill="#FFFFFF" stroke="#918F90" stroke-width="0.478" d="
							M539.538,250.006h4.426v1.021h-4.426V250.006z"/>
						<path id="path13470" inkscape:connector-curvature="0" fill="#FFFFFF" stroke="#918F90" stroke-width="0.478" d="
							M539.538,251.027h4.426v1.018h-4.426V251.027z"/>
						<path id="path13472" inkscape:connector-curvature="0" fill="#FFFFFF" stroke="#918F90" stroke-width="0.478" d="
							M539.538,252.045h4.426v1.02h-4.426V252.045z"/>
						<path id="path13474" inkscape:connector-curvature="0" fill="#FFFFFF" stroke="#918F90" stroke-width="0.478" d="
							M536.212,250.006h3.327v1.021h-3.327V250.006z"/>
						<path id="path13476" inkscape:connector-curvature="0" fill="#FFFFFF" stroke="#918F90" stroke-width="0.478" d="
							M536.212,251.027h3.327v1.018h-3.327V251.027z"/>
						<path id="path13478" inkscape:connector-curvature="0" fill="#FFFFFF" stroke="#918F90" stroke-width="0.478" d="
							M536.212,252.045h3.327v1.02h-3.327V252.045z"/>
						<path id="path13480" inkscape:connector-curvature="0" fill="#FFFFFF" stroke="#918F90" stroke-width="0.478" d="
							M539.538,253.065h4.426v1.021h-4.426V253.065z"/>
						<path id="path13482" inkscape:connector-curvature="0" fill="#FFFFFF" stroke="#918F90" stroke-width="0.478" d="
							M536.212,253.065h3.327v1.021h-3.327V253.065z"/>
						<path id="path13484" inkscape:connector-curvature="0" fill="#FFFFFF" stroke="#918F90" stroke-width="0.478" d="
							M539.538,254.086h4.426v1.02h-4.426V254.086z"/>
						<path id="path13486" inkscape:connector-curvature="0" fill="#FFFFFF" stroke="#918F90" stroke-width="0.478" d="
							M536.212,254.086h3.327v1.02h-3.327V254.086z"/>
						<path id="path13488" inkscape:connector-curvature="0" fill="#FFFFFF" stroke="#918F90" stroke-width="0.478" d="
							M539.538,255.106h4.426v1.02h-4.426V255.106z"/>
						<path id="path13490" inkscape:connector-curvature="0" fill="#FFFFFF" stroke="#918F90" stroke-width="0.478" d="
							M536.212,255.106h3.327v1.02h-3.327V255.106z"/>
						<path id="path13492" inkscape:connector-curvature="0" fill="#FFFFFF" stroke="#918F90" stroke-width="0.478" d="
							M543.964,250.006h3.326v1.021h-3.326V250.006z"/>
						<path id="path13494" inkscape:connector-curvature="0" fill="#FFFFFF" stroke="#918F90" stroke-width="0.478" d="
							M543.964,251.027h3.326v1.018h-3.326V251.027z"/>
						<path id="path13496" inkscape:connector-curvature="0" fill="#FFFFFF" stroke="#918F90" stroke-width="0.478" d="
							M543.964,252.045h3.326v1.02h-3.326V252.045z"/>
						<path id="path13498" inkscape:connector-curvature="0" fill="#FFFFFF" stroke="#918F90" stroke-width="0.478" d="
							M543.964,253.065h3.326v1.021h-3.326V253.065z"/>
						<path id="path13500" inkscape:connector-curvature="0" fill="#FFFFFF" stroke="#918F90" stroke-width="0.478" d="
							M543.964,254.086h3.326v1.02h-3.326V254.086z"/>
						<path id="path13502" inkscape:connector-curvature="0" fill="#FFFFFF" stroke="#918F90" stroke-width="0.478" d="
							M543.964,255.106h3.326v1.02h-3.326V255.106z"/>
						<path id="path13504" inkscape:connector-curvature="0" fill="#FFFFFF" stroke="#918F90" stroke-width="0.478" d="
							M536.212,250.018h11.077v-3.007h-11.077V250.018z"/>
						<g id="g13506" transform="translate(547.2896,246.8775)">
							<path id="path13508" inkscape:connector-curvature="0" fill="none" stroke="#969695" stroke-width="0.478" d="M0,0.133
								L-1.638-14.31v-14.453h-12.647v20.391l3.208,8.505"/>
						</g>
						<path id="path13510" inkscape:connector-curvature="0" fill="#FFFFFF" stroke="#918F90" stroke-width="0.478" d="
							M544.869,140.434h15.316v33.284h-15.316V140.434z"/>
						<g id="g13512" transform="translate(560.2073,122.4045)">
							<path id="path13514" inkscape:connector-curvature="0" fill="#FFFFFF" stroke="#918F90" stroke-width="0.478" d="M0,0.134
								c-0.03-0.071-0.059-0.145-0.089-0.218c-5.352-13.111-19.509-22.484-36.152-22.484c-16.737,0-30.959,9.477-36.241,22.702
								v4.897v6.015l3.098,3.101v3.613l-3.098,3.095V44.86l3.098,4.134v28.648l-3.098,4.128v7.489l2.066,10.582h4.745V87.449h20.391
								V72.978c-4.19-2.881-6.942-7.703-6.942-13.171c0-5.468,2.752-10.293,6.942-13.175V5.031h-20.391v5.161h2.71v8.855
								l17.681,0.13"/>
						</g>
						<g id="g13516" transform="translate(537.4849,173.5847)">
							<path id="path13518" inkscape:connector-curvature="0" fill="#FFFFFF" d="M0,0.133c-1.164-1.85-2.685-3.444-4.481-4.682
								V-46.15H7.384V0.133H0z"/>
						</g>
						<g id="g13520" transform="translate(537.4849,173.5847)">
							<path id="path13522" inkscape:connector-curvature="0" fill="none" stroke="#918F90" stroke-width="0.478" d="M0,0.133
								c-1.164-1.85-2.685-3.444-4.481-4.682V-46.15H7.384V0.133H0z"/>
						</g>
						<g id="g13524" transform="translate(533.0042,217.9807)">
							<path id="path13526" inkscape:connector-curvature="0" fill="#FFFFFF" d="M0,0.133v-22.732
								c4.191-2.88,6.939-7.703,6.939-13.171c0-0.972-0.1-1.92-0.264-2.843h10.674c5.442,0,9.854,4.413,9.854,9.853V0.133H0z"/>
						</g>
						<g id="g13528" transform="translate(533.0042,217.9807)">
							<path id="path13530" inkscape:connector-curvature="0" fill="none" stroke="#918F90" stroke-width="0.478" d="M0,0.133
								v-22.732c4.191-2.88,6.939-7.703,6.939-13.171c0-0.972-0.1-1.92-0.264-2.843h10.674c5.442,0,9.854,4.413,9.854,9.853V0.133H0
								z M0.515-48.581c3.901,2.916,6.423,7.568,6.423,12.812 M19.257-107.102c-2.54,1.188-5.307,2.22-8.259,3.071
								c-5.933-2.73-12.754-4.308-20.036-4.308c-7.279,0-14.103,1.577-20.035,4.308c-2.952-0.851-5.723-1.883-8.261-3.071"/>
						</g>
						<g id="g13532" transform="translate(514.9274,127.302)">
							<path id="path13534" inkscape:connector-curvature="0" fill="#FFFFFF" stroke="#918F90" stroke-width="0.478" d="M0,0.134
								h47.236L44.526-6.5"/>
						</g>
						<g id="g13536" transform="translate(503.9312,113.8165)">
							<path id="path13538" inkscape:connector-curvature="0" fill="#FFFFFF" stroke="#918F90" stroke-width="0.478" d="M0,0.134
								v-6.84h-3.356"/>
						</g>
						<g id="g13540" transform="translate(544.0018,113.8165)">
							<path id="path13542" inkscape:connector-curvature="0" fill="#FFFFFF" stroke="#918F90" stroke-width="0.478" d="M0,0.134
								v-6.84h3.356"/>
						</g>
					</g>
				</g>
			</g>
			<g id="g13760">
				<g>
					<g id="g13762">
						<path id="path14338" inkscape:connector-curvature="0" fill="#FFFFFF" stroke="#918F90" stroke-width="0.498" d="
							M545.776,195.194h-12.62v22.992h12.62V195.194z"/>
						<g id="g14340" transform="translate(489.1269,266.6407)">
							<path id="path14342" inkscape:connector-curvature="0" fill="none" stroke="#918F90" stroke-width="0.454" d="M0,0.134h4.17
								v-3.107h4.51v19.919H4.17v-2.923H0V0.134z M69.514,14.254h-4.17v2.925h-4.51v-19.92h4.51v3.107h4.17V14.254z"/>
						</g>
						<g id="g15704" transform="translate(544.8995,636.5841)">
							<path id="path15706" inkscape:connector-curvature="0" fill="#231F20" d="M0,0.133h-0.316C-0.015,0.26,0.2,0.56,0.2,0.908
								c0,0.463-0.376,0.84-0.839,0.84c-0.464,0-0.839-0.377-0.839-0.84c0-0.349,0.214-0.648,0.516-0.775h-0.329
								c-0.426,0-0.774-0.346-0.774-0.774v-1.936c0-0.54,0.304-0.764,0.749-0.854v-2.695h1.354v2.699
								c0.44,0.089,0.737,0.313,0.737,0.85v1.936C0.775-0.212,0.431,0.133,0,0.133"/>
						</g>
						<g id="g15708" transform="translate(502.8557,635.0362)">
							<path id="path15710" inkscape:connector-curvature="0" fill="#231F20" d="M0,0.134h0.517L0,1.682h-0.582
								c0.304,0.127,0.518,0.426,0.518,0.775c0,0.463-0.375,0.84-0.839,0.84c-0.465,0-0.838-0.377-0.838-0.84
								c0-0.349,0.215-0.648,0.516-0.775h-0.582l-0.516-1.548h0.516l-0.516-2.066h0.722l0.279-2.645h0.838l0.278,2.645h0.723
								L0,0.134z"/>
						</g>
					</g>
				</g>
			</g>
			<text transform="matrix(0 0.8 0.8 0 506.375 603.6688)" fill="#231F20" font-family="'ArialNarrow-Bold'" font-size="7.5169">E</text>
			<text transform="matrix(0 0.8 0.8 0 506.375 606.8563)" fill="#231F20" font-family="'ArialNarrow-Bold'" font-size="7.5169">L</text>
			<text transform="matrix(0 0.8 0.8 0 506.375 609.7063)" fill="#231F20" font-family="'ArialNarrow-Bold'" font-size="7.5169">E</text>
			<text transform="matrix(0 0.8 0.8 0 506.375 612.8938)" fill="#231F20" font-family="'ArialNarrow-Bold'" font-size="7.5169">V</text>
			<text transform="matrix(0 0.8 0.8 0 506.375 615.9719)" fill="#231F20" font-family="'ArialNarrow-Bold'" font-size="7.5169">.</text>
			<text transform="matrix(0 0.8 0.8 0 545.8656 603.4594)" fill="#231F20" font-family="'ArialNarrow-Bold'" font-size="7.5169">E</text>
			<text transform="matrix(0 0.8 0.8 0 545.8656 606.6469)" fill="#231F20" font-family="'ArialNarrow-Bold'" font-size="7.5169">L</text>
			<text transform="matrix(0 0.8 0.8 0 545.8656 609.4969)" fill="#231F20" font-family="'ArialNarrow-Bold'" font-size="7.5169">E</text>
			<text transform="matrix(0 0.8 0.8 0 545.8656 612.6844)" fill="#231F20" font-family="'ArialNarrow-Bold'" font-size="7.5169">V</text>
			<text transform="matrix(0 0.8 0.8 0 545.8656 615.7625)" fill="#231F20" font-family="'ArialNarrow-Bold'" font-size="7.5169">.</text>
			<text transform="matrix(0 0.8 0.8 0 481.8219 418.6031)" fill="#231F20" font-family="'ArialNarrow-Bold'" font-size="7.5169">J</text>
			<text transform="matrix(0 0.8 0.8 0 481.8219 421.7906)" fill="#231F20" font-family="'ArialNarrow-Bold'" font-size="7.5169">O</text>
			<text transform="matrix(0 0.8 0.8 0 481.8219 425.6453)" fill="#231F20" font-family="'ArialNarrow-Bold'" font-size="7.5169">G</text>
			<text transform="matrix(0 0.8 0.8 0 481.8219 429.5)" fill="#231F20" font-family="'ArialNarrow-Bold'" font-size="7.5169">G</text>
			<text transform="matrix(0 0.8 0.8 0 481.8219 433.3547)" fill="#231F20" font-family="'ArialNarrow-Bold'" font-size="7.5169">I</text>
			<text transform="matrix(0 0.8 0.8 0 481.8219 435.2063)" fill="#231F20" font-family="'ArialNarrow-Bold'" font-size="7.5169">N</text>
			<text transform="matrix(0 0.8 0.8 0 481.8219 439.3984)" fill="#231F20" font-family="'ArialNarrow-Bold'" font-size="7.5169">G</text>
			<text transform="matrix(0 0.8 0.8 0 481.8219 443.2531)" fill="#231F20" font-family="'ArialNarrow-Bold'" font-size="7.5169"> </text>
			<text transform="matrix(0 0.8 0.8 0 481.8219 444.7688)" fill="#231F20" font-family="'ArialNarrow-Bold'" font-size="7.5169">T</text>
			<text transform="matrix(0 0.8 0.8 0 481.8219 447.9563)" fill="#231F20" font-family="'ArialNarrow-Bold'" font-size="7.5169">R</text>
			<text transform="matrix(0 0.8 0.8 0 481.8219 451.4797)" fill="#231F20" font-family="'ArialNarrow-Bold'" font-size="7.5169">A</text>
			<text transform="matrix(0 0.8 0.8 0 481.8219 455.3344)" fill="#231F20" font-family="'ArialNarrow-Bold'" font-size="7.5169">C</text>
			<text transform="matrix(0 0.8 0.8 0 481.8219 458.8578)" fill="#231F20" font-family="'ArialNarrow-Bold'" font-size="7.5169">K</text>
			<text transform="matrix(0 0.8 0.8 0 569.4984 418.6031)" fill="#231F20" font-family="'ArialNarrow-Bold'" font-size="7.5169">J</text>
			<text transform="matrix(0 0.8 0.8 0 569.4984 421.7906)" fill="#231F20" font-family="'ArialNarrow-Bold'" font-size="7.5169">O</text>
			<text transform="matrix(0 0.8 0.8 0 569.4984 425.6453)" fill="#231F20" font-family="'ArialNarrow-Bold'" font-size="7.5169">G</text>
			<text transform="matrix(0 0.8 0.8 0 569.4984 429.5)" fill="#231F20" font-family="'ArialNarrow-Bold'" font-size="7.5169">G</text>
			<text transform="matrix(0 0.8 0.8 0 569.4984 433.3547)" fill="#231F20" font-family="'ArialNarrow-Bold'" font-size="7.5169">I</text>
			<text transform="matrix(0 0.8 0.8 0 569.4984 435.2063)" fill="#231F20" font-family="'ArialNarrow-Bold'" font-size="7.5169">N</text>
			<text transform="matrix(0 0.8 0.8 0 569.4984 439.3984)" fill="#231F20" font-family="'ArialNarrow-Bold'" font-size="7.5169">G</text>
			<text transform="matrix(0 0.8 0.8 0 569.4984 443.2531)" fill="#231F20" font-family="'ArialNarrow-Bold'" font-size="7.5169"> </text>
			<text transform="matrix(0 0.8 0.8 0 569.4984 444.7688)" fill="#231F20" font-family="'ArialNarrow-Bold'" font-size="7.5169">T</text>
			<text transform="matrix(0 0.8 0.8 0 569.4984 447.9563)" fill="#231F20" font-family="'ArialNarrow-Bold'" font-size="7.5169">R</text>
			<text transform="matrix(0 0.8 0.8 0 569.4984 451.4797)" fill="#231F20" font-family="'ArialNarrow-Bold'" font-size="7.5169">A</text>
			<text transform="matrix(0 0.8 0.8 0 569.4984 455.3344)" fill="#231F20" font-family="'ArialNarrow-Bold'" font-size="7.5169">C</text>
			<text transform="matrix(0 0.8 0.8 0 569.4984 458.8578)" fill="#231F20" font-family="'ArialNarrow-Bold'" font-size="7.5169">K</text>
			<text transform="matrix(0.8 0 0 -0.8 518.3797 539.7415)" fill="#231F20" font-family="'ArialNarrow-Bold'" font-size="7.5169">B</text>
			<text transform="matrix(0.8 0 0 -0.8 522.2344 539.7415)" fill="#231F20" font-family="'ArialNarrow-Bold'" font-size="7.5169">A</text>
			<text transform="matrix(0.8 0 0 -0.8 526.0891 539.7415)" fill="#231F20" font-family="'ArialNarrow-Bold'" font-size="7.5169">R</text>
			<text transform="matrix(0 0.8 0.8 0 549.5531 269.4062)" fill="#231F20" font-family="'ArialNarrow-Bold'" font-size="7.5169">E</text>
			<text transform="matrix(0 0.8 0.8 0 549.5531 272.5938)" fill="#231F20" font-family="'ArialNarrow-Bold'" font-size="7.5169">L</text>
			<text transform="matrix(0 0.8 0.8 0 549.5531 275.4438)" fill="#231F20" font-family="'ArialNarrow-Bold'" font-size="7.5169">E</text>
			<text transform="matrix(0 0.8 0.8 0 549.5531 278.6313)" fill="#231F20" font-family="'ArialNarrow-Bold'" font-size="7.5169">V</text>
			<text transform="matrix(0 0.8 0.8 0 549.5531 281.7094)" fill="#231F20" font-family="'ArialNarrow-Bold'" font-size="7.5169">.</text>
			<text transform="matrix(0 0.8 0.8 0 502.9727 269.2375)" fill="#231F20" font-family="'ArialNarrow-Bold'" font-size="7.5169">E</text>
			<text transform="matrix(0 0.8 0.8 0 502.9727 272.425)" fill="#231F20" font-family="'ArialNarrow-Bold'" font-size="7.5169">L</text>
			<text transform="matrix(0 0.8 0.8 0 502.9727 275.2734)" fill="#231F20" font-family="'ArialNarrow-Bold'" font-size="7.5169">E</text>
			<text transform="matrix(0 0.8 0.8 0 502.9727 278.4609)" fill="#231F20" font-family="'ArialNarrow-Bold'" font-size="7.5169">V</text>
			<text transform="matrix(0 0.8 0.8 0 502.9727 281.5406)" fill="#231F20" font-family="'ArialNarrow-Bold'" font-size="7.5169">.</text>
			<text transform="matrix(0.8 0 0 -0.8 485.2024 157.8578)" fill="#231F20" font-family="'ArialNarrow-Bold'" font-size="7.5169">A</text>
			<text transform="matrix(0.8 0 0 -0.8 489.057 157.8578)" fill="#231F20" font-family="'ArialNarrow-Bold'" font-size="7.5169">D</text>
			<text transform="matrix(0.8 0 0 -0.8 492.9109 157.8578)" fill="#231F20" font-family="'ArialNarrow-Bold'" font-size="7.5169">V</text>
			<text transform="matrix(0.8 0 0 -0.8 496.4352 157.8578)" fill="#231F20" font-family="'ArialNarrow-Bold'" font-size="7.5169">E</text>
			<text transform="matrix(0.8 0 0 -0.8 499.6227 157.8578)" fill="#231F20" font-family="'ArialNarrow-Bold'" font-size="7.5169">N</text>
			<text transform="matrix(0.8 0 0 -0.8 503.8141 157.8578)" fill="#231F20" font-family="'ArialNarrow-Bold'" font-size="7.5169">T</text>
			<text transform="matrix(0.8 0 0 -0.8 507.0008 157.8578)" fill="#231F20" font-family="'ArialNarrow-Bold'" font-size="7.5169">U</text>
			<text transform="matrix(0.8 0 0 -0.8 510.8555 157.8578)" fill="#231F20" font-family="'ArialNarrow-Bold'" font-size="7.5169">R</text>
			<text transform="matrix(0.8 0 0 -0.8 514.3797 157.8578)" fill="#231F20" font-family="'ArialNarrow-Bold'" font-size="7.5169">E</text>
			<text transform="matrix(0.8 0 0 -0.8 492.0758 151.8438)" fill="#231F20" font-family="'ArialNarrow-Bold'" font-size="7.5169">O</text>
			<text transform="matrix(0.8 0 0 -0.8 495.9305 151.8438)" fill="#231F20" font-family="'ArialNarrow-Bold'" font-size="7.5169">C</text>
			<text transform="matrix(0.8 0 0 -0.8 499.4539 151.8438)" fill="#231F20" font-family="'ArialNarrow-Bold'" font-size="7.5169">E</text>
			<text transform="matrix(0.8 0 0 -0.8 502.6414 151.8438)" fill="#231F20" font-family="'ArialNarrow-Bold'" font-size="7.5169">A</text>
			<text transform="matrix(0.8 0 0 -0.8 506.4961 151.8438)" fill="#231F20" font-family="'ArialNarrow-Bold'" font-size="7.5169">N</text>
			<text transform="matrix(0.72 0 0 -0.8 517.2375 183.5977)" fill="#231F20" font-family="'ArialNarrow-Bold'" font-size="7.5169">V</text>
			<text transform="matrix(0.72 0 0 -0.8 520.4094 183.5977)" fill="#231F20" font-family="'ArialNarrow-Bold'" font-size="7.5169">I</text>
			<text transform="matrix(0.72 0 0 -0.8 522.0758 183.5977)" fill="#231F20" font-family="'ArialNarrow-Bold'" font-size="7.5169">D</text>
			<text transform="matrix(0.72 0 0 -0.8 525.5453 183.5977)" fill="#231F20" font-family="'ArialNarrow-Bold'" font-size="7.5169">E</text>
			<text transform="matrix(0.72 0 0 -0.8 528.4133 183.5977)" fill="#231F20" font-family="'ArialNarrow-Bold'" font-size="7.5169">O</text>
			<text transform="matrix(0.72 0 0 -0.8 514.7539 177.5844)" fill="#231F20" font-family="'ArialNarrow-Bold'" font-size="7.5169">A</text>
			<text transform="matrix(0.72 0 0 -0.8 518.2227 177.5844)" fill="#231F20" font-family="'ArialNarrow-Bold'" font-size="7.5169">R</text>
			<text transform="matrix(0.72 0 0 -0.8 521.3945 177.5844)" fill="#231F20" font-family="'ArialNarrow-Bold'" font-size="7.5169">C</text>
			<text transform="matrix(0.72 0 0 -0.8 524.5657 177.5844)" fill="#231F20" font-family="'ArialNarrow-Bold'" font-size="7.5169">A</text>
			<text transform="matrix(0.72 0 0 -0.8 528.0352 177.5844)" fill="#231F20" font-family="'ArialNarrow-Bold'" font-size="7.5169">D</text>
			<text transform="matrix(0.72 0 0 -0.8 531.5039 177.5844)" fill="#231F20" font-family="'ArialNarrow-Bold'" font-size="7.5169">E</text>
			<text transform="matrix(0.8 0 0 -0.8 501.2578 118.093)" fill="#231F20" font-family="'ArialNarrow-Bold'" font-size="7.5169">F</text>
			<text transform="matrix(0.8 0 0 -0.8 504.1086 118.093)" fill="#231F20" font-family="'ArialNarrow-Bold'" font-size="7.5169">U</text>
			<text transform="matrix(0.8 0 0 -0.8 507.9633 118.093)" fill="#231F20" font-family="'ArialNarrow-Bold'" font-size="7.5169">E</text>
			<text transform="matrix(0.8 0 0 -0.8 511.15 118.093)" fill="#231F20" font-family="'ArialNarrow-Bold'" font-size="7.5169">L</text>
			<text transform="matrix(0.8 0 0 -0.8 514.0008 118.093)" fill="#231F20" font-family="'ArialNarrow-Bold'" font-size="7.5169"> </text>
			<text transform="matrix(0.8 0 0 -0.8 515.5156 118.093)" fill="#231F20" font-family="'ArialNarrow-Bold'" font-size="7.5169">T</text>
			<text transform="matrix(0.8 0 0 -0.8 518.7031 118.093)" fill="#231F20" font-family="'ArialNarrow-Bold'" font-size="7.5169">E</text>
			<text transform="matrix(0.8 0 0 -0.8 521.8899 118.093)" fill="#231F20" font-family="'ArialNarrow-Bold'" font-size="7.5169">E</text>
			<text transform="matrix(0.8 0 0 -0.8 525.0774 118.093)" fill="#231F20" font-family="'ArialNarrow-Bold'" font-size="7.5169">N</text>
			<text transform="matrix(0.8 0 0 -0.8 529.2688 118.093)" fill="#231F20" font-family="'ArialNarrow-Bold'" font-size="7.5169"> </text>
			<text transform="matrix(0.8 0 0 -0.8 530.7844 118.093)" fill="#231F20" font-family="'ArialNarrow-Bold'" font-size="7.5169">C</text>
			<text transform="matrix(0.8 0 0 -0.8 534.3079 118.093)" fill="#231F20" font-family="'ArialNarrow-Bold'" font-size="7.5169">L</text>
			<text transform="matrix(0.8 0 0 -0.8 537.1586 118.093)" fill="#231F20" font-family="'ArialNarrow-Bold'" font-size="7.5169">U</text>
			<text transform="matrix(0.8 0 0 -0.8 541.0133 118.093)" fill="#231F20" font-family="'ArialNarrow-Bold'" font-size="7.5169">B</text>
			<text transform="matrix(0 0.8 0.8 0 552.3625 184.1594)" fill="#231F20" font-family="'ArialNarrow-Bold'" font-size="6.9924">T</text>
			<text transform="matrix(0 0.8 0.8 0 552.3625 187.125)" fill="#231F20" font-family="'ArialNarrow-Bold'" font-size="6.9924">H</text>
			<text transform="matrix(0 0.8 0.8 0 552.3625 190.7094)" fill="#231F20" font-family="'ArialNarrow-Bold'" font-size="6.9924">E</text>
			<text transform="matrix(0 0.8 0.8 0 552.3625 193.675)" fill="#231F20" font-family="'ArialNarrow-Bold'" font-size="6.9924"> </text>
			<text transform="matrix(0 0.8 0.8 0 552.3625 195.0844)" fill="#231F20" font-family="'ArialNarrow-Bold'" font-size="6.9924">L</text>
			<text transform="matrix(0 0.8 0.8 0 552.3625 197.7375)" fill="#231F20" font-family="'ArialNarrow-Bold'" font-size="6.9924">I</text>
			<text transform="matrix(0 0.8 0.8 0 552.3625 199.4594)" fill="#231F20" font-family="'ArialNarrow-Bold'" font-size="6.9924">V</text>
			<text transform="matrix(0 0.8 0.8 0 552.3625 202.7375)" fill="#231F20" font-family="'ArialNarrow-Bold'" font-size="6.9924">I</text>
			<text transform="matrix(0 0.8 0.8 0 552.3625 204.4594)" fill="#231F20" font-family="'ArialNarrow-Bold'" font-size="6.9924">N</text>
			<text transform="matrix(0 0.8 0.8 0 552.3625 208.3594)" fill="#231F20" font-family="'ArialNarrow-Bold'" font-size="6.9924">G</text>
			<text transform="matrix(0 0.8 0.8 0 558.3758 190.4125)" fill="#231F20" font-family="'ArialNarrow-Bold'" font-size="6.9924">R</text>
			<text transform="matrix(0 0.8 0.8 0 558.3758 193.6922)" fill="#231F20" font-family="'ArialNarrow-Bold'" font-size="6.9924">O</text>
			<text transform="matrix(0 0.8 0.8 0 558.3758 197.2781)" fill="#231F20" font-family="'ArialNarrow-Bold'" font-size="6.9924">O</text>
			<text transform="matrix(0 0.8 0.8 0 558.3758 200.8625)" fill="#231F20" font-family="'ArialNarrow-Bold'" font-size="6.9924">M</text>
			<text transform="matrix(0 0.8 0.8 0 551.9461 144.7078)" fill="#231F20" font-family="'ArialNarrow-Bold'" font-size="7.5169">J</text>
			<text transform="matrix(0 0.8 0.8 0 551.9461 147.8938)" fill="#231F20" font-family="'ArialNarrow-Bold'" font-size="7.5169">O</text>
			<text transform="matrix(0 0.8 0.8 0 551.9461 151.75)" fill="#231F20" font-family="'ArialNarrow-Bold'" font-size="7.5169">H</text>
			<text transform="matrix(0 0.8 0.8 0 551.9461 155.6031)" fill="#231F20" font-family="'ArialNarrow-Bold'" font-size="7.5169">N</text>
			<text transform="matrix(0 0.8 0.8 0 551.9461 159.7953)" fill="#231F20" font-family="'ArialNarrow-Bold'" font-size="7.5169">N</text>
			<text transform="matrix(0 0.8 0.8 0 551.9461 163.9875)" fill="#231F20" font-family="'ArialNarrow-Bold'" font-size="7.5169">Y</text>
			<text transform="matrix(0 0.8 0.8 0 557.9594 143.9438)" fill="#231F20" font-family="'ArialNarrow-Bold'" font-size="7.5169">R</text>
			<text transform="matrix(0 0.8 0.8 0 557.9594 147.4688)" fill="#231F20" font-family="'ArialNarrow-Bold'" font-size="7.5169">O</text>
			<text transform="matrix(0 0.8 0.8 0 557.9594 151.3219)" fill="#231F20" font-family="'ArialNarrow-Bold'" font-size="7.5169">C</text>
			<text transform="matrix(0 0.8 0.8 0 557.9594 154.8469)" fill="#231F20" font-family="'ArialNarrow-Bold'" font-size="7.5169">K</text>
			<text transform="matrix(0 0.8 0.8 0 557.9594 158.3703)" fill="#231F20" font-family="'ArialNarrow-Bold'" font-size="7.5169">E</text>
			<text transform="matrix(0 0.8 0.8 0 557.9594 161.5563)" fill="#231F20" font-family="'ArialNarrow-Bold'" font-size="7.5169">T</text>
			<text transform="matrix(0 0.8 0.8 0 557.9594 164.7438)" fill="#231F20" font-family="'ArialNarrow-Bold'" font-size="7.5169">S</text>
			<text transform="matrix(0 0.68 0.8 0 541.4485 196.0711)" fill="#231F20" font-family="'ArialNarrow-Bold'" font-size="7.5169">N</text>
			<text transform="matrix(0 0.68 0.8 0 541.4485 199.6336)" fill="#231F20" font-family="'ArialNarrow-Bold'" font-size="7.5169">U</text>
			<text transform="matrix(0 0.68 0.8 0 541.4485 202.9102)" fill="#231F20" font-family="'ArialNarrow-Bold'" font-size="7.5169">R</text>
			<text transform="matrix(0 0.68 0.8 0 541.4485 205.9055)" fill="#231F20" font-family="'ArialNarrow-Bold'" font-size="7.5169">S</text>
			<text transform="matrix(0 0.68 0.8 0 541.4485 208.9008)" fill="#231F20" font-family="'ArialNarrow-Bold'" font-size="7.5169">E</text>
			<text transform="matrix(0 0.68 0.8 0 541.4485 211.6102)" fill="#231F20" font-family="'ArialNarrow-Bold'" font-size="7.5169">R</text>
			<text transform="matrix(0 0.68 0.8 0 541.4485 214.5289)" fill="#231F20" font-family="'ArialNarrow-Bold'" font-size="7.5169">Y</text>
			<text transform="matrix(0.68 0 0 -0.8 504.2516 648.8258)" fill="#231F20" font-family="'ArialNarrow-Bold'" font-size="7.5169">V</text>
			<text transform="matrix(0.68 0 0 -0.8 507.2469 648.8258)" fill="#231F20" font-family="'ArialNarrow-Bold'" font-size="7.5169">I</text>
			<text transform="matrix(0.68 0 0 -0.8 508.8211 648.8258)" fill="#231F20" font-family="'ArialNarrow-Bold'" font-size="7.5169">T</text>
			<text transform="matrix(0.68 0 0 -0.8 511.2234 648.8258)" fill="#231F20" font-family="'ArialNarrow-Bold'" font-size="7.5169">A</text>
			<text transform="matrix(0.68 0 0 -0.8 514.5 648.8258)" fill="#231F20" font-family="'ArialNarrow-Bold'" font-size="7.5169">L</text>
			<text transform="matrix(0.68 0 0 -0.8 516.9227 648.8258)" fill="#231F20" font-family="'ArialNarrow-Bold'" font-size="7.5169">I</text>
			<text transform="matrix(0.68 0 0 -0.8 518.4969 648.8258)" fill="#231F20" font-family="'ArialNarrow-Bold'" font-size="7.5169">T</text>
			<text transform="matrix(0.68 0 0 -0.8 521.2063 648.8258)" fill="#231F20" font-family="'ArialNarrow-Bold'" font-size="7.5169">Y</text>
			<text transform="matrix(0.68 0 0 -0.8 524.2015 648.8258)" fill="#231F20" font-family="'ArialNarrow-Bold'" font-size="7.5169"> </text>
			<text transform="matrix(0.68 0 0 -0.8 525.4891 648.8258)" fill="#231F20" font-family="'ArialNarrow-Bold'" font-size="7.5169">A</text>
			<text transform="matrix(0.68 0 0 -0.8 528.4594 648.8258)" fill="#231F20" font-family="'ArialNarrow-Bold'" font-size="7.5169">T</text>
			<text transform="matrix(0.68 0 0 -0.8 531.168 648.8258)" fill="#231F20" font-family="'ArialNarrow-Bold'" font-size="7.5169"> </text>
			<text transform="matrix(0.68 0 0 -0.8 532.4563 648.8258)" fill="#231F20" font-family="'ArialNarrow-Bold'" font-size="7.5169">S</text>
			<text transform="matrix(0.68 0 0 -0.8 535.4515 648.8258)" fill="#231F20" font-family="'ArialNarrow-Bold'" font-size="7.5169">E</text>
			<text transform="matrix(0.68 0 0 -0.8 538.1602 648.8258)" fill="#231F20" font-family="'ArialNarrow-Bold'" font-size="7.5169">A</text>
			<text transform="matrix(0.68 0 0 -0.8 541.4375 648.8258)" fill="#231F20" font-family="'ArialNarrow-Bold'" font-size="7.5169"> </text>
			<text transform="matrix(0.68 0 0 -0.8 493.6656 642.8118)" fill="#231F20" font-family="'ArialNarrow-Bold'" font-size="7.5169">S</text>
			<text transform="matrix(0.68 0 0 -0.8 496.6609 642.8118)" fill="#231F20" font-family="'ArialNarrow-Bold'" font-size="7.5169">P</text>
			<text transform="matrix(0.68 0 0 -0.8 499.4008 642.8118)" fill="#231F20" font-family="'ArialNarrow-Bold'" font-size="7.5169">A</text>
			<text transform="matrix(0.68 0 0 -0.8 502.6773 642.8118)" fill="#231F20" font-family="'ArialNarrow-Bold'" font-size="7.5169"> </text>
			<text transform="matrix(0.68 0 0 -0.8 503.9656 642.8118)" fill="#231F20" font-family="'ArialNarrow-Bold'" font-size="7.5169">A</text>
			<text transform="matrix(0.68 0 0 -0.8 507.2422 642.8118)" fill="#231F20" font-family="'ArialNarrow-Bold'" font-size="7.5169">N</text>
			<text transform="matrix(0.68 0 0 -0.8 510.8047 642.8118)" fill="#231F20" font-family="'ArialNarrow-Bold'" font-size="7.5169">D</text>
			<text transform="matrix(0.68 0 0 -0.8 514.0813 642.8118)" fill="#231F20" font-family="'ArialNarrow-Bold'" font-size="7.5169"> </text>
			<text transform="matrix(0.68 0 0 -0.8 515.3688 642.8118)" fill="#231F20" font-family="'ArialNarrow-Bold'" font-size="7.5169">F</text>
			<text transform="matrix(0.68 0 0 -0.8 517.7914 642.8118)" fill="#231F20" font-family="'ArialNarrow-Bold'" font-size="7.5169">I</text>
			<text transform="matrix(0.68 0 0 -0.8 519.3656 642.8118)" fill="#231F20" font-family="'ArialNarrow-Bold'" font-size="7.5169">T</text>
			<text transform="matrix(0.68 0 0 -0.8 522.075 642.8118)" fill="#231F20" font-family="'ArialNarrow-Bold'" font-size="7.5169">N</text>
			<text transform="matrix(0.68 0 0 -0.8 525.6375 642.8118)" fill="#231F20" font-family="'ArialNarrow-Bold'" font-size="7.5169">E</text>
			<text transform="matrix(0.68 0 0 -0.8 528.3469 642.8118)" fill="#231F20" font-family="'ArialNarrow-Bold'" font-size="7.5169">S</text>
			<text transform="matrix(0.68 0 0 -0.8 531.3422 642.8118)" fill="#231F20" font-family="'ArialNarrow-Bold'" font-size="7.5169">S</text>
			<text transform="matrix(0.68 0 0 -0.8 534.3375 642.8118)" fill="#231F20" font-family="'ArialNarrow-Bold'" font-size="7.5169"> </text>
			<text transform="matrix(0.68 0 0 -0.8 535.625 642.8118)" fill="#231F20" font-family="'ArialNarrow-Bold'" font-size="7.5169">C</text>
			<text transform="matrix(0.68 0 0 -0.8 538.6204 642.8118)" fill="#231F20" font-family="'ArialNarrow-Bold'" font-size="7.5169">E</text>
			<text transform="matrix(0.68 0 0 -0.8 541.3297 642.8118)" fill="#231F20" font-family="'ArialNarrow-Bold'" font-size="7.5169">N</text>
			<text transform="matrix(0.68 0 0 -0.8 544.8922 642.8118)" fill="#231F20" font-family="'ArialNarrow-Bold'" font-size="7.5169">T</text>
			<text transform="matrix(0.68 0 0 -0.8 547.6016 642.8118)" fill="#231F20" font-family="'ArialNarrow-Bold'" font-size="7.5169">E</text>
			<text transform="matrix(0.68 0 0 -0.8 550.3102 642.8118)" fill="#231F20" font-family="'ArialNarrow-Bold'" font-size="7.5169">R</text>
			<g id="g16082">
				<g>
					<g id="g16084">
						<g id="g16098" transform="translate(554.4568,269.8503)">
							<path id="path16100" inkscape:connector-curvature="0" fill="#231F20" d="M0,0.133l-0.289,2.814h-0.768l0.548,2.2h-0.548
								l0.548,1.647h0.62c-0.32,0.13-0.549,0.45-0.549,0.817c0,0.492,0.4,0.9,0.889,0.9c0.498,0,0.887-0.408,0.887-0.9
								c0-0.367-0.219-0.688-0.548-0.817h0.618l0.55-1.647h-0.55l0.55-2.2H1.189L0.899,0.133H0"/>
						</g>
						<g id="g16102" transform="translate(494.1642,276.493)">
							<path id="path16104" inkscape:connector-curvature="0" fill="#231F20" d="M0,0.134h-0.341
								c0.326,0.136,0.554,0.459,0.554,0.829c0,0.501-0.402,0.904-0.901,0.904S-1.59,1.463-1.59,0.962
								c0-0.37,0.229-0.693,0.555-0.829h-0.354c-0.458,0-0.832-0.373-0.832-0.831V-2.78c0-0.58,0.327-0.823,0.804-0.916v-2.898
								h1.456v2.899c0.474,0.098,0.792,0.34,0.792,0.916v2.082C0.831-0.239,0.46,0.134,0,0.134"/>
						</g>
					</g>
				</g>
			</g>
		</g>
	</g>
</g>
</svg>
