<?xml version="1.0" encoding="utf-8"?>
<!-- Generator: Adobe Illustrator 16.0.4, SVG Export Plug-In . SVG Version: 6.00 Build 0)  -->
<!DOCTYPE svg PUBLIC "-//W3C//DTD SVG 1.1//EN" "http://www.w3.org/Graphics/SVG/1.1/DTD/svg11.dtd">
<svg version="1.1"
	 id="svg2" xmlns:dc="http://purl.org/dc/elements/1.1/" xmlns:cc="http://creativecommons.org/ns#" xmlns:rdf="http://www.w3.org/1999/02/22-rdf-syntax-ns#" xmlns:svg="http://www.w3.org/2000/svg" xmlns:inkscape="http://www.inkscape.org/namespaces/inkscape"
	 xmlns="http://www.w3.org/2000/svg" xmlns:xlink="http://www.w3.org/1999/xlink" x="0px" y="0px" width="133.75px"
	 height="813.355px" viewBox="1.438 7.841 133.75 813.355" enable-background="new 1.438 7.841 133.75 813.355"
	 xml:space="preserve">
<g>
	<g>
		<g id="g10" transform="matrix(1.25,0,0,-1.25,0,990)">
			<g id="g13738">
				<g>
					<g>
						<g id="g13740">
							<g id="g13746" transform="translate(559.8045,60.6297)">
								<path id="path13748" inkscape:connector-curvature="0" fill="#FFFFFF" d="M-465.47,74.818v18.523h-0.575
									c1.336,0,5.512,0.358,7.362,2.047c4.643,4.247,6.628,15.606,6.628,37.988c0,28.809-3.305,40.031-11.79,40.031h-0.896
									v367.365h9.241v69.378c0,60.837-8.864,76.053-35.073,108.947c-6.63,5.815-13.52,5.574-14.39,5.574
									c-0.866,0-7.98,0.241-14.607-5.574c-33.813-38.878-35.12-66.767-35.12-108.947v-69.378h9.002V173.407h1.376
									c-1.334,0-5.511-0.355-7.364-2.044c-4.644-4.245-6.623-15.608-6.623-37.988s1.98-33.741,6.623-37.988
									c1.853-1.689,3.828-2.047,5.166-2.047h0.822V74.818H-465.47z"/>
							</g>
							<g id="g13750" transform="translate(559.8045,60.6297)">
								<path id="path13752" inkscape:connector-curvature="0" fill="none" stroke="#918F90" d="M-465.47,74.818v18.523h-0.575
									c1.336,0,5.512,0.358,7.362,2.047c4.643,4.247,6.628,15.606,6.628,37.988c0,28.809-3.305,40.031-11.79,40.031h-0.896
									v367.365h9.241v69.378c0,60.837-8.864,76.053-35.073,108.947c-6.63,5.815-13.52,5.574-14.39,5.574
									c-0.866,0-7.98,0.241-14.607-5.574c-33.813-38.878-35.12-66.767-35.12-108.947v-69.378h9.002V173.407h1.376
									c-1.334,0-5.511-0.355-7.364-2.044c-4.644-4.245-6.623-15.608-6.623-37.988s1.98-33.741,6.623-37.988
									c1.853-1.689,3.828-2.047,5.166-2.047h0.822V74.818H-465.47z M-461.652,540.632v67.184c0,61.749-8.77,76.305-34.084,108.767
									c-2.26,2.906-5.343,4.472-9.248,4.472c-1.538,0-4.404-0.046-9.475-4.514c-32.481-38.236-34.071-64.92-34.071-108.725
									v-67.184"/>
							</g>
						</g>
					</g>
				</g>
			</g>
			<g id="g13754">
				<g>
					<g>
						<g id="g13756">
							<g id="g13762" transform="translate(554.6036,77.8757)">
								<path id="path13764" inkscape:connector-curvature="0" fill="#FFFFFF" stroke="#918F90" stroke-linejoin="round" d="
									M-465.47,74.817v4.897h4.626c7.282,0,7.833,23.731,7.833,36.416c0,12.683-0.551,36.414-7.833,36.414h-4.626v429.562h5.795
									l0.109,27.275c0,14.291-18.202,20.19-40.513,20.19c-32.575,0-40.407-11.425-40.407-20.19v-27.275h6.204l0.021-429.562
									h-4.849c-7.28,0-7.83-23.73-7.83-36.414s0.549-36.416,7.83-36.416h4.777V75.74"/>
							</g>
							<g id="g13766" transform="translate(554.6036,456.2129)">
								<path id="path13768" inkscape:connector-curvature="0" fill="none" stroke="#918F90" stroke-width="0.5" d="M-465.47,74.817
									h-11.584V62.705h-19.106V33.711h19.721v2.43c1.51-0.459,2.905-1.161,4.113-2.067l1.014,0.842
									c1.887-1.398,3.372-3.231,4.275-5.333l-1.343-0.525c0.53-1.3,0.825-2.711,0.825-4.184c0-1.5-0.305-2.936-0.857-4.258
									l1.275-0.667c-0.996-2.206-2.64-4.105-4.718-5.498l-0.785,0.994c-2.194-1.542-4.945-2.458-7.924-2.458h-8.154v-0.603h22.996
									v-7.1h-14.019V-4.842h5.68v-12.645h-14.749v-3.766h23.088V-48.67h-23.363l0.006-17.114h23.609"/>
							</g>
							<g id="g13770" transform="translate(495.9556,304.0236)">
								<path id="path13772" inkscape:connector-curvature="0" fill="#949595" d="M-465.47,74.817h-10.15v0.498h9.883v7.812
									c0,0.142,0.12,0.252,0.267,0.252h12.038v22.195h-1.171v-5.652c0-0.142-0.12-0.25-0.267-0.25h-20.75
									c-0.16,0-0.276,0.108-0.276,0.25v28.003c0,0.133,0.116,0.253,0.276,0.253h20.581h1.512v6.272h-1.175v-5.025
									c0-0.139-0.118-0.247-0.279-0.247h-15.862c-0.148,0-0.277,0.109-0.277,0.247v4.519h-1.78c-0.158,0-0.278,0.12-0.278,0.253
									v29.258c0,0.145,0.12,0.253,0.278,0.253h18.159h0.959v1.005h-21.848v0.506h22.125c0.159,0,0.28-0.119,0.28-0.253v-1.511
									c0-0.136-0.121-0.244-0.28-0.244h-1.234h-17.891v-28.761h1.788c0.15,0,0.277-0.106,0.277-0.253v-4.52h15.32v5.028
									c0,0.136,0.12,0.253,0.266,0.253h1.732c0.15,0,0.266-0.117,0.266-0.253v-6.78c0-0.145-0.116-0.253-0.266-0.253h-1.791
									h-20.319v-27.503h20.208v5.647c0,0.15,0.121,0.256,0.277,0.256h1.715c0.144,0,0.274-0.106,0.274-0.256V83.128
									c0-0.137-0.13-0.245-0.274-0.245h-12.034v-7.82C-465.19,74.927-465.311,74.817-465.47,74.817"/>
							</g>
							<g id="g13774" transform="translate(503.2236,476.2895)">
								<path id="path13776" inkscape:connector-curvature="0" fill="none" stroke="#918F90" stroke-width="0.5" d="M-465.47,74.818
									h-4.342c-1.701,0-3.077,1.257-3.077,2.811v8.612c0,1.771-1.114,3.607-3.397,3.607c-2.281,0-4.081-1.836-4.081-3.607v-27.23
									c0-2.039,1.811-3.692,4.043-3.692l0.645,0.014c0.848,0,1.537-0.633,1.537-1.411s-0.688-1.411-1.537-1.411h-0.645
									c-2.232,0-4.043-1.65-4.043-3.689c0-0.62,0.181-1.197,0.479-1.711c-0.298-0.514-0.479-1.089-0.479-1.708
									c0-2.042,1.811-3.695,4.043-3.695c0.191,0,0.459,0.016,0.76,0.042c1.414,0.719,3.044,1.136,4.784,1.136
									c1.667,0,3.235-0.381,4.609-1.052c0.301-0.03,0.573-0.048,0.786-0.048c2.232,0,4.043,1.655,4.043,3.694
									c0,1.531-1.02,2.844-2.47,3.405c0,0-0.554,1.075,1.92,1.075h3.573V20.942h-24.577 M-414.09-119.327h-23.609v1.977h23.609
									V-119.327z M-421.213-85.861v-12.245h-16.491v-3.433"/>
							</g>
							<path id="path13778" inkscape:connector-curvature="0" fill="#FFFFFF" stroke="#918F90" stroke-width="0.5" d="
								M75.561,253.802h-4.716v0.991h4.716V253.802z"/>
							<path id="path13780" inkscape:connector-curvature="0" fill="#FFFFFF" stroke="#918F90" stroke-width="0.5" d="
								M75.561,254.793h-4.716v0.995h4.716V254.793z"/>
							<path id="path13782" inkscape:connector-curvature="0" fill="#FFFFFF" stroke="#918F90" stroke-width="0.5" d="
								M75.561,255.788h-4.716v0.989h4.716V255.788z"/>
							<path id="path13784" inkscape:connector-curvature="0" fill="#FFFFFF" stroke="#918F90" stroke-width="0.5" d="
								M79.101,253.802h-3.54v0.991h3.54V253.802z"/>
							<path id="path13786" inkscape:connector-curvature="0" fill="#FFFFFF" stroke="#918F90" stroke-width="0.5" d="
								M79.101,254.793h-3.54v0.995h3.54V254.793z"/>
							<path id="path13788" inkscape:connector-curvature="0" fill="#FFFFFF" stroke="#918F90" stroke-width="0.5" d="
								M79.101,255.788h-3.54v0.989h3.54V255.788z"/>
							<path id="path13790" inkscape:connector-curvature="0" fill="#FFFFFF" stroke="#918F90" stroke-width="0.5" d="
								M75.561,256.777h-4.716v0.994h4.716V256.777z"/>
							<path id="path13792" inkscape:connector-curvature="0" fill="#FFFFFF" stroke="#918F90" stroke-width="0.5" d="
								M79.101,256.777h-3.54v0.994h3.54V256.777z"/>
							<path id="path13794" inkscape:connector-curvature="0" fill="#FFFFFF" stroke="#918F90" stroke-width="0.5" d="
								M75.561,257.771h-4.716v0.992h4.716V257.771z"/>
							<path id="path13796" inkscape:connector-curvature="0" fill="#FFFFFF" stroke="#918F90" stroke-width="0.5" d="
								M79.101,257.771h-3.54v0.992h3.54V257.771z"/>
							<path id="path13798" inkscape:connector-curvature="0" fill="#FFFFFF" stroke="#918F90" stroke-width="0.5" d="
								M75.561,258.763h-4.716v0.994h4.716V258.763z"/>
							<path id="path13800" inkscape:connector-curvature="0" fill="#FFFFFF" stroke="#918F90" stroke-width="0.5" d="
								M79.101,258.763h-3.54v0.994h3.54V258.763z"/>
							<path id="path13802" inkscape:connector-curvature="0" fill="#FFFFFF" stroke="#918F90" stroke-width="0.5" d="
								M70.845,253.802h-3.544v0.991h3.544V253.802z"/>
							<path id="path13804" inkscape:connector-curvature="0" fill="#FFFFFF" stroke="#918F90" stroke-width="0.5" d="
								M70.845,254.793h-3.544v0.995h3.544V254.793z"/>
							<path id="path13806" inkscape:connector-curvature="0" fill="#FFFFFF" stroke="#918F90" stroke-width="0.5" d="
								M70.845,255.788h-3.544v0.989h3.544V255.788z"/>
							<path id="path13808" inkscape:connector-curvature="0" fill="#FFFFFF" stroke="#918F90" stroke-width="0.5" d="
								M70.845,256.777h-3.544v0.994h3.544V256.777z"/>
							<path id="path13810" inkscape:connector-curvature="0" fill="#FFFFFF" stroke="#918F90" stroke-width="0.5" d="
								M70.845,257.771h-3.544v0.992h3.544V257.771z"/>
							<path id="path13812" inkscape:connector-curvature="0" fill="#FFFFFF" stroke="#918F90" stroke-width="0.5" d="
								M70.845,258.763h-3.544v0.994h3.544V258.763z"/>
							<path id="path13814" inkscape:connector-curvature="0" fill="#FFFFFF" stroke="#918F90" stroke-width="0.5" d="
								M79.101,253.814H67.302v-2.927h11.799V253.814z"/>
							<path id="path13816" inkscape:connector-curvature="0" fill="#FFFFFF" stroke="#918F90" stroke-width="0.5" d="
								M38.202,253.875h-4.71v0.992h4.71V253.875z"/>
							<path id="path13818" inkscape:connector-curvature="0" fill="#FFFFFF" stroke="#918F90" stroke-width="0.5" d="
								M38.202,254.868h-4.71v0.995h4.71V254.868z"/>
							<path id="path13820" inkscape:connector-curvature="0" fill="#FFFFFF" stroke="#918F90" stroke-width="0.5" d="
								M38.202,255.863h-4.71v0.994h4.71V255.863z"/>
							<path id="path13822" inkscape:connector-curvature="0" fill="#FFFFFF" stroke="#918F90" stroke-width="0.5" d="
								M41.743,253.875h-3.541v0.992h3.541V253.875z"/>
							<path id="path13824" inkscape:connector-curvature="0" fill="#FFFFFF" stroke="#918F90" stroke-width="0.5" d="
								M41.743,254.868h-3.541v0.995h3.541V254.868z"/>
							<path id="path13826" inkscape:connector-curvature="0" fill="#FFFFFF" stroke="#918F90" stroke-width="0.5" d="
								M41.743,255.863h-3.541v0.994h3.541V255.863z"/>
							<path id="path13828" inkscape:connector-curvature="0" fill="#FFFFFF" stroke="#918F90" stroke-width="0.5" d="
								M38.202,256.857h-4.71v0.992h4.71V256.857z"/>
							<path id="path13830" inkscape:connector-curvature="0" fill="#FFFFFF" stroke="#918F90" stroke-width="0.5" d="
								M41.743,256.857h-3.541v0.992h3.541V256.857z"/>
							<path id="path13832" inkscape:connector-curvature="0" fill="#FFFFFF" stroke="#918F90" stroke-width="0.5" d="
								M38.202,257.847h-4.71v0.992h4.71V257.847z"/>
							<path id="path13834" inkscape:connector-curvature="0" fill="#FFFFFF" stroke="#918F90" stroke-width="0.5" d="
								M41.743,257.847h-3.541v0.992h3.541V257.847z"/>
							<path id="path13836" inkscape:connector-curvature="0" fill="#FFFFFF" stroke="#918F90" stroke-width="0.5" d="
								M38.202,258.839h-4.71v0.992h4.71V258.839z"/>
							<path id="path13838" inkscape:connector-curvature="0" fill="#FFFFFF" stroke="#918F90" stroke-width="0.5" d="
								M41.743,258.839h-3.541v0.992h3.541V258.839z"/>
							<path id="path13840" inkscape:connector-curvature="0" fill="#FFFFFF" stroke="#918F90" stroke-width="0.5" d="
								M33.491,253.875h-3.545v0.992h3.545V253.875z"/>
							<path id="path13842" inkscape:connector-curvature="0" fill="#FFFFFF" stroke="#918F90" stroke-width="0.5" d="
								M33.491,254.868h-3.545v0.995h3.545V254.868z"/>
							<path id="path13844" inkscape:connector-curvature="0" fill="#FFFFFF" stroke="#918F90" stroke-width="0.5" d="
								M33.491,255.863h-3.545v0.994h3.545V255.863z"/>
							<path id="path13846" inkscape:connector-curvature="0" fill="#FFFFFF" stroke="#918F90" stroke-width="0.5" d="
								M33.491,256.857h-3.545v0.992h3.545V256.857z"/>
							<path id="path13848" inkscape:connector-curvature="0" fill="#FFFFFF" stroke="#918F90" stroke-width="0.5" d="
								M33.491,257.847h-3.545v0.992h3.545V257.847z"/>
							<path id="path13850" inkscape:connector-curvature="0" fill="#FFFFFF" stroke="#918F90" stroke-width="0.5" d="
								M33.491,258.839h-3.545v0.992h3.545V258.839z"/>
							<path id="path13852" inkscape:connector-curvature="0" fill="#FFFFFF" stroke="#918F90" stroke-width="0.5" d="
								M41.743,253.889H29.947v-2.927h11.796V253.889z"/>
							<path id="path13854" inkscape:connector-curvature="0" fill="#FFFFFF" stroke="#918F90" stroke-width="0.5" d="
								M28.276,270.604h5.622v14.928h-5.622V270.604z"/>
							<path id="path13856" inkscape:connector-curvature="0" fill="#FFFFFF" stroke="#918F90" stroke-width="0.5" d="
								M75.275,270.604h5.623v14.928h-5.623V270.604z"/>
							<g id="g13858" transform="translate(522.9714,201.8983)">
								<path id="path13860" inkscape:connector-curvature="0" fill="#FFFFFF" d="M-465.471,74.818c0,3.414,1.116,6.805,2.748,8.789
									c0.98,1.191,3.205,1.255,3.205,1.255h3.211V66.696h-7.058C-463.364,66.696-465.471,70.127-465.471,74.818"/>
							</g>
							<g id="g13862" transform="translate(522.9714,201.8983)">
								<path id="path13864" inkscape:connector-curvature="0" fill="none" stroke="#918F90" d="M-465.471,74.818
									c0,3.414,1.116,6.805,2.748,8.789c0.98,1.191,3.205,1.255,3.205,1.255h3.211V66.696h-7.058
									C-463.364,66.696-465.471,70.127-465.471,74.818z"/>
							</g>
							<g id="g13866" transform="translate(517.2014,201.8983)">
								<path id="path13868" inkscape:connector-curvature="0" fill="#FFFFFF" d="M-465.47,74.818c0,3.414-1.115,6.805-2.751,8.789
									c-0.98,1.191-3.205,1.255-3.205,1.255h-3.205V66.696h7.051C-467.58,66.696-465.47,70.127-465.47,74.818"/>
							</g>
							<g id="g13870" transform="translate(517.2014,201.8983)">
								<path id="path13872" inkscape:connector-curvature="0" fill="none" stroke="#918F90" d="M-465.47,74.818
									c0,3.414-1.115,6.805-2.751,8.789c-0.98,1.191-3.205,1.255-3.205,1.255h-3.205V66.696h7.051
									C-467.58,66.696-465.47,70.127-465.47,74.818z"/>
							</g>
							<g id="g13874" transform="translate(532.1188,194.5843)">
								<path id="path13876" inkscape:connector-curvature="0" fill="none" stroke="#918F90" stroke-width="0.5" d="M-465.47,74.818
									h-3.102c-1.386,0-2.513,1.417-2.513,3.163c0,1.747,1.127,3.162,2.513,3.162h3.102V74.818z M-489.548,74.818h3.107
									c1.384,0,2.51,1.417,2.51,3.163c0,1.747-1.126,3.162-2.51,3.162h-3.107V74.818z M-465.47,82.993h-3.102
									c-1.386,0-2.513,1.417-2.513,3.161c0,1.747,1.127,3.162,2.513,3.162h3.102V82.993z M-489.548,82.993h3.107
									c1.384,0,2.51,1.417,2.51,3.161c0,1.747-1.126,3.162-2.51,3.162h-3.107V82.993z M-483.519,107.504l-3.905-1.059
									 M-483.713,108.471l-4.059-0.772 M-483.842,109.443l-4.163-0.47 M-484.035,110.413l-4.086-0.15 M-483.934,111.393
									l-4.184,0.162 M-483.907,112.374l-4.095,0.469 M-483.68,113.335l-4.086,0.786 M-483.564,114.321l-3.855,1.053
									 M-482.593,116.383l-3.623,1.711 M-482.077,117.238l-3.44,1.972 M-481.557,118.107l-3.17,2.159 M-481.717,123.799
									c-0.48-0.252-1.581-1.445-2.228-2.284l-0.477-0.569c-0.845-1.003-1.551-2.109-2.126-3.284l-0.818-2.025
									c-0.557-1.722-0.826-3.558-0.733-5.462c0.069-1.292,0.309-2.539,0.674-3.731c0.641-2.252,1.911-4.002,2.851-5.091
									l3.255,2.344c-0.423,0.544-0.85,1.155-1.133,1.611c0.507,0.528,0.491,1.328-0.068,1.823
									c-0.276,0.248-0.639,0.369-0.999,0.373l0.052,0.009c-0.275,0.908-0.461,1.852-0.506,2.834
									c-0.07,1.338,0.105,2.628,0.467,3.85c0.359,0.02,0.71,0.162,0.975,0.425c0.521,0.525,0.486,1.323-0.055,1.82
									c0.395,0.736,1.112,1.867,1.652,2.506l-3.011,2.566 M-482.467,105.371l-3.503-1.905 M-481.898,104.543l-3.416-2.15
									 M-471.477,107.504l3.907-1.059 M-471.286,108.471l4.062-0.772 M-471.155,109.443l4.164-0.47 M-470.96,110.413l4.083-0.148
									 M-471.064,111.393l4.187,0.162 M-471.086,112.374l4.091,0.469 M-471.32,113.335l4.089,0.786 M-471.434,114.321l3.856,1.053
									 M-472.405,116.383l3.624,1.711 M-472.92,117.238l3.442,1.972 M-473.437,118.107l3.168,2.159 M-470.57,120.946
									c0.842-1.003,1.545-2.109,2.12-3.284l0.818-2.025c0.559-1.722,0.827-3.558,0.73-5.462c-0.061-1.292-0.304-2.539-0.668-3.731
									c-0.79-2.763-2.522-4.769-3.429-5.728l-0.513-0.539l-2.842,2.723c0.58,0.608,1.37,1.697,1.81,2.408
									c-0.509,0.528-0.491,1.328,0.063,1.823c0.28,0.248,0.641,0.369,1.003,0.373l-0.054,0.009
									c0.277,0.908,0.458,1.852,0.509,2.834c0.07,1.338-0.11,2.628-0.468,3.85c-0.359,0.02-0.713,0.162-0.975,0.425
									c-0.523,0.525-0.486,1.323,0.053,1.82c-0.398,0.736-1.112,1.867-1.655,2.506l3.016,2.566L-470.57,120.946L-470.57,120.946z
									 M-472.531,105.371l3.506-1.905 M-473.102,104.543l3.309-2.15 M-473.675,103.705l3.022-2.325"/>
							</g>
							<g id="g13878" transform="translate(520.1439,239.0754)">
								<path id="path13880" inkscape:connector-curvature="0" fill="none" stroke="#918F90" stroke-linejoin="round" d="
									M-465.47,74.817c-0.994,0-1.912,0.248-2.729,0.648l-0.76-1.008c-0.539-0.639-1.255-1.769-1.652-2.506
									c0.541-0.497,0.576-1.294,0.055-1.819c-0.265-0.264-0.616-0.405-0.975-0.425c-0.362-1.222-0.537-2.514-0.467-3.85
									c0.045-0.984,0.231-1.928,0.506-2.836l-0.052-0.009c0.359-0.005,0.723-0.125,0.998-0.373
									c0.56-0.495,0.576-1.295,0.069-1.822c0.439-0.712,1.232-1.8,1.81-2.408l0.794-0.987c0.738,0.305,1.545,0.487,2.403,0.487
									c0.846,0,1.643-0.173,2.37-0.472l0.723,0.973c0.578,0.606,1.368,1.694,1.809,2.406c-0.508,0.527-0.49,1.327,0.064,1.823
									c0.279,0.247,0.64,0.367,1.003,0.372l-0.055,0.011c0.277,0.909,0.459,1.852,0.509,2.834c0.07,1.339-0.11,2.63-0.468,3.85
									c-0.357,0.02-0.712,0.161-0.974,0.425c-0.523,0.525-0.486,1.322,0.053,1.819c-0.398,0.737-1.111,1.867-1.654,2.506
									l-0.81,0.928C-463.681,75.034-464.544,74.817-465.47,74.817z"/>
							</g>
							<g id="g13882" transform="translate(516.5063,217.3962)">
								<path id="path13884" inkscape:connector-curvature="0" fill="none" stroke="#918F90" stroke-width="0.5" d="M-465.47,74.817
									c0.854-0.967,2.163-1.586,3.638-1.586c1.511,0,2.855,0.655,3.71,1.675 M-465.687,75.592
									c0.638,0.731,1.023,1.658,1.023,2.666c0,0.825-0.259,1.597-0.705,2.252 M-457.089,101.518
									c-1.103,1.242-2.821,2.042-4.743,2.042c-1.779,0-3.379-0.68-4.481-1.761 M-458.25,101.167
									c-0.885,0.863-2.163,1.402-3.582,1.402c-1.288,0-2.454-0.441-3.318-1.159 M-458.502,100.3
									c-0.848,0.789-2.027,1.275-3.33,1.275c-1.242,0-2.368-0.439-3.207-1.158"/>
							</g>
							<g id="g13886" transform="translate(517.744,239.8236)">
								<path id="path13888" inkscape:connector-curvature="0" fill="#FFFFFF" stroke="#918F90" stroke-width="0.5" d="
									M-465.47,74.817c-1.183,0.552-2.077,1.981-2.123,2.923"/>
							</g>
							<g id="g13890" transform="translate(517.4517,243.5659)">
								<path id="path13892" inkscape:connector-curvature="0" fill="#FFFFFF" d="M-465.47,74.817c0,0.797-0.706,1.442-1.58,1.442
									c-0.877,0-1.581-0.645-1.581-1.442c0-0.798,0.705-1.445,1.581-1.445C-466.177,73.372-465.47,74.019-465.47,74.817"/>
							</g>
							<g id="g13894" transform="translate(517.4517,243.5659)">
								<path id="path13896" inkscape:connector-curvature="0" fill="none" stroke="#918F90" stroke-width="0.5" d="M-465.47,74.817
									c0,0.797-0.706,1.442-1.58,1.442c-0.877,0-1.581-0.645-1.581-1.442c0-0.798,0.705-1.445,1.581-1.445
									C-466.177,73.372-465.47,74.019-465.47,74.817z M-456.383,72.533c-0.431,0.527-1.462,1.797-2.146,2.292"/>
							</g>
							<g id="g13898" transform="translate(522.8107,243.5659)">
								<path id="path13900" inkscape:connector-curvature="0" fill="#FFFFFF" d="M-465.47,74.817c0,0.797,0.708,1.442,1.582,1.442
									c0.873,0,1.577-0.645,1.577-1.442c0-0.798-0.703-1.445-1.577-1.445C-464.762,73.372-465.47,74.019-465.47,74.817"/>
							</g>
							<g id="g13902" transform="translate(522.8107,243.5659)">
								<path id="path13904" inkscape:connector-curvature="0" fill="none" stroke="#918F90" stroke-width="0.5" d="M-465.47,74.817
									c0,0.797,0.708,1.442,1.582,1.442c0.873,0,1.577-0.645,1.577-1.442c0-0.798-0.703-1.445-1.577-1.445
									C-464.762,73.372-465.47,74.019-465.47,74.817z"/>
							</g>
							<g id="g13906" transform="translate(517.3426,217.7346)">
								<path id="path13908" inkscape:connector-curvature="0" fill="#FFFFFF" d="M-465.471,74.817c0,0.798-0.712,1.445-1.583,1.445
									c-0.873,0-1.579-0.647-1.579-1.445c0-0.797,0.705-1.445,1.579-1.445C-466.182,73.372-465.471,74.02-465.471,74.817"/>
							</g>
							<g id="g13910" transform="translate(517.3426,217.7346)">
								<path id="path13912" inkscape:connector-curvature="0" fill="none" stroke="#918F90" stroke-width="0.5" d="
									M-465.471,74.817c0,0.798-0.712,1.445-1.583,1.445c-0.873,0-1.579-0.647-1.579-1.445c0-0.797,0.705-1.445,1.579-1.445
									C-466.182,73.372-465.471,74.02-465.471,74.817z"/>
							</g>
							<g id="g13914" transform="translate(526.0775,219.9428)">
								<path id="path13916" inkscape:connector-curvature="0" fill="#FFFFFF" stroke="#918F90" stroke-width="0.5" d="
									M-465.47,74.817c-0.722-0.8-1.452-1.775-1.796-2.098"/>
							</g>
							<g id="g13918" transform="translate(522.7015,217.7346)">
								<path id="path13920" inkscape:connector-curvature="0" fill="#FFFFFF" d="M-465.47,74.817c0,0.798,0.708,1.445,1.58,1.445
									s1.584-0.647,1.584-1.445c0-0.797-0.712-1.445-1.584-1.445S-465.47,74.02-465.47,74.817"/>
							</g>
							<g id="g13922" transform="translate(522.7015,217.7346)">
								<path id="path13924" inkscape:connector-curvature="0" fill="none" stroke="#918F90" stroke-width="0.5" d="M-465.47,74.817
									c0,0.798,0.708,1.445,1.58,1.445s1.584-0.647,1.584-1.445c0-0.797-0.712-1.445-1.584-1.445S-465.47,74.02-465.47,74.817z"/>
							</g>
							<g id="g13926" transform="translate(513.4815,85.1702)">
								<path id="path13928" inkscape:connector-curvature="0" fill="none" stroke="#100F0D" stroke-width="0.5" d="M-465.47,74.818
									L-465.47,74.818"/>
							</g>
							<g id="g13930" transform="translate(512.8968,88.7489)">
								<path id="path13932" inkscape:connector-curvature="0" fill="#FFFFFF" d="M-465.47,74.817c0-0.2,0.017-0.395,0.029-0.592
									c-0.18-0.047-0.353-0.106-0.544-0.139c-0.355-0.059-0.72-0.089-1.098-0.089c-0.373,0-0.74,0.03-1.091,0.089
									c-0.353,0.061-0.696,0.15-1.02,0.258c-0.323,0.113-0.636,0.252-0.924,0.411l-1.602-2.884
									c0.333-0.155,0.677-0.295,1.03-0.419c0.553-0.194,1.138-0.341,1.741-0.442c0.601-0.098,1.229-0.155,1.866-0.155
									c0.642,0,1.267,0.056,1.873,0.155c0.241,0.041,0.473,0.095,0.705,0.15c1.248-2.209,3.589-3.705,6.281-3.705
									c2.688,0,5.029,1.495,6.275,3.705c0.233-0.055,0.468-0.109,0.707-0.15c0.605-0.098,1.23-0.155,1.869-0.155
									c0.64,0,1.266,0.056,1.871,0.155c0.603,0.102,1.189,0.248,1.741,0.442c0.354,0.123,0.698,0.262,1.027,0.419l-1.599,2.884
									c-0.287-0.159-0.598-0.298-0.925-0.411c-0.325-0.108-0.668-0.197-1.02-0.258c-0.355-0.059-0.716-0.089-1.095-0.089
									c-0.373,0-0.739,0.03-1.094,0.089c-0.19,0.033-0.365,0.092-0.546,0.139c0.015,0.198,0.033,0.392,0.033,0.592
									c0,4.066-3.248,7.362-7.243,7.362C-462.227,82.18-465.47,78.883-465.47,74.817"/>
							</g>
							<g id="g13934" transform="translate(512.8968,88.7489)">
								
									<path id="path13936" inkscape:connector-curvature="0" fill="none" stroke="#918F90" stroke-width="0.5" stroke-linejoin="round" d="
									M-465.47,74.817c0-0.2,0.017-0.395,0.029-0.592c-0.18-0.047-0.353-0.106-0.544-0.139c-0.355-0.059-0.72-0.089-1.098-0.089
									c-0.373,0-0.74,0.03-1.091,0.089c-0.353,0.061-0.696,0.15-1.02,0.258c-0.323,0.113-0.636,0.252-0.924,0.411l-1.602-2.884
									c0.333-0.155,0.677-0.295,1.03-0.419c0.553-0.194,1.138-0.341,1.741-0.442c0.601-0.098,1.229-0.155,1.866-0.155
									c0.642,0,1.267,0.056,1.873,0.155c0.241,0.041,0.473,0.095,0.705,0.15c1.248-2.209,3.589-3.705,6.281-3.705
									c2.688,0,5.029,1.495,6.275,3.705c0.233-0.055,0.468-0.109,0.707-0.15c0.605-0.098,1.23-0.155,1.869-0.155
									c0.64,0,1.266,0.056,1.871,0.155c0.603,0.102,1.189,0.248,1.741,0.442c0.354,0.123,0.698,0.262,1.027,0.419l-1.599,2.884
									c-0.287-0.159-0.598-0.298-0.925-0.411c-0.325-0.108-0.668-0.197-1.02-0.258c-0.355-0.059-0.716-0.089-1.095-0.089
									c-0.373,0-0.739,0.03-1.094,0.089c-0.19,0.033-0.365,0.092-0.546,0.139c0.015,0.198,0.033,0.392,0.033,0.592
									c0,4.066-3.248,7.362-7.243,7.362C-462.227,82.18-465.47,78.883-465.47,74.817z"/>
							</g>
							<g id="g13938" transform="translate(526.9713,88.1839)">
								<path id="path13940" inkscape:connector-curvature="0" fill="none" stroke="#918F90" stroke-width="0.5" d="M-465.47,74.816
									l-1.137-2.9 M-464.374,74.681l-0.584-3.2 M-463.293,74.626l0.048-3.203 M-462.206,74.691l0.666-3.142 M-461.178,75.009
									l1.295-3.044 M-479.083,74.816l1.136-2.9 M-480.182,74.681l0.583-3.2 M-481.267,74.626l-0.048-3.203 M-482.351,74.691
									l-0.67-3.142 M-483.382,75.009l-1.292-3.044"/>
							</g>
							<g id="g13942" transform="translate(515.4616,85.6219)">
								<path id="path13944" inkscape:connector-curvature="0" fill="#FFFFFF" d="M-465.47,74.818
									c-0.245-0.133-0.734-0.25-1.032-0.348c-0.294-0.098-0.614-0.175-0.957-0.234c-0.342-0.056-0.7-0.092-1.081-0.109
									c-0.377-0.014-0.77-0.113-1.176-0.083c-0.403,0.028-0.826-0.047-1.254,0.012c-0.429,0.059-0.846,0.141-1.245,0.234
									c-0.396,0.1-0.886,0.217-1.247,0.348c-0.361,0.133-0.702,0.283-1.017,0.442l-1.636-2.434
									c0.334-0.166,0.688-0.322,1.053-0.469c0.572-0.223,1.289-0.425,1.921-0.594c0.631-0.169,1.29-0.308,1.968-0.409
									c0.681-0.097,1.34-0.091,1.982-0.139c0.644-0.044,1.268,0.048,1.867,0.078c0.6,0.03,1.173,0.094,1.718,0.197
									c0.539,0.1,1.049,0.133,1.522,0.303L-465.47,74.818z"/>
							</g>
							<g id="g13946" transform="translate(515.4616,85.6219)">
								
									<path id="path13948" inkscape:connector-curvature="0" fill="none" stroke="#918F90" stroke-width="0.5" stroke-linejoin="round" d="
									M-465.47,74.818c-0.245-0.133-0.734-0.25-1.032-0.348c-0.294-0.098-0.614-0.175-0.957-0.234
									c-0.342-0.056-0.7-0.092-1.081-0.109c-0.377-0.014-0.77-0.113-1.176-0.083c-0.403,0.028-0.826-0.047-1.254,0.012
									c-0.429,0.059-0.846,0.141-1.245,0.234c-0.396,0.1-0.886,0.217-1.247,0.348c-0.361,0.133-0.702,0.283-1.017,0.442
									l-1.636-2.434c0.334-0.166,0.688-0.322,1.053-0.469c0.572-0.223,1.289-0.425,1.921-0.594
									c0.631-0.169,1.29-0.308,1.968-0.409c0.681-0.097,1.34-0.091,1.982-0.139c0.644-0.044,1.268,0.048,1.867,0.078
									c0.6,0.03,1.173,0.094,1.718,0.197c0.539,0.1,1.049,0.133,1.522,0.303L-465.47,74.818z"/>
							</g>
							<g id="g13950" transform="translate(512.1025,82.0446)">
								<path id="path13952" inkscape:connector-curvature="0" fill="none" stroke="#918F90" stroke-width="0.5" d="M-465.47,74.817
									L-465.47,74.817 M-463.106,78.114l1.06-3.164 M-464.127,77.84l0.772-3.117 M-465.241,77.642l0.164-3.039 M-466.491,77.664
									l-0.033-3.033 M-467.733,77.695l-0.609-2.911 M-468.965,77.914l-0.814-2.773 M-470.222,78.306l-1.388-2.597"/>
							</g>
							<g id="g13954" transform="translate(524.7266,85.6219)">
								<path id="path13956" inkscape:connector-curvature="0" fill="#FFFFFF" d="M-465.47,74.818
									c0.24-0.133,0.733-0.25,1.029-0.348c0.298-0.098,0.617-0.175,0.958-0.234c0.341-0.056,0.702-0.092,1.081-0.109
									c0.376-0.014,0.77-0.113,1.177-0.083c0.406,0.028,0.828-0.047,1.259,0.012c0.426,0.059,0.84,0.141,1.24,0.234
									c0.4,0.1,0.889,0.217,1.25,0.348c0.36,0.133,0.697,0.283,1.017,0.442l1.637-2.434c-0.339-0.166-0.69-0.322-1.055-0.469
									c-0.573-0.223-1.291-0.425-1.923-0.592c-0.63-0.169-1.289-0.308-1.966-0.409c-0.68-0.098-1.339-0.091-1.984-0.139
									c-0.641-0.044-1.268,0.048-1.868,0.077c-0.597,0.03-1.17,0.094-1.713,0.197c-0.544,0.1-1.052,0.133-1.523,0.303
									L-465.47,74.818z"/>
							</g>
							<g id="g13958" transform="translate(524.7266,85.6219)">
								
									<path id="path13960" inkscape:connector-curvature="0" fill="none" stroke="#918F90" stroke-width="0.5" stroke-linejoin="round" d="
									M-465.47,74.818c0.24-0.133,0.733-0.25,1.029-0.348c0.298-0.098,0.617-0.175,0.958-0.234
									c0.341-0.056,0.702-0.092,1.081-0.109c0.376-0.014,0.77-0.113,1.177-0.083c0.406,0.028,0.828-0.047,1.259,0.012
									c0.426,0.059,0.84,0.141,1.24,0.234c0.4,0.1,0.889,0.217,1.25,0.348c0.36,0.133,0.697,0.283,1.017,0.442l1.637-2.434
									c-0.339-0.166-0.69-0.322-1.055-0.469c-0.573-0.223-1.291-0.425-1.923-0.592c-0.63-0.169-1.289-0.308-1.966-0.409
									c-0.68-0.098-1.339-0.091-1.984-0.139c-0.641-0.044-1.268,0.048-1.868,0.077c-0.597,0.03-1.17,0.094-1.713,0.197
									c-0.544,0.1-1.052,0.133-1.523,0.303L-465.47,74.818z"/>
							</g>
							<g id="g13962" transform="translate(528.0829,82.0446)">
								<path id="path13964" inkscape:connector-curvature="0" fill="none" stroke="#918F90" stroke-width="0.5" d="M-465.47,74.817
									L-465.47,74.817 M-467.832,78.114l-1.064-3.164 M-466.811,77.84l-0.772-3.117 M-465.695,77.642l-0.168-3.039
									 M-464.449,77.664l0.035-3.033 M-463.203,77.695l0.607-2.911 M-461.971,77.914l0.811-2.773 M-460.718,78.306l1.39-2.597"/>
							</g>
							<g id="g13966" transform="translate(524.8637,81.8851)">
								<path id="path13968" inkscape:connector-curvature="0" fill="#FFFFFF" d="M-465.47,74.817
									c-0.418,0.078-0.806,0.13-1.185,0.222c-1.046-0.602-2.25-0.95-3.535-0.95c-1.302,0-2.52,0.356-3.572,0.964
									c-0.391-0.103-0.808-0.155-1.246-0.236c-0.478-0.087-0.99-0.139-1.51-0.17c1.411-1.761,3.681-2.911,6.252-2.911
									c2.573,0,4.848,1.15,6.257,2.912C-464.515,74.682-465.009,74.732-465.47,74.817"/>
							</g>
							<g id="g13970" transform="translate(524.8637,81.8851)">
								<path id="path13972" inkscape:connector-curvature="0" fill="none" stroke="#918F90" stroke-linejoin="round" d="
									M-465.47,74.817c-0.418,0.078-0.806,0.13-1.185,0.222c-1.046-0.602-2.25-0.95-3.535-0.95c-1.302,0-2.52,0.356-3.572,0.964
									c-0.391-0.103-0.808-0.155-1.246-0.236c-0.478-0.087-0.99-0.139-1.51-0.17c1.411-1.761,3.681-2.911,6.252-2.911
									c2.573,0,4.848,1.15,6.257,2.912C-464.515,74.682-465.009,74.732-465.47,74.817z"/>
							</g>
							<g id="g13974" transform="translate(510.332,138.571)">
								<path id="path13976" inkscape:connector-curvature="0" fill="#FFFFFF" d="M-465.47,74.817l-0.151-0.111
									c0.171-0.117,0.347-0.233,0.505-0.378c0.942-0.859,1.414-1.988,1.414-3.114c0-0.006-0.003-0.013-0.003-0.022l0.003-0.003
									l-0.003-0.002c-0.007-1.119-0.478-2.234-1.411-3.088c-0.941-0.859-2.176-1.291-3.408-1.291c-0.253,0-0.502,0.03-0.751,0.066
									c-2.491-2.453-4.188-5.58-4.741-9.05c0.66-0.647,1.073-1.506,1.073-2.458c0-0.947-0.406-1.8-1.06-2.445
									c0.583-3.672,2.464-6.944,5.188-9.463c1.128-0.064,2.236-0.475,3.1-1.262c0.943-0.861,1.413-1.989,1.413-3.116
									c0-1.127-0.47-2.256-1.413-3.116c-0.569-0.52-1.254-0.866-1.97-1.069c-1.982-0.978-3.331-2.875-3.331-5.075
									c0-2.214,1.359-4.136,3.357-5.105l0.105,0.186c0.288-0.159,0.602-0.298,0.925-0.411c0.324-0.113,0.667-0.197,1.021-0.256
									c0.352-0.059,0.717-0.092,1.091-0.092c0.379,0,0.743,0.033,1.098,0.092c0.19,0.03,0.364,0.091,0.545,0.137
									c-0.012,0.195-0.03,0.392-0.03,0.592c0,4.066,3.243,7.361,7.248,7.361c3.995,0,7.241-3.295,7.241-7.361
									c0-0.2-0.018-0.397-0.032-0.592c0.182-0.047,0.357-0.109,0.548-0.137c0.355-0.059,0.72-0.092,1.095-0.092
									c0.379,0,0.741,0.033,1.095,0.092c0.352,0.059,0.695,0.145,1.02,0.256c0.327,0.113,0.638,0.252,0.927,0.411l0.055-0.106
									c1.91,0.997,3.202,2.872,3.202,5.027c0,2.2-1.352,4.095-3.327,5.075c-0.721,0.203-1.405,0.548-1.973,1.069
									c-0.945,0.858-1.414,1.988-1.414,3.116c0,1.127,0.47,2.253,1.414,3.116c0.934,0.852,2.155,1.28,3.377,1.287
									c2.655,2.467,4.505,5.659,5.124,9.239c-0.78,0.663-1.27,1.595-1.27,2.642c0,1.05,0.494,1.986,1.282,2.65
									c-0.584,3.383-2.262,6.436-4.695,8.839c-0.271-0.042-0.541-0.07-0.812-0.07c-1.235,0-2.467,0.428-3.412,1.288
									c-0.943,0.861-1.411,1.991-1.411,3.116c0,1.128,0.468,2.255,1.411,3.116c0.17,0.153,0.359,0.28,0.546,0.405l-0.153,0.109
									c-2.852,1.077-6.207,1.709-9.818,1.709C-459.255,76.529-462.616,75.897-465.47,74.817"/>
							</g>
							<g id="g13978" transform="translate(510.332,138.571)">
								<path id="path13980" inkscape:connector-curvature="0" fill="none" stroke="#918F90" stroke-linejoin="round" d="
									M-465.47,74.817l-0.151-0.111c0.171-0.117,0.347-0.233,0.505-0.378c0.942-0.859,1.414-1.988,1.414-3.114
									c0-0.006-0.003-0.013-0.003-0.022l0.003-0.003l-0.003-0.002c-0.007-1.119-0.478-2.234-1.411-3.088
									c-0.941-0.859-2.176-1.291-3.408-1.291c-0.253,0-0.502,0.03-0.751,0.066c-2.491-2.453-4.188-5.58-4.741-9.05
									c0.66-0.647,1.073-1.506,1.073-2.458c0-0.947-0.406-1.8-1.06-2.445c0.583-3.672,2.464-6.944,5.188-9.463
									c1.128-0.064,2.236-0.475,3.1-1.262c0.943-0.861,1.413-1.989,1.413-3.116c0-1.127-0.47-2.256-1.413-3.116
									c-0.569-0.52-1.254-0.866-1.97-1.069c-1.982-0.978-3.331-2.875-3.331-5.075c0-2.214,1.359-4.136,3.357-5.105l0.105,0.186
									c0.288-0.159,0.602-0.298,0.925-0.411c0.324-0.113,0.667-0.197,1.021-0.256c0.352-0.059,0.717-0.092,1.091-0.092
									c0.379,0,0.743,0.033,1.098,0.092c0.19,0.03,0.364,0.091,0.545,0.137c-0.012,0.195-0.03,0.392-0.03,0.592
									c0,4.066,3.243,7.361,7.248,7.361c3.995,0,7.241-3.295,7.241-7.361c0-0.2-0.018-0.397-0.032-0.592
									c0.182-0.047,0.357-0.109,0.548-0.137c0.355-0.059,0.72-0.092,1.095-0.092c0.379,0,0.741,0.033,1.095,0.092
									c0.352,0.059,0.695,0.145,1.02,0.256c0.327,0.113,0.638,0.252,0.927,0.411l0.055-0.106c1.91,0.997,3.202,2.872,3.202,5.027
									c0,2.2-1.352,4.095-3.327,5.075c-0.721,0.203-1.405,0.548-1.973,1.069c-0.945,0.858-1.414,1.988-1.414,3.116
									c0,1.127,0.47,2.253,1.414,3.116c0.934,0.852,2.155,1.28,3.377,1.287c2.655,2.467,4.505,5.659,5.124,9.239
									c-0.78,0.663-1.27,1.595-1.27,2.642c0,1.05,0.494,1.986,1.282,2.65c-0.584,3.383-2.262,6.436-4.695,8.839
									c-0.271-0.042-0.541-0.07-0.812-0.07c-1.235,0-2.467,0.428-3.412,1.288c-0.943,0.861-1.411,1.991-1.411,3.116
									c0,1.128,0.468,2.255,1.411,3.116c0.17,0.153,0.359,0.28,0.546,0.405l-0.153,0.109c-2.852,1.077-6.207,1.709-9.818,1.709
									C-459.255,76.529-462.616,75.897-465.47,74.817z"/>
							</g>
							<g id="g13982" transform="translate(508.6414,185.6942)">
								<path id="path13984" inkscape:connector-curvature="0" fill="none" stroke="#918F90" stroke-width="0.5" d="M-465.47,74.817
									l1.403-0.023c0-2.692,1.759-6.003,1.759-6.003s-0.097-1.77,0.528-2.972c0.626-1.203,2.202-2.3,2.202-2.3l-1.033-10.517
									l1.873-0.458l-3.52-14.598h-12.832v-1.298h-2.627v7.113h-1.425v3.309h1.441v3.891h-10.444 M-480.171,64.898v11.491h-8.11
									V57.141h9.977L-480.171,64.898z M-442.514,74.794l-1.402-0.022c0-2.67-1.761-6.006-1.761-6.006s0.184-1.217-0.418-2.772
									c-0.601-1.553-2.311-2.502-2.311-2.502l1.036-10.516l-1.881-0.458l3.523-14.597h12.833v-1.298h2.63v7.111h1.424v3.309
									h-1.442v3.891h10.445 M-427.903,64.836v11.677h6.801V50.923h-10.477L-427.903,64.836z"/>
							</g>
							<g id="g13986" transform="translate(519.9774,497.6386)">
								<path id="path13988" inkscape:connector-curvature="0" fill="#FFFFFF" d="M-465.47,74.817c-1.618,0-2.937,1.12-3.11,2.556
									c-3.123-0.609-4.843-1.907-4.843-1.907h-3.021V60.298c0-2.493,2.309-6.004,6.221-7.693c0.015,0.129,0.055,0.248,0.081,0.371
									c-3.14,1.812-5.277,5.252-5.277,9.213l-0.002,2.2c0.638,0.583,1.336,0.798,2.382,0.798c0.911,0,1.805-0.141,2.468-0.741
									v-2.241v-0.002c0-1.259,1.023-3.27,1.734-3.632l-1.473-1.613c0.614-0.518,1.328-0.938,2.107-1.252
									c0.774,0.498,1.705,0.802,2.727,0.802c1.005,0,1.925-0.295,2.692-0.775c0.754,0.312,1.449,0.722,2.049,1.227l-1.474,1.613
									c0.711,0.362,1.738,2.374,1.738,3.632l0.002,0.003v2.24c0.655,0.6,1.552,0.741,2.464,0.741c1.05,0,1.745-0.216,2.384-0.798
									v-2.2c0-3.927-2.102-7.341-5.198-9.167c0.041-0.181,0.088-0.363,0.105-0.551c4.43,1.738,6.341,5.734,6.341,7.826v15.168
									h-2.833c0,0-1.828,1.384-5.152,1.966C-462.501,75.969-463.83,74.817-465.47,74.817"/>
							</g>
							<g id="g13990" transform="translate(519.9774,497.6386)">
								<path id="path13992" inkscape:connector-curvature="0" fill="none" stroke="#918F90" stroke-linejoin="round" d="
									M-465.47,74.817c-1.618,0-2.937,1.12-3.11,2.556c-3.123-0.609-4.843-1.907-4.843-1.907h-3.021V60.298
									c0-2.493,2.309-6.004,6.221-7.693c0.015,0.129,0.055,0.248,0.081,0.371c-3.14,1.812-5.277,5.252-5.277,9.213l-0.002,2.2
									c0.638,0.583,1.336,0.798,2.382,0.798c0.911,0,1.805-0.141,2.468-0.741v-2.241v-0.002c0-1.259,1.023-3.27,1.734-3.632
									l-1.473-1.613c0.614-0.518,1.328-0.938,2.107-1.252c0.774,0.498,1.705,0.802,2.727,0.802c1.005,0,1.925-0.295,2.692-0.775
									c0.754,0.312,1.449,0.722,2.049,1.227l-1.474,1.613c0.711,0.362,1.738,2.374,1.738,3.632l0.002,0.003v2.24
									c0.655,0.6,1.552,0.741,2.464,0.741c1.05,0,1.745-0.216,2.384-0.798v-2.2c0-3.927-2.102-7.341-5.198-9.167
									c0.041-0.181,0.088-0.363,0.105-0.551c4.43,1.738,6.341,5.734,6.341,7.826v15.168h-2.833c0,0-1.828,1.384-5.152,1.966
									C-462.501,75.969-463.83,74.817-465.47,74.817z"/>
							</g>
							<g id="g13994" transform="translate(517.2545,478.5116)">
								<path id="path13996" inkscape:connector-curvature="0" fill="#FFFFFF" d="M-465.47,74.817
									c-2.748,1.101-4.629,3.59-4.629,6.499h-2.6c0-3.952,2.13-7.388,5.257-9.205L-465.47,74.817z"/>
							</g>
							<g id="g13998" transform="translate(517.2545,478.5116)">
								
									<path id="path14000" inkscape:connector-curvature="0" fill="none" stroke="#918F90" stroke-width="0.5" stroke-linejoin="round" d="
									M-465.47,74.817c-2.748,1.101-4.629,3.59-4.629,6.499h-2.6c0-3.952,2.13-7.388,5.257-9.205L-465.47,74.817z"/>
							</g>
							<g id="g14002" transform="translate(510.0258,485.0104)">
								<path id="path14004" inkscape:connector-curvature="0" fill="#FFFFFF" d="M-465.47,74.817v2.2
									c0.638,0.584,1.336,0.8,2.382,0.8c0.91,0,1.806-0.141,2.468-0.741v-2.241v-0.002c0-1.259,1.024-3.27,1.734-3.631
									l-1.62-1.772c-1.542,1.353-2.51,3.266-2.51,5.391L-465.47,74.817z"/>
							</g>
							<g id="g14006" transform="translate(510.0258,485.0104)">
								
									<path id="path14008" inkscape:connector-curvature="0" fill="none" stroke="#918F90" stroke-width="0.5" stroke-linejoin="round" d="
									M-465.47,74.817v2.2c0.638,0.584,1.336,0.8,2.382,0.8c0.91,0,1.806-0.141,2.468-0.741v-2.241v-0.002
									c0-1.259,1.024-3.27,1.734-3.631l-1.62-1.772c-1.542,1.353-2.51,3.266-2.51,5.391L-465.47,74.817z"/>
							</g>
							<g id="g14010" transform="translate(514.8757,485.0258)">
								
									<path id="path14012" inkscape:connector-curvature="0" fill="#FFFFFF" stroke="#918F90" stroke-width="0.5" stroke-linejoin="round" d="
									M-465.47,74.817l-4.85-0.015"/>
							</g>
							<g id="g14014" transform="translate(514.9135,484.3559)">
								
									<path id="path14016" inkscape:connector-curvature="0" fill="#FFFFFF" stroke="#918F90" stroke-width="0.5" stroke-linejoin="round" d="
									M-465.47,74.818l-4.79-0.641"/>
							</g>
							<g id="g14018" transform="translate(515.0616,483.721)">
								
									<path id="path14020" inkscape:connector-curvature="0" fill="#FFFFFF" stroke="#918F90" stroke-width="0.5" stroke-linejoin="round" d="
									M-465.47,74.817l-4.634-1.254"/>
							</g>
							<g id="g14022" transform="translate(515.3149,483.1126)">
								
									<path id="path14024" inkscape:connector-curvature="0" fill="#FFFFFF" stroke="#918F90" stroke-width="0.5" stroke-linejoin="round" d="
									M-465.47,74.817l-4.664-1.92"/>
							</g>
							<g id="g14026" transform="translate(515.6575,482.5421)">
								
									<path id="path14028" inkscape:connector-curvature="0" fill="#FFFFFF" stroke="#918F90" stroke-width="0.5" stroke-linejoin="round" d="
									M-465.47,74.817l-4.391-2.607"/>
							</g>
							<g id="g14030" transform="translate(516.0867,482.0246)">
								
									<path id="path14032" inkscape:connector-curvature="0" fill="#FFFFFF" stroke="#918F90" stroke-width="0.5" stroke-linejoin="round" d="
									M-465.47,74.818l-4.201-3.281"/>
							</g>
							<g id="g14034" transform="translate(516.0784,480.8149)">
								
									<path id="path14036" inkscape:connector-curvature="0" fill="#FFFFFF" stroke="#918F90" stroke-width="0.5" stroke-linejoin="round" d="
									M-465.47,74.817l-3.165-3.341"/>
							</g>
							<g id="g14038" transform="translate(516.1231,479.12)">
								
									<path id="path14040" inkscape:connector-curvature="0" fill="#FFFFFF" stroke="#918F90" stroke-width="0.5" stroke-linejoin="round" d="
									M-465.47,74.817l-2.091-2.611"/>
							</g>
							<g id="g14042" transform="translate(522.6555,478.5341)">
								<path id="path14044" inkscape:connector-curvature="0" fill="#FFFFFF" d="M-465.47,74.817
									c2.712,1.112,4.569,3.587,4.569,6.476h2.602c0-3.966-2.145-7.412-5.291-9.223L-465.47,74.817z"/>
							</g>
							<g id="g14046" transform="translate(522.6555,478.5341)">
								
									<path id="path14048" inkscape:connector-curvature="0" fill="none" stroke="#918F90" stroke-width="0.5" stroke-linejoin="round" d="
									M-465.47,74.817c2.712,1.112,4.569,3.587,4.569,6.476h2.602c0-3.966-2.145-7.412-5.291-9.223L-465.47,74.817z"/>
							</g>
							<g id="g14050" transform="translate(529.8255,485.0104)">
								<path id="path14052" inkscape:connector-curvature="0" fill="#FFFFFF" d="M-465.47,74.817v2.2
									c-0.638,0.584-1.334,0.8-2.384,0.8c-0.912,0-1.809-0.141-2.464-0.741v-2.241l-0.002-0.002c0-1.259-1.027-3.27-1.738-3.631
									l1.62-1.772c1.548,1.353,2.515,3.266,2.515,5.391L-465.47,74.817z"/>
							</g>
							<g id="g14054" transform="translate(529.8255,485.0104)">
								
									<path id="path14056" inkscape:connector-curvature="0" fill="none" stroke="#918F90" stroke-width="0.5" stroke-linejoin="round" d="
									M-465.47,74.817v2.2c-0.638,0.584-1.334,0.8-2.384,0.8c-0.912,0-1.809-0.141-2.464-0.741v-2.241l-0.002-0.002
									c0-1.259-1.027-3.27-1.738-3.631l1.62-1.772c1.548,1.353,2.515,3.266,2.515,5.391L-465.47,74.817z"/>
							</g>
							<g id="g14058" transform="translate(524.9755,485.0258)">
								
									<path id="path14060" inkscape:connector-curvature="0" fill="#FFFFFF" stroke="#918F90" stroke-width="0.5" stroke-linejoin="round" d="
									M-465.47,74.817l4.85-0.015"/>
							</g>
							<g id="g14062" transform="translate(524.9405,484.3559)">
								
									<path id="path14064" inkscape:connector-curvature="0" fill="#FFFFFF" stroke="#918F90" stroke-width="0.5" stroke-linejoin="round" d="
									M-465.47,74.818l4.784-0.641"/>
							</g>
							<g id="g14066" transform="translate(524.7867,483.721)">
								
									<path id="path14068" inkscape:connector-curvature="0" fill="#FFFFFF" stroke="#918F90" stroke-width="0.5" stroke-linejoin="round" d="
									M-465.47,74.817l4.635-1.254"/>
							</g>
							<g id="g14070" transform="translate(524.535,483.1126)">
								
									<path id="path14072" inkscape:connector-curvature="0" fill="#FFFFFF" stroke="#918F90" stroke-width="0.5" stroke-linejoin="round" d="
									M-465.47,74.817l4.668-1.92"/>
							</g>
							<g id="g14074" transform="translate(524.1923,482.5421)">
								
									<path id="path14076" inkscape:connector-curvature="0" fill="#FFFFFF" stroke="#918F90" stroke-width="0.5" stroke-linejoin="round" d="
									M-465.47,74.817l4.391-2.607"/>
							</g>
							<g id="g14078" transform="translate(523.7631,482.0246)">
								
									<path id="path14080" inkscape:connector-curvature="0" fill="#FFFFFF" stroke="#918F90" stroke-width="0.5" stroke-linejoin="round" d="
									M-465.47,74.818l4.201-3.281"/>
							</g>
							<g id="g14082" transform="translate(523.7742,480.8149)">
								
									<path id="path14084" inkscape:connector-curvature="0" fill="#FFFFFF" stroke="#918F90" stroke-width="0.5" stroke-linejoin="round" d="
									M-465.47,74.817l3.163-3.341"/>
							</g>
							<g id="g14086" transform="translate(523.8511,478.9885)">
								
									<path id="path14088" inkscape:connector-curvature="0" fill="#FFFFFF" stroke="#918F90" stroke-width="0.5" stroke-linejoin="round" d="
									M-465.47,74.817l1.966-2.379"/>
							</g>
							<path id="path14090" inkscape:connector-curvature="0" fill="#FFFFFF" stroke="#918F90" stroke-width="0.5" d="
								M72.939,556.463h5.619v14.929h-5.619V556.463z"/>
							<path id="path14092" inkscape:connector-curvature="0" fill="#FFFFFF" stroke="#918F90" stroke-width="0.5" d="
								M30.681,556.527h5.62v14.927h-5.62V556.527z"/>
							<path id="path14094" inkscape:connector-curvature="0" fill="#FFFFFF" stroke="#918F90" stroke-width="0.5" d="
								M69.744,588.13h4.717v-0.992h-4.717V588.13z"/>
							<path id="path14096" inkscape:connector-curvature="0" fill="#FFFFFF" stroke="#918F90" stroke-width="0.5" d="
								M69.744,587.138h4.717v-0.993h-4.717V587.138z"/>
							<path id="path14098" inkscape:connector-curvature="0" fill="#FFFFFF" stroke="#918F90" stroke-width="0.5" d="
								M69.744,586.145h4.717v-0.993h-4.717V586.145z"/>
							<path id="path14100" inkscape:connector-curvature="0" fill="#FFFFFF" stroke="#918F90" stroke-width="0.5" d="
								M66.206,588.13h3.538v-0.992h-3.538V588.13z"/>
							<path id="path14102" inkscape:connector-curvature="0" fill="#FFFFFF" stroke="#918F90" stroke-width="0.5" d="
								M66.206,587.138h3.538v-0.993h-3.538V587.138z"/>
							<path id="path14104" inkscape:connector-curvature="0" fill="#FFFFFF" stroke="#918F90" stroke-width="0.5" d="
								M66.206,586.145h3.538v-0.993h-3.538V586.145z"/>
							<path id="path14106" inkscape:connector-curvature="0" fill="#FFFFFF" stroke="#918F90" stroke-width="0.5" d="
								M69.744,585.152h4.717v-0.993h-4.717V585.152z"/>
							<path id="path14108" inkscape:connector-curvature="0" fill="#FFFFFF" stroke="#918F90" stroke-width="0.5" d="
								M66.206,585.152h3.538v-0.993h-3.538V585.152z"/>
							<path id="path14110" inkscape:connector-curvature="0" fill="#FFFFFF" stroke="#918F90" stroke-width="0.5" d="
								M69.744,584.16h4.717v-0.992h-4.717V584.16z"/>
							<path id="path14112" inkscape:connector-curvature="0" fill="#FFFFFF" stroke="#918F90" stroke-width="0.5" d="
								M66.206,584.16h3.538v-0.992h-3.538V584.16z"/>
							<path id="path14114" inkscape:connector-curvature="0" fill="#FFFFFF" stroke="#918F90" stroke-width="0.5" d="
								M69.744,583.168h4.717v-0.993h-4.717V583.168z"/>
							<path id="path14116" inkscape:connector-curvature="0" fill="#FFFFFF" stroke="#918F90" stroke-width="0.5" d="
								M66.206,583.168h3.538v-0.993h-3.538V583.168z"/>
							<path id="path14118" inkscape:connector-curvature="0" fill="#FFFFFF" stroke="#918F90" stroke-width="0.5" d="
								M74.461,588.13h3.542v-0.992h-3.542V588.13z"/>
							<path id="path14120" inkscape:connector-curvature="0" fill="#FFFFFF" stroke="#918F90" stroke-width="0.5" d="
								M74.461,587.138h3.542v-0.993h-3.542V587.138z"/>
							<path id="path14122" inkscape:connector-curvature="0" fill="#FFFFFF" stroke="#918F90" stroke-width="0.5" d="
								M74.461,586.145h3.542v-0.993h-3.542V586.145z"/>
							<path id="path14124" inkscape:connector-curvature="0" fill="#FFFFFF" stroke="#918F90" stroke-width="0.5" d="
								M74.461,585.152h3.542v-0.993h-3.542V585.152z"/>
							<path id="path14126" inkscape:connector-curvature="0" fill="#FFFFFF" stroke="#918F90" stroke-width="0.5" d="
								M74.461,584.16h3.542v-0.992h-3.542V584.16z"/>
							<path id="path14128" inkscape:connector-curvature="0" fill="#FFFFFF" stroke="#918F90" stroke-width="0.5" d="
								M74.461,583.168h3.542v-0.993h-3.542V583.168z"/>
							<path id="path14130" inkscape:connector-curvature="0" fill="#FFFFFF" stroke="#918F90" stroke-width="0.5" d="
								M66.206,588.117h11.798v2.927H66.206V588.117z"/>
							<path id="path14132" inkscape:connector-curvature="0" fill="#FFFFFF" stroke="#918F90" stroke-width="0.5" d="
								M34.864,588.13h4.712v-0.992h-4.712V588.13z"/>
							<path id="path14134" inkscape:connector-curvature="0" fill="#FFFFFF" stroke="#918F90" stroke-width="0.5" d="
								M34.864,587.138h4.712v-0.993h-4.712V587.138z"/>
							<path id="path14136" inkscape:connector-curvature="0" fill="#FFFFFF" stroke="#918F90" stroke-width="0.5" d="
								M34.864,586.145h4.712v-0.993h-4.712V586.145z"/>
							<path id="path14138" inkscape:connector-curvature="0" fill="#FFFFFF" stroke="#918F90" stroke-width="0.5" d="
								M31.322,588.13h3.542v-0.992h-3.542V588.13z"/>
							<path id="path14140" inkscape:connector-curvature="0" fill="#FFFFFF" stroke="#918F90" stroke-width="0.5" d="
								M31.322,587.138h3.542v-0.993h-3.542V587.138z"/>
							<path id="path14142" inkscape:connector-curvature="0" fill="#FFFFFF" stroke="#918F90" stroke-width="0.5" d="
								M31.322,586.145h3.542v-0.993h-3.542V586.145z"/>
							<path id="path14144" inkscape:connector-curvature="0" fill="#FFFFFF" stroke="#918F90" stroke-width="0.5" d="
								M34.864,585.152h4.712v-0.993h-4.712V585.152z"/>
							<path id="path14146" inkscape:connector-curvature="0" fill="#FFFFFF" stroke="#918F90" stroke-width="0.5" d="
								M31.322,585.152h3.542v-0.993h-3.542V585.152z"/>
							<path id="path14148" inkscape:connector-curvature="0" fill="#FFFFFF" stroke="#918F90" stroke-width="0.5" d="
								M34.864,584.16h4.712v-0.992h-4.712V584.16z"/>
							<path id="path14150" inkscape:connector-curvature="0" fill="#FFFFFF" stroke="#918F90" stroke-width="0.5" d="
								M31.322,584.16h3.542v-0.992h-3.542V584.16z"/>
							<path id="path14152" inkscape:connector-curvature="0" fill="#FFFFFF" stroke="#918F90" stroke-width="0.5" d="
								M34.864,583.168h4.712v-0.993h-4.712V583.168z"/>
							<path id="path14154" inkscape:connector-curvature="0" fill="#FFFFFF" stroke="#918F90" stroke-width="0.5" d="
								M31.322,583.168h3.542v-0.993h-3.542V583.168z"/>
							<path id="path14156" inkscape:connector-curvature="0" fill="#FFFFFF" stroke="#918F90" stroke-width="0.5" d="
								M39.576,588.13h3.542v-0.992h-3.542V588.13z"/>
							<path id="path14158" inkscape:connector-curvature="0" fill="#FFFFFF" stroke="#918F90" stroke-width="0.5" d="
								M39.576,587.138h3.542v-0.993h-3.542V587.138z"/>
							<path id="path14160" inkscape:connector-curvature="0" fill="#FFFFFF" stroke="#918F90" stroke-width="0.5" d="
								M39.576,586.145h3.542v-0.993h-3.542V586.145z"/>
							<path id="path14162" inkscape:connector-curvature="0" fill="#FFFFFF" stroke="#918F90" stroke-width="0.5" d="
								M39.576,585.152h3.542v-0.993h-3.542V585.152z"/>
							<path id="path14164" inkscape:connector-curvature="0" fill="#FFFFFF" stroke="#918F90" stroke-width="0.5" d="
								M39.576,584.16h3.542v-0.992h-3.542V584.16z"/>
							<path id="path14166" inkscape:connector-curvature="0" fill="#FFFFFF" stroke="#918F90" stroke-width="0.5" d="
								M39.576,583.168h3.542v-0.993h-3.542V583.168z"/>
							<path id="path14168" inkscape:connector-curvature="0" fill="#FFFFFF" d="M31.322,588.117h11.796v2.927H31.322V588.117z"/>
							<path id="path14170" inkscape:connector-curvature="0" fill="none" stroke="#918F90" stroke-width="0.5" d="M31.322,588.117
								h11.796v2.927H31.322V588.117z M89.12,573.088H79.11v18.328h10.01V573.088z M30.2,573.464h-9.888v17.952H30.2V573.464z
								 M79.109,573.464V556.51h1.251v-4.142h-7.695v3.264"/>
							<g id="g14172" transform="translate(524.0762,385.952)">
								
									<path id="path14174" inkscape:connector-curvature="0" fill="none" stroke="#918F90" stroke-width="0.5" stroke-linejoin="round" d="
									M-465.47,74.817c1.03,1.147,1.63,2.73,1.63,4.345c0,1.828-0.753,3.52-2.112,4.764l2.334,2.131
									c4.195-3.836,3.873-9.973,0.391-13.475L-465.47,74.817z M-465.951,83.926l2.335,2.131 M-465.194,83.026l2.673,1.766
									 M-464.603,82.03l2.947,1.352 M-464.195,80.955l3.147,0.908 M-463.975,79.837l3.263,0.439 M-463.955,78.701l3.298-0.039
									 M-464.132,77.578l3.246-0.52 M-464.506,76.495l3.12-0.986 M-465.059,75.476l2.905-1.422"/>
							</g>
							<g id="g14176" transform="translate(525.7068,390.2971)">
								<path id="path14178" inkscape:connector-curvature="0" fill="none" stroke="#918F90" stroke-linejoin="round" d="
									M-465.47,74.817c0,1.777-0.702,3.387-1.85,4.573c-0.855-1.298-1.345-2.734-1.345-4.253c0-1.661,0.58-3.227,1.596-4.617
									C-466.073,71.677-465.47,73.175-465.47,74.817z M-464.712,67.88c1.845,1.737,3.156,4.191,3.156,6.917
									c0,2.789-0.995,5.191-3.513,7.3"/>
							</g>
							<g id="g14180" transform="translate(517.1188,282.2185)">
								
									<path id="path14182" inkscape:connector-curvature="0" fill="none" stroke="#918F90" stroke-width="0.5" stroke-linejoin="round" d="
									M-465.47,74.818c-1.029-1.147-1.631-2.734-1.631-4.345c0-1.833,0.753-3.522,2.109-4.766l-2.332-2.131
									c-4.196,3.836-3.877,9.975-0.389,13.477L-465.47,74.818z M-464.992,65.707l-2.332-2.131 M-465.748,66.608l-2.673-1.766
									 M-466.34,67.605l-2.945-1.355 M-466.745,68.679l-3.147-0.908 M-466.966,69.797l-3.262-0.441 M-466.983,70.932l-3.301,0.041
									 M-466.808,72.055l-3.248,0.52 M-466.434,73.14l-3.118,0.983 M-465.882,74.157l-2.902,1.425"/>
							</g>
							<g id="g14184" transform="translate(515.4882,277.8748)">
								<path id="path14186" inkscape:connector-curvature="0" fill="none" stroke="#918F90" stroke-linejoin="round" d="
									M-465.47,74.818c0-1.778,0.705-3.389,1.849-4.573c0.855,1.295,1.344,2.733,1.344,4.252c0,1.661-0.582,3.227-1.6,4.617
									C-464.866,77.958-465.47,76.46-465.47,74.818z M-466.228,81.754c-1.845-1.739-3.159-4.192-3.159-6.917
									c0-2.789,0.993-5.191,3.514-7.3"/>
							</g>
							<g id="g14188" transform="translate(498.1232,232.9879)">
								
									<path id="path14190" inkscape:connector-curvature="0" fill="none" stroke="#918F90" stroke-width="0.5" stroke-linejoin="round" d="
									M-465.47,74.817c0.23-0.045,0.47-0.069,0.712-0.069c1.871,0,3.52,1.388,3.52,3.095c0,0.536-0.167,1.041-0.434,1.48
									c1.575,0.267,2.769,1.525,2.769,3.037c0,0.78-0.312,1.486-0.832,2.03l0.402,0.572c0.284-0.069,0.581-0.108,0.89-0.108
									c1.872,0,3.386,1.388,3.386,3.094c0,0.342-0.073,0.662-0.186,0.97c1.091,0.517,1.838,1.541,1.838,2.736
									c0,0.972-0.491,1.93-1.258,2.5l0.894-0.033v17.203h-3.437v-10.923h-15.941v12.931h4.534v1.759h-9.176 M-464.758,70.173
									c1.871,0,3.52-1.386,3.52-3.094c0-0.572-0.184-1.1-0.478-1.559c1.826-0.047,3.294-1.408,3.294-3.088
									c0-1.109-0.642-2.07-1.601-2.619c0.36-0.491,0.571-1.078,0.571-1.713c0-1.711-1.515-3.097-3.388-3.097
									c-0.362,0-0.704,0.07-1.03,0.166c-0.439,1.248-1.263,2.159-2.775,2.159c-1.188,0-2.332-0.606-2.935-1.456
									c-0.081-0.005,0.042,0.055,0,0c-0.605-0.822-3.684-1.405-4.853-1.405c-1.871,0-3.385,1.386-3.385,3.094v5.228
									c0,1.711,1.514,3.097,3.385,3.097v0.903c-1.871,0-3.385,1.386-3.385,3.095V75.1c0,1.708,1.514,3.094,3.385,3.094v0.842
									c-1.871,0-3.385,1.383-3.385,3.095v5.273h6.32l1.375-1.258l-0.755-2.886c0,0,2.062-0.628,2.68-0.378
									c0.618,0.253,4.054,1.13,4.743,3.83c0.688,2.7,0.962,2.827-0.343,4.081c-0.959,0.919-2.021,0.753-3.987,0.753v1.444
									c0,0.378,0,1.134,1.785,1.134c1.79,0,11.338,0.03,11.338,0.03"/>
							</g>
							<g id="g14192" transform="translate(502.9383,223.6517)">
								<path id="path14194" inkscape:connector-curvature="0" fill="#FFFFFF" d="M-465.47,74.817c0,0.473-0.42,0.856-0.938,0.856
									c-0.522,0-0.94-0.383-0.94-0.856c0-0.477,0.418-0.861,0.94-0.861C-465.89,73.956-465.47,74.341-465.47,74.817"/>
							</g>
							<g id="g14196" transform="translate(502.9383,223.6517)">
								<path id="path14198" inkscape:connector-curvature="0" fill="none" stroke="#918F90" stroke-width="0.5" d="M-465.47,74.817
									c0,0.473-0.42,0.856-0.938,0.856c-0.522,0-0.94-0.383-0.94-0.856c0-0.477,0.418-0.861,0.94-0.861
									C-465.89,73.956-465.47,74.341-465.47,74.817z"/>
							</g>
							<g id="g14200" transform="translate(504.4864,217.8242)">
								<path id="path14202" inkscape:connector-curvature="0" fill="#FFFFFF" d="M-465.47,74.817c0,0.475-0.421,0.859-0.938,0.859
									c-0.523,0-0.941-0.384-0.941-0.859c0-0.475,0.418-0.859,0.941-0.859C-465.891,73.957-465.47,74.343-465.47,74.817"/>
							</g>
							<g id="g14204" transform="translate(504.4864,217.8242)">
								<path id="path14206" inkscape:connector-curvature="0" fill="none" stroke="#918F90" stroke-width="0.5" d="M-465.47,74.817
									c0,0.475-0.421,0.859-0.938,0.859c-0.523,0-0.941-0.384-0.941-0.859c0-0.475,0.418-0.859,0.941-0.859
									C-465.891,73.957-465.47,74.343-465.47,74.817z"/>
							</g>
							<g id="g14208" transform="translate(502.9061,237.7259)">
								<path id="path14210" inkscape:connector-curvature="0" fill="#FFFFFF" d="M-465.47,74.817c0,0.473-0.419,0.858-0.938,0.858
									c-0.519,0-0.94-0.384-0.94-0.858c0-0.473,0.421-0.856,0.94-0.856C-465.889,73.96-465.47,74.343-465.47,74.817"/>
							</g>
							<g id="g14212" transform="translate(502.9061,237.7259)">
								<path id="path14214" inkscape:connector-curvature="0" fill="none" stroke="#918F90" stroke-width="0.5" d="M-465.47,74.817
									c0,0.473-0.419,0.858-0.938,0.858c-0.519,0-0.94-0.384-0.94-0.858c0-0.473,0.421-0.856,0.94-0.856
									C-465.889,73.96-465.47,74.343-465.47,74.817z"/>
							</g>
							<g id="g14216" transform="translate(498.7429,233.2704)">
								<path id="path14218" inkscape:connector-curvature="0" fill="#FFFFFF" d="M-465.47,74.817c0,0.266-0.236,0.48-0.529,0.48
									c-0.288,0-0.527-0.214-0.527-0.48c0-0.269,0.239-0.486,0.527-0.486C-465.706,74.332-465.47,74.549-465.47,74.817"/>
							</g>
							<g id="g14220" transform="translate(498.7429,233.2704)">
								<path id="path14222" inkscape:connector-curvature="0" fill="none" stroke="#918F90" stroke-width="0.5" d="M-465.47,74.817
									c0,0.266-0.236,0.48-0.529,0.48c-0.288,0-0.527-0.214-0.527-0.48c0-0.269,0.239-0.486,0.527-0.486
									C-465.706,74.332-465.47,74.549-465.47,74.817z"/>
							</g>
							<g id="g14224" transform="translate(498.8814,228.1058)">
								<path id="path14226" inkscape:connector-curvature="0" fill="#FFFFFF" d="M-465.47,74.816c0,0.264-0.236,0.484-0.527,0.484
									c-0.293,0-0.528-0.22-0.528-0.484c0-0.266,0.235-0.481,0.528-0.481C-465.706,74.335-465.47,74.551-465.47,74.816"/>
							</g>
							<g id="g14228" transform="translate(498.8814,228.1058)">
								<path id="path14230" inkscape:connector-curvature="0" fill="none" stroke="#918F90" stroke-width="0.5" d="M-465.47,74.816
									c0,0.264-0.236,0.484-0.527,0.484c-0.293,0-0.528-0.22-0.528-0.484c0-0.266,0.235-0.481,0.528-0.481
									C-465.706,74.335-465.47,74.551-465.47,74.816z"/>
							</g>
							<g id="g14232" transform="translate(505.2653,242.7073)">
								<path id="path14234" inkscape:connector-curvature="0" fill="#FFFFFF" d="M-465.47,74.816c0,0.475-0.421,0.859-0.938,0.859
									c-0.521,0-0.943-0.384-0.943-0.859c0-0.472,0.422-0.858,0.944-0.858C-465.891,73.957-465.47,74.343-465.47,74.816"/>
							</g>
							<g id="g14236" transform="translate(505.2653,242.7073)">
								<path id="path14238" inkscape:connector-curvature="0" fill="none" stroke="#918F90" stroke-width="0.5" d="M-465.47,74.816
									c0,0.475-0.421,0.859-0.938,0.859c-0.521,0-0.943-0.384-0.943-0.859c0-0.472,0.422-0.858,0.944-0.858
									C-465.891,73.957-465.47,74.343-465.47,74.816z"/>
							</g>
							<g id="g14240" transform="translate(509.1111,246.5378)">
								<path id="path14242" inkscape:connector-curvature="0" fill="#FFFFFF" d="M-465.47,74.817c0,0.473-0.42,0.856-0.934,0.856
									c-0.523,0-0.943-0.383-0.943-0.856c0-0.477,0.42-0.859,0.943-0.859C-465.89,73.958-465.47,74.341-465.47,74.817"/>
							</g>
							<g id="g14244" transform="translate(509.1111,246.5378)">
								<path id="path14246" inkscape:connector-curvature="0" fill="none" stroke="#918F90" stroke-width="0.5" d="M-465.47,74.817
									c0,0.473-0.42,0.856-0.934,0.856c-0.523,0-0.943-0.383-0.943-0.856c0-0.477,0.42-0.859,0.943-0.859
									C-465.89,73.958-465.47,74.341-465.47,74.817z M-477.268,513.268l1.241-1.133v-4.137h4.288
									c2.006-6.939,8.904-12.063,17.13-12.063c8.223,0,15.121,5.124,17.128,12.063h4.334v3.641l1.441,1.319"/>
							</g>
							
								<path id="path14248" inkscape:connector-curvature="0" fill="#FFFFFF" stroke="#918F90" stroke-width="0.5" stroke-linecap="round" stroke-linejoin="round" d="
								M33.084,754.535h2.461v-0.992h-2.461V754.535z"/>
							
								<path id="path14250" inkscape:connector-curvature="0" fill="#FFFFFF" stroke="#918F90" stroke-width="0.5" stroke-linecap="round" stroke-linejoin="round" d="
								M33.084,753.543h2.461v-0.992h-2.461V753.543z"/>
							
								<path id="path14252" inkscape:connector-curvature="0" fill="#FFFFFF" stroke="#918F90" stroke-width="0.5" stroke-linecap="round" stroke-linejoin="round" d="
								M33.084,752.551h2.461v-0.992h-2.461V752.551z"/>
							
								<path id="path14254" inkscape:connector-curvature="0" fill="#FFFFFF" stroke="#918F90" stroke-width="0.5" stroke-linecap="round" stroke-linejoin="round" d="
								M33.084,751.559h2.461v-0.992h-2.461V751.559z"/>
							
								<path id="path14256" inkscape:connector-curvature="0" fill="#FFFFFF" stroke="#918F90" stroke-width="0.5" stroke-linecap="round" stroke-linejoin="round" d="
								M33.084,750.567h2.461v-0.994h-2.461V750.567z"/>
							
								<path id="path14258" inkscape:connector-curvature="0" fill="#FFFFFF" stroke="#918F90" stroke-width="0.5" stroke-linecap="round" stroke-linejoin="round" d="
								M73.501,754.535h2.463v-0.992h-2.463V754.535z"/>
							
								<path id="path14260" inkscape:connector-curvature="0" fill="#FFFFFF" stroke="#918F90" stroke-width="0.5" stroke-linecap="round" stroke-linejoin="round" d="
								M73.501,753.543h2.463v-0.992h-2.463V753.543z"/>
							
								<path id="path14262" inkscape:connector-curvature="0" fill="#FFFFFF" stroke="#918F90" stroke-width="0.5" stroke-linecap="round" stroke-linejoin="round" d="
								M73.501,752.551h2.463v-0.992h-2.463V752.551z"/>
							
								<path id="path14264" inkscape:connector-curvature="0" fill="#FFFFFF" stroke="#918F90" stroke-width="0.5" stroke-linecap="round" stroke-linejoin="round" d="
								M73.501,751.559h2.463v-0.992h-2.463V751.559z"/>
							
								<path id="path14266" inkscape:connector-curvature="0" fill="#FFFFFF" stroke="#918F90" stroke-width="0.5" stroke-linecap="round" stroke-linejoin="round" d="
								M73.501,750.567h2.463v-0.994h-2.463V750.567z"/>
							<g id="g14268" transform="translate(485.586,78.8966)">
								<path id="path14270" inkscape:connector-curvature="0" fill="none" stroke="#918F90" d="M-465.47,74.818
									c8.42-10.983,14.262-12.825,34.418-12.825c19.058,0,26.605,2.078,34.816,12.223"/>
							</g>
							<g id="g14272" transform="translate(548.8713,584.7023)">
								<path id="path14274" inkscape:connector-curvature="0" fill="none" stroke="#918F90" stroke-width="0.5" d="M-465.47,74.817
									v3.097h-56.923v-2.636h-6.156 M-465.47,74.777h5.499l-5.499,0.04V74.777z M-528.566,38.82h5.798l7.028-5.686h11.722V6.714
									h-24.54 M-459.752,7.157h-24.971v25.791h13.12v3.909h5.558v1.952h6.311 M-512.571-28.177c0,0,0.423-4.475,1.459-5.42
									c4.784-4.37,3.486-14.763,3.486-17.499 M-473.597-299.171c-2.153,0-2.403,3.591,1.1,3.591h4.947v4.403
									c-0.32-0.528-0.657-1.048-1.02-1.556c-0.758-1.058-1.679-1.594-3.375-0.581c-1.014,0.611-1.298,1.856-0.63,2.783
									c0.35,0.486,0.672,0.986,0.986,1.494c-0.288,0.106-0.493,0.364-0.493,0.666c0,0.4,0.352,0.723,0.791,0.723
									c0.16,0,0.302-0.055,0.427-0.13c0.154,0.289,0.305,0.58,0.446,0.875c-0.288,0.108-0.495,0.364-0.495,0.67
									c0,0.397,0.354,0.719,0.79,0.719c0.095,0,0.187-0.019,0.271-0.047c0.104,0.277,0.207,0.556,0.294,0.837
									c-0.341,0.078-0.602,0.348-0.602,0.688c0,0.398,0.354,0.723,0.791,0.723c0.063,0,0.12-0.02,0.18-0.034
									c0.07,0.347,0.125,0.697,0.164,1.05c-0.4,0.033-0.723,0.33-0.723,0.709c0,0.4,0.357,0.722,0.789,0.722
									c0.016,0,0.025-0.006,0.039-0.006v0.064c0,0.294-0.021,0.589-0.039,0.883c-0.432,0-0.789,0.325-0.789,0.722
									c0,0.352,0.278,0.628,0.637,0.695c-0.055,0.348-0.123,0.697-0.207,1.042c-0.014-0.002-0.034-0.011-0.052-0.011
									c-0.438,0-0.791,0.323-0.791,0.723c0,0.292,0.195,0.542,0.467,0.653c-0.092,0.288-0.188,0.567-0.295,0.847
									c-0.048-0.008-0.087-0.023-0.135-0.023c-0.436,0-0.79,0.32-0.79,0.719c0,0.255,0.148,0.466,0.365,0.597
									c-0.14,0.292-0.28,0.589-0.434,0.875c-0.098-0.036-0.2-0.059-0.309-0.059c-0.439,0-0.791,0.325-0.791,0.725
									c0,0.244,0.141,0.45,0.346,0.581c-0.239,0.364-0.489,0.722-0.755,1.075c-0.688,0.916-0.433,2.167,0.57,2.795
									c1.934,1.212,2.939,0.077,3.387-0.52c0.355-0.472,0.681-0.952,0.985-1.441v6.673h-4.122
									c-2.748,2.138-11.652,4.616-11.652,4.616l-0.027,15.695h10.588v-5.788h13.023"/>
							</g>
						</g>
					</g>
				</g>
			</g>
			<text transform="matrix(0.8 0 0 -0.8 43.4416 639.7238)" fill="#231F20" font-family="'ArialNarrow-Bold'" font-size="6.6427">P</text>
			<text transform="matrix(0.8 0 0 -0.8 46.3963 639.7238)" fill="#231F20" font-family="'ArialNarrow-Bold'" font-size="6.6427">Y</text>
			<text transform="matrix(0.8 0 0 -0.8 49.351 639.7238)" fill="#231F20" font-family="'ArialNarrow-Bold'" font-size="6.6427">R</text>
			<text transform="matrix(0.8 0 0 -0.8 52.3057 639.7238)" fill="#231F20" font-family="'ArialNarrow-Bold'" font-size="6.6427">A</text>
			<text transform="matrix(0.8 0 0 -0.8 55.5526 639.7238)" fill="#231F20" font-family="'ArialNarrow-Bold'" font-size="6.6427">M</text>
			<text transform="matrix(0.8 0 0 -0.8 59.9791 639.7238)" fill="#231F20" font-family="'ArialNarrow-Bold'" font-size="6.6427">I</text>
			<text transform="matrix(0.8 0 0 -0.8 61.4565 639.7238)" fill="#231F20" font-family="'ArialNarrow-Bold'" font-size="6.6427">D</text>
			<text transform="matrix(0.8 0 0 -0.8 44.919 634.298)" fill="#231F20" font-family="'ArialNarrow-Bold'" font-size="6.6427">L</text>
			<text transform="matrix(0.8 0 0 -0.8 47.2783 634.298)" fill="#231F20" font-family="'ArialNarrow-Bold'" font-size="6.6427">O</text>
			<text transform="matrix(0.8 0 0 -0.8 50.5252 634.298)" fill="#231F20" font-family="'ArialNarrow-Bold'" font-size="6.6427">U</text>
			<text transform="matrix(0.8 0 0 -0.8 53.7721 634.298)" fill="#231F20" font-family="'ArialNarrow-Bold'" font-size="6.6427">N</text>
			<text transform="matrix(0.8 0 0 -0.8 57.3166 634.298)" fill="#231F20" font-family="'ArialNarrow-Bold'" font-size="6.6427">G</text>
			<text transform="matrix(0.8 0 0 -0.8 60.5643 634.298)" fill="#231F20" font-family="'ArialNarrow-Bold'" font-size="6.6427">E</text>
			<text transform="matrix(0.8 0 0 -0.8 32.308 367.8863)" fill="#231F20" font-family="'ArialNarrow-Bold'" font-size="6.6427">C</text>
			<text transform="matrix(0.8 0 0 -0.8 35.2627 367.8863)" fill="#231F20" font-family="'ArialNarrow-Bold'" font-size="6.6427">A</text>
			<text transform="matrix(0.8 0 0 -0.8 38.5104 367.8863)" fill="#231F20" font-family="'ArialNarrow-Bold'" font-size="6.6427">F</text>
			<text transform="matrix(0.8 0 0 -0.8 40.8697 367.8863)" fill="#231F20" font-family="'ArialNarrow-Bold'" font-size="6.6427"></text>
			<text transform="matrix(0.8 0 0 -0.8 23.4494 362.4605)" fill="#231F20" font-family="'ArialNarrow-Bold'" font-size="6.6427">P</text>
			<text transform="matrix(0.8 0 0 -0.8 26.4041 362.4605)" fill="#231F20" font-family="'ArialNarrow-Bold'" font-size="6.6427">R</text>
			<text transform="matrix(0.8 0 0 -0.8 29.3588 362.4605)" fill="#231F20" font-family="'ArialNarrow-Bold'" font-size="6.6427">O</text>
			<text transform="matrix(0.8 0 0 -0.8 32.6057 362.4605)" fill="#231F20" font-family="'ArialNarrow-Bold'" font-size="6.6427">M</text>
			<text transform="matrix(0.8 0 0 -0.8 37.033 362.4605)" fill="#231F20" font-family="'ArialNarrow-Bold'" font-size="6.6427">E</text>
			<text transform="matrix(0.8 0 0 -0.8 39.69 362.4605)" fill="#231F20" font-family="'ArialNarrow-Bold'" font-size="6.6427">N</text>
			<text transform="matrix(0.8 0 0 -0.8 43.2346 362.4605)" fill="#231F20" font-family="'ArialNarrow-Bold'" font-size="6.6427">A</text>
			<text transform="matrix(0.8 0 0 -0.8 46.4815 362.4605)" fill="#231F20" font-family="'ArialNarrow-Bold'" font-size="6.6427">D</text>
			<text transform="matrix(0.8 0 0 -0.8 49.7283 362.4605)" fill="#231F20" font-family="'ArialNarrow-Bold'" font-size="6.6427">E</text>
			<text transform="matrix(0.8 0 0 -0.8 42.6713 194.205)" fill="#231F20" font-family="'ArialNarrow-Bold'" font-size="6.7782">K</text>
			<text transform="matrix(0.8 0 0 -0.8 45.6861 194.205)" fill="#231F20" font-family="'ArialNarrow-Bold'" font-size="6.7782">I</text>
			<text transform="matrix(0.8 0 0 -0.8 47.1932 194.205)" fill="#231F20" font-family="'ArialNarrow-Bold'" font-size="6.7782">N</text>
			<text transform="matrix(0.8 0 0 -0.8 50.8104 194.205)" fill="#231F20" font-family="'ArialNarrow-Bold'" font-size="6.7782">G</text>
			<text transform="matrix(0.8 0 0 -0.8 54.1236 194.205)" fill="#231F20" font-family="'ArialNarrow-Bold'" font-size="6.7782"> </text>
			<text transform="matrix(0.8 0 0 -0.8 55.3276 194.205)" fill="#231F20" font-family="'ArialNarrow-Bold'" font-size="6.7782">L</text>
			<text transform="matrix(0.8 0 0 -0.8 57.7354 194.205)" fill="#231F20" font-family="'ArialNarrow-Bold'" font-size="6.7782">E</text>
			<text transform="matrix(0.8 0 0 -0.8 60.4463 194.205)" fill="#231F20" font-family="'ArialNarrow-Bold'" font-size="6.7782">A</text>
			<text transform="matrix(0.8 0 0 -0.8 63.7596 194.205)" fill="#231F20" font-family="'ArialNarrow-Bold'" font-size="6.7782">R</text>
			<text transform="matrix(0.8 0 0 -0.8 38.6041 188.7824)" fill="#231F20" font-family="'ArialNarrow-Bold'" font-size="6.7782">D</text>
			<text transform="matrix(0.8 0 0 -0.8 41.9174 188.7824)" fill="#231F20" font-family="'ArialNarrow-Bold'" font-size="6.7782">I</text>
			<text transform="matrix(0.8 0 0 -0.8 43.4244 188.7824)" fill="#231F20" font-family="'ArialNarrow-Bold'" font-size="6.7782">N</text>
			<text transform="matrix(0.8 0 0 -0.8 47.0416 188.7824)" fill="#231F20" font-family="'ArialNarrow-Bold'" font-size="6.7782">I</text>
			<text transform="matrix(0.8 0 0 -0.8 48.5494 188.7824)" fill="#231F20" font-family="'ArialNarrow-Bold'" font-size="6.7782">N</text>
			<text transform="matrix(0.8 0 0 -0.8 52.1658 188.7824)" fill="#231F20" font-family="'ArialNarrow-Bold'" font-size="6.7782">G</text>
			<text transform="matrix(0.8 0 0 -0.8 55.4791 188.7824)" fill="#231F20" font-family="'ArialNarrow-Bold'" font-size="6.7782"> </text>
			<text transform="matrix(0.8 0 0 -0.8 56.683 188.7824)" fill="#231F20" font-family="'ArialNarrow-Bold'" font-size="6.7782">R</text>
			<text transform="matrix(0.8 0 0 -0.8 59.6979 188.7824)" fill="#231F20" font-family="'ArialNarrow-Bold'" font-size="6.7782">O</text>
			<text transform="matrix(0.8 0 0 -0.8 63.0112 188.7824)" fill="#231F20" font-family="'ArialNarrow-Bold'" font-size="6.7782">O</text>
			<text transform="matrix(0.8 0 0 -0.8 66.3244 188.7824)" fill="#231F20" font-family="'ArialNarrow-Bold'" font-size="6.7782">M</text>
			<text transform="matrix(0.8 0 0 -0.8 26.9729 339.7683)" fill="#231F20" font-family="'ArialNarrow-Bold'" font-size="6.6427">N</text>
			<text transform="matrix(0.8 0 0 -0.8 30.5182 339.7683)" fill="#231F20" font-family="'ArialNarrow-Bold'" font-size="6.6427">E</text>
			<text transform="matrix(0.8 0 0 -0.8 33.1752 339.7683)" fill="#231F20" font-family="'ArialNarrow-Bold'" font-size="6.6427">X</text>
			<text transform="matrix(0.8 0 0 -0.8 36.1299 339.7683)" fill="#231F20" font-family="'ArialNarrow-Bold'" font-size="6.6427">T</text>
			<text transform="matrix(0.8 0 0 -0.8 24.7572 334.3426)" fill="#231F20" font-family="'ArialNarrow-Bold'" font-size="6.6427">C</text>
			<text transform="matrix(0.8 0 0 -0.8 27.7119 334.3426)" fill="#231F20" font-family="'ArialNarrow-Bold'" font-size="6.6427">R</text>
			<text transform="matrix(0.8 0 0 -0.8 30.6666 334.3426)" fill="#231F20" font-family="'ArialNarrow-Bold'" font-size="6.6427">U</text>
			<text transform="matrix(0.8 0 0 -0.8 33.9135 334.3426)" fill="#231F20" font-family="'ArialNarrow-Bold'" font-size="6.6427">I</text>
			<text transform="matrix(0.8 0 0 -0.8 35.3908 334.3426)" fill="#231F20" font-family="'ArialNarrow-Bold'" font-size="6.6427">S</text>
			<text transform="matrix(0.8 0 0 -0.8 38.3455 334.3426)" fill="#231F20" font-family="'ArialNarrow-Bold'" font-size="6.6427">E</text>
			<text transform="matrix(0.8 0 0 -0.8 23.0088 486.1371)" fill="#231F20" font-family="'ArialNarrow-Bold'" font-size="6.6427">D</text>
			<text transform="matrix(0.8 0 0 -0.8 26.2557 486.1371)" fill="#231F20" font-family="'ArialNarrow-Bold'" font-size="6.6427">O</text>
			<text transform="matrix(0.8 0 0 -0.8 29.5025 486.1371)" fill="#231F20" font-family="'ArialNarrow-Bold'" font-size="6.6427">G</text>
			<text transform="matrix(0.8 0 0 -0.8 32.7494 486.1371)" fill="#231F20" font-family="'ArialNarrow-Bold'" font-size="6.6427"> </text>
			<text transform="matrix(0.8 0 0 -0.8 33.9291 486.1371)" fill="#231F20" font-family="'ArialNarrow-Bold'" font-size="6.6427">&amp;</text>
			<text transform="matrix(0.8 0 0 -0.8 37.4744 486.1371)" fill="#231F20" font-family="'ArialNarrow-Bold'" font-size="6.6427"> </text>
			<text transform="matrix(0.8 0 0 -0.8 38.6541 486.1371)" fill="#231F20" font-family="'ArialNarrow-Bold'" font-size="6.6427">B</text>
			<text transform="matrix(0.8 0 0 -0.8 41.901 486.1371)" fill="#231F20" font-family="'ArialNarrow-Bold'" font-size="6.6427">A</text>
			<text transform="matrix(0.8 0 0 -0.8 45.1479 486.1371)" fill="#231F20" font-family="'ArialNarrow-Bold'" font-size="6.6427">D</text>
			<text transform="matrix(0.8 0 0 -0.8 48.3947 486.1371)" fill="#231F20" font-family="'ArialNarrow-Bold'" font-size="6.6427">G</text>
			<text transform="matrix(0.8 0 0 -0.8 51.6416 486.1371)" fill="#231F20" font-family="'ArialNarrow-Bold'" font-size="6.6427">E</text>
			<text transform="matrix(0.8 0 0 -0.8 54.2932 486.1371)" fill="#231F20" font-family="'ArialNarrow-Bold'" font-size="6.6427">R</text>
			<text transform="matrix(0.8 0 0 -0.8 35.4072 480.7168)" fill="#231F20" font-family="'ArialNarrow-Bold'" font-size="6.6427">P</text>
			<text transform="matrix(0.8 0 0 -0.8 38.3619 480.7168)" fill="#231F20" font-family="'ArialNarrow-Bold'" font-size="6.6427">U</text>
			<text transform="matrix(0.8 0 0 -0.8 41.6088 480.7168)" fill="#231F20" font-family="'ArialNarrow-Bold'" font-size="6.6427">B</text>
			<text transform="matrix(0.8 0 0 -0.8 58.6041 532.1441)" fill="#231F20" font-family="'ArialNarrow-Bold'" font-size="6.7782">S</text>
			<text transform="matrix(0.8 0 0 -0.8 61.619 532.1441)" fill="#231F20" font-family="'ArialNarrow-Bold'" font-size="6.7782">O</text>
			<text transform="matrix(0.8 0 0 -0.8 64.9322 532.1441)" fill="#231F20" font-family="'ArialNarrow-Bold'" font-size="6.7782">R</text>
			<text transform="matrix(0.8 0 0 -0.8 67.9471 532.1441)" fill="#231F20" font-family="'ArialNarrow-Bold'" font-size="6.7782">R</text>
			<text transform="matrix(0.8 0 0 -0.8 70.9619 532.1441)" fill="#231F20" font-family="'ArialNarrow-Bold'" font-size="6.7782">E</text>
			<text transform="matrix(0.8 0 0 -0.8 73.6736 532.1441)" fill="#231F20" font-family="'ArialNarrow-Bold'" font-size="6.7782">N</text>
			<text transform="matrix(0.8 0 0 -0.8 77.2901 532.1441)" fill="#231F20" font-family="'ArialNarrow-Bold'" font-size="6.7782">T</text>
			<text transform="matrix(0.8 0 0 -0.8 80.0018 532.1441)" fill="#231F20" font-family="'ArialNarrow-Bold'" font-size="6.7782">O</text>
			<text transform="matrix(0.8 0 0 -0.8 83.315 532.1441)" fill="#231F20" font-family="'ArialNarrow-Bold'" font-size="6.7782">&apos;</text>
			<text transform="matrix(0.8 0 0 -0.8 84.6705 532.1441)" fill="#231F20" font-family="'ArialNarrow-Bold'" font-size="6.7782">S</text>
			<text transform="matrix(0 0.8 0.8 0 55.6815 389.4426)" fill="#231F20" font-family="'ArialNarrow-Bold'" font-size="7.3336">R</text>
			<text transform="matrix(0 0.8 0.8 0 55.6815 392.705)" fill="#231F20" font-family="'ArialNarrow-Bold'" font-size="7.3336">O</text>
			<text transform="matrix(0 0.8 0.8 0 55.6815 396.2894)" fill="#231F20" font-family="'ArialNarrow-Bold'" font-size="7.3336">Y</text>
			<text transform="matrix(0 0.8 0.8 0 55.6815 399.5519)" fill="#231F20" font-family="'ArialNarrow-Bold'" font-size="7.3336">A</text>
			<text transform="matrix(0 0.8 0.8 0 55.6815 403.1363)" fill="#231F20" font-family="'ArialNarrow-Bold'" font-size="7.3336">L</text>
			<text transform="matrix(0 0.8 0.8 0 55.6815 405.7426)" fill="#231F20" font-family="'ArialNarrow-Bold'" font-size="7.3336"> </text>
			<text transform="matrix(0 0.8 0.8 0 55.6815 407.0457)" fill="#231F20" font-family="'ArialNarrow-Bold'" font-size="7.3336">P</text>
			<text transform="matrix(0 0.8 0.8 0 55.6815 410.3051)" fill="#231F20" font-family="'ArialNarrow-Bold'" font-size="7.3336">R</text>
			<text transform="matrix(0 0.8 0.8 0 55.6815 413.5676)" fill="#231F20" font-family="'ArialNarrow-Bold'" font-size="7.3336">O</text>
			<text transform="matrix(0 0.8 0.8 0 55.6815 417.1519)" fill="#231F20" font-family="'ArialNarrow-Bold'" font-size="7.3336">M</text>
			<text transform="matrix(0 0.8 0.8 0 55.6815 422.0394)" fill="#231F20" font-family="'ArialNarrow-Bold'" font-size="7.3336">E</text>
			<text transform="matrix(0 0.8 0.8 0 55.6815 424.9738)" fill="#231F20" font-family="'ArialNarrow-Bold'" font-size="7.3336">N</text>
			<text transform="matrix(0 0.8 0.8 0 55.6815 428.8863)" fill="#231F20" font-family="'ArialNarrow-Bold'" font-size="7.3336">A</text>
			<text transform="matrix(0 0.8 0.8 0 55.6815 432.4707)" fill="#231F20" font-family="'ArialNarrow-Bold'" font-size="7.3336">D</text>
			<text transform="matrix(0 0.8 0.8 0 55.6815 436.0551)" fill="#231F20" font-family="'ArialNarrow-Bold'" font-size="7.3336">E</text>
			<text transform="matrix(0.8 0 0 -0.8 55.4588 443.3519)" fill="#231F20" font-family="'ArialNarrow-Bold'" font-size="6.6427">V</text>
			<text transform="matrix(0.8 0 0 -0.8 58.4135 443.3519)" fill="#231F20" font-family="'ArialNarrow-Bold'" font-size="6.6427">I</text>
			<text transform="matrix(0.8 0 0 -0.8 59.8908 443.3519)" fill="#231F20" font-family="'ArialNarrow-Bold'" font-size="6.6427">N</text>
			<text transform="matrix(0.8 0 0 -0.8 63.4354 443.3519)" fill="#231F20" font-family="'ArialNarrow-Bold'" font-size="6.6427">T</text>
			<text transform="matrix(0.8 0 0 -0.8 66.0924 443.3519)" fill="#231F20" font-family="'ArialNarrow-Bold'" font-size="6.6427">A</text>
			<text transform="matrix(0.8 0 0 -0.8 69.3393 443.3519)" fill="#231F20" font-family="'ArialNarrow-Bold'" font-size="6.6427">G</text>
			<text transform="matrix(0.8 0 0 -0.8 72.5862 443.3519)" fill="#231F20" font-family="'ArialNarrow-Bold'" font-size="6.6427">E</text>
			<text transform="matrix(0.8 0 0 -0.8 75.2432 443.3519)" fill="#231F20" font-family="'ArialNarrow-Bold'" font-size="6.6427">S</text>
			<text transform="matrix(0.8 0 0 -0.8 64.2908 347.9574)" fill="#231F20" font-family="'ArialNarrow-Bold'" font-size="6.6427">S</text>
			<text transform="matrix(0.8 0 0 -0.8 67.2455 347.9574)" fill="#231F20" font-family="'ArialNarrow-Bold'" font-size="6.6427">E</text>
			<text transform="matrix(0.8 0 0 -0.8 69.9026 347.9574)" fill="#231F20" font-family="'ArialNarrow-Bold'" font-size="6.6427">A</text>
			<text transform="matrix(0.8 0 0 -0.8 73.1494 347.9574)" fill="#231F20" font-family="'ArialNarrow-Bold'" font-size="6.6427">S</text>
			<text transform="matrix(0.8 0 0 -0.8 76.1041 347.9574)" fill="#231F20" font-family="'ArialNarrow-Bold'" font-size="6.6427">O</text>
			<text transform="matrix(0.8 0 0 -0.8 79.3518 347.9574)" fill="#231F20" font-family="'ArialNarrow-Bold'" font-size="6.6427">N</text>
			<text transform="matrix(0.8 0 0 -0.8 82.8963 347.9574)" fill="#231F20" font-family="'ArialNarrow-Bold'" font-size="6.6427">S</text>
			<text transform="matrix(0.8 0 0 -0.8 56.1658 384.8324)" fill="#231F20" font-family="'ArialNarrow-Bold'" font-size="6.6427">I</text>
			<text transform="matrix(0.8 0 0 -0.8 57.6432 384.8324)" fill="#231F20" font-family="'ArialNarrow-Bold'" font-size="6.6427">C</text>
			<text transform="matrix(0.8 0 0 -0.8 60.5979 384.8324)" fill="#231F20" font-family="'ArialNarrow-Bold'" font-size="6.6427">E</text>
			<text transform="matrix(0.8 0 0 -0.8 63.2549 384.8324)" fill="#231F20" font-family="'ArialNarrow-Bold'" font-size="6.6427"> </text>
			<text transform="matrix(0.8 0 0 -0.8 64.4346 384.8324)" fill="#231F20" font-family="'ArialNarrow-Bold'" font-size="6.6427">C</text>
			<text transform="matrix(0.8 0 0 -0.8 67.3893 384.8324)" fill="#231F20" font-family="'ArialNarrow-Bold'" font-size="6.6427">R</text>
			<text transform="matrix(0.8 0 0 -0.8 70.344 384.8324)" fill="#231F20" font-family="'ArialNarrow-Bold'" font-size="6.6427">E</text>
			<text transform="matrix(0.8 0 0 -0.8 73.001 384.8324)" fill="#231F20" font-family="'ArialNarrow-Bold'" font-size="6.6427">A</text>
			<text transform="matrix(0.8 0 0 -0.8 76.2533 384.8324)" fill="#231F20" font-family="'ArialNarrow-Bold'" font-size="6.6427">M</text>
			<text transform="matrix(0.8 0 0 -0.8 59.5611 379.4066)" fill="#231F20" font-family="'ArialNarrow-Bold'" font-size="6.6427">P</text>
			<text transform="matrix(0.8 0 0 -0.8 62.5158 379.4066)" fill="#231F20" font-family="'ArialNarrow-Bold'" font-size="6.6427">A</text>
			<text transform="matrix(0.8 0 0 -0.8 65.7627 379.4066)" fill="#231F20" font-family="'ArialNarrow-Bold'" font-size="6.6427">R</text>
			<text transform="matrix(0.8 0 0 -0.8 68.7174 379.4066)" fill="#231F20" font-family="'ArialNarrow-Bold'" font-size="6.6427">L</text>
			<text transform="matrix(0.8 0 0 -0.8 71.0776 379.4066)" fill="#231F20" font-family="'ArialNarrow-Bold'" font-size="6.6427">O</text>
			<text transform="matrix(0.8 0 0 -0.8 74.3244 379.4066)" fill="#231F20" font-family="'ArialNarrow-Bold'" font-size="6.6427">R</text>
			<text transform="matrix(0 0.8 0.8 0 32.6135 270.7801)" fill="#231F20" font-family="'ArialNarrow-Bold'" font-size="6.6427">E</text>
			<text transform="matrix(0 0.8 0.8 0 32.6135 273.4363)" fill="#231F20" font-family="'ArialNarrow-Bold'" font-size="6.6427">L</text>
			<text transform="matrix(0 0.8 0.8 0 32.6135 275.7957)" fill="#231F20" font-family="'ArialNarrow-Bold'" font-size="6.6427">E</text>
			<text transform="matrix(0 0.8 0.8 0 32.6135 278.4519)" fill="#231F20" font-family="'ArialNarrow-Bold'" font-size="6.6427">V</text>
			<text transform="matrix(0 0.8 0.8 0 32.6135 281.0144)" fill="#231F20" font-family="'ArialNarrow-Bold'" font-size="6.6427">.</text>
			<text transform="matrix(0 0.8 0.8 0 79.9736 270.7801)" fill="#231F20" font-family="'ArialNarrow-Bold'" font-size="6.6427">E</text>
			<text transform="matrix(0 0.8 0.8 0 79.9736 273.4363)" fill="#231F20" font-family="'ArialNarrow-Bold'" font-size="6.6427">L</text>
			<text transform="matrix(0 0.8 0.8 0 79.9736 275.7957)" fill="#231F20" font-family="'ArialNarrow-Bold'" font-size="6.6427">E</text>
			<text transform="matrix(0 0.8 0.8 0 79.9736 278.4519)" fill="#231F20" font-family="'ArialNarrow-Bold'" font-size="6.6427">V</text>
			<text transform="matrix(0 0.8 0.8 0 79.9736 281.0144)" fill="#231F20" font-family="'ArialNarrow-Bold'" font-size="6.6427">.</text>
			<text transform="matrix(0 0.8 0.8 0 29.8815 289.7144)" fill="#231F20" font-family="'ArialNarrow-Bold'" font-size="6.6427">C</text>
			<text transform="matrix(0 0.8 0.8 0 29.8815 292.6675)" fill="#231F20" font-family="'ArialNarrow-Bold'" font-size="6.6427">H</text>
			<text transform="matrix(0 0.8 0.8 0 29.8815 295.9144)" fill="#231F20" font-family="'ArialNarrow-Bold'" font-size="6.6427">A</text>
			<text transform="matrix(0 0.8 0.8 0 29.8815 299.1613)" fill="#231F20" font-family="'ArialNarrow-Bold'" font-size="6.6427">M</text>
			<text transform="matrix(0 0.8 0.8 0 29.8815 303.5894)" fill="#231F20" font-family="'ArialNarrow-Bold'" font-size="6.6427">P</text>
			<text transform="matrix(0 0.8 0.8 0 29.8815 306.5457)" fill="#231F20" font-family="'ArialNarrow-Bold'" font-size="6.6427">A</text>
			<text transform="matrix(0 0.8 0.8 0 29.8815 309.7925)" fill="#231F20" font-family="'ArialNarrow-Bold'" font-size="6.6427">G</text>
			<text transform="matrix(0 0.8 0.8 0 29.8815 313.0394)" fill="#231F20" font-family="'ArialNarrow-Bold'" font-size="6.6427">N</text>
			<text transform="matrix(0 0.8 0.8 0 29.8815 316.5832)" fill="#231F20" font-family="'ArialNarrow-Bold'" font-size="6.6427">E</text>
			<text transform="matrix(0 0.8 0.8 0 35.3072 299.7519)" fill="#231F20" font-family="'ArialNarrow-Bold'" font-size="6.6427">B</text>
			<text transform="matrix(0 0.8 0.8 0 35.3072 302.9988)" fill="#231F20" font-family="'ArialNarrow-Bold'" font-size="6.6427">A</text>
			<text transform="matrix(0 0.8 0.8 0 35.3072 306.2457)" fill="#231F20" font-family="'ArialNarrow-Bold'" font-size="6.6427">R</text>
			<g id="g15514">
				<g>
					<g>
						<g id="g15516">
							<g id="g15560" transform="translate(493.7852,177.3578)">
								<path id="path15562" inkscape:connector-curvature="0" fill="#231F20" d="M-465.47,74.818h-0.306
									c0.295,0.122,0.502,0.413,0.502,0.753c0,0.452-0.365,0.817-0.816,0.817c-0.451,0-0.816-0.367-0.816-0.817
									c0-0.341,0.208-0.631,0.499-0.753h-0.317c-0.417,0-0.753-0.337-0.753-0.753v-1.883c0-0.528,0.292-0.747,0.726-0.831v-2.622
									h1.32v2.625c0.428,0.084,0.716,0.303,0.716,0.828v1.883C-464.715,74.48-465.05,74.818-465.47,74.818"/>
							</g>
							<g id="g15564" transform="translate(547.4813,172.8253)">
								<path id="path15566" inkscape:connector-curvature="0" fill="#231F20" d="M-465.47,74.817h0.502l-0.502,1.508h-0.566
									c0.296,0.123,0.502,0.412,0.502,0.752c0,0.45-0.365,0.817-0.816,0.817c-0.45,0-0.815-0.367-0.815-0.817
									c0-0.339,0.205-0.628,0.502-0.752h-0.565l-0.502-1.508h0.502l-0.502-2.008h0.703l0.27-2.573h0.816l0.268,2.573h0.705
									L-465.47,74.817z"/>
							</g>
							<g id="g15568" transform="translate(494.0748,509.6012)">
								<path id="path15570" inkscape:connector-curvature="0" fill="#231F20" d="M-465.47,74.818h-0.306
									c0.293,0.122,0.499,0.411,0.499,0.752c0,0.451-0.365,0.816-0.815,0.816c-0.452,0-0.816-0.366-0.816-0.816
									c0-0.341,0.21-0.63,0.502-0.752h-0.32c-0.415,0-0.754-0.341-0.754-0.755v-1.884c0-0.527,0.297-0.746,0.729-0.83v-2.623h1.32
									v2.625c0.427,0.086,0.715,0.305,0.715,0.829v1.884C-464.716,74.477-465.053,74.818-465.47,74.818"/>
							</g>
							<g id="g15572" transform="translate(547.6979,508.2391)">
								<path id="path15574" inkscape:connector-curvature="0" fill="#231F20" d="M-465.47,74.817h0.503l-0.503,1.508h-0.565
									c0.296,0.121,0.502,0.411,0.502,0.752c0,0.452-0.364,0.817-0.816,0.817c-0.451,0-0.815-0.366-0.815-0.817
									c0-0.341,0.207-0.631,0.5-0.752h-0.565l-0.502-1.508h0.502l-0.502-2.008h0.702l0.271-2.576h0.817l0.27,2.576h0.703
									L-465.47,74.817z"/>
							</g>
						</g>
					</g>
				</g>
			</g>
			<text transform="matrix(0 0.731 0.8 0 77.483 559.0879)" fill="#100F0D" font-family="'ArialNarrow-Bold'" font-size="6.1844">E</text>
			<text transform="matrix(0 0.731 0.8 0 77.483 561.3472)" fill="#100F0D" font-family="'ArialNarrow-Bold'" font-size="6.1844">L</text>
			<text transform="matrix(0 0.731 0.8 0 77.483 563.3535)" fill="#100F0D" font-family="'ArialNarrow-Bold'" font-size="6.1844">E</text>
			<text transform="matrix(0 0.731 0.8 0 77.483 565.6144)" fill="#100F0D" font-family="'ArialNarrow-Bold'" font-size="6.1844">V</text>
			<text transform="matrix(0 0.731 0.8 0 77.483 567.7941)" fill="#100F0D" font-family="'ArialNarrow-Bold'" font-size="6.1844">.</text>
			<text transform="matrix(0 0.731 0.8 0 35.2212 559.1504)" fill="#100F0D" font-family="'ArialNarrow-Bold'" font-size="6.1844">E</text>
			<text transform="matrix(0 0.731 0.8 0 35.2212 561.4097)" fill="#100F0D" font-family="'ArialNarrow-Bold'" font-size="6.1844">L</text>
			<text transform="matrix(0 0.731 0.8 0 35.2212 563.4175)" fill="#100F0D" font-family="'ArialNarrow-Bold'" font-size="6.1844">E</text>
			<text transform="matrix(0 0.731 0.8 0 35.2212 565.6785)" fill="#100F0D" font-family="'ArialNarrow-Bold'" font-size="6.1844">V</text>
			<text transform="matrix(0 0.731 0.8 0 35.2212 567.8566)" fill="#100F0D" font-family="'ArialNarrow-Bold'" font-size="6.1844">.</text>
			
				<text transform="matrix(0.8755 0 0 -0.8 59.1712 604.9082)" fill="#100F0D" font-family="'ArialNarrow-Bold'" font-size="5.6508">C</text>
			
				<text transform="matrix(0.8755 0 0 -0.8 61.7244 604.9082)" fill="#100F0D" font-family="'ArialNarrow-Bold'" font-size="5.6508">O</text>
			
				<text transform="matrix(0.8755 0 0 -0.8 64.5494 604.9082)" fill="#100F0D" font-family="'ArialNarrow-Bold'" font-size="5.6508">N</text>
			
				<text transform="matrix(0.8755 0 0 -0.8 67.6509 604.9082)" fill="#100F0D" font-family="'ArialNarrow-Bold'" font-size="5.6508">N</text>
			
				<text transform="matrix(0.8755 0 0 -0.8 70.7533 604.9082)" fill="#100F0D" font-family="'ArialNarrow-Bold'" font-size="5.6508">O</text>
			
				<text transform="matrix(0.8755 0 0 -0.8 73.5783 604.9082)" fill="#100F0D" font-family="'ArialNarrow-Bold'" font-size="5.6508">I</text>
			
				<text transform="matrix(0.8755 0 0 -0.8 74.7556 604.9082)" fill="#100F0D" font-family="'ArialNarrow-Bold'" font-size="5.6508">S</text>
			
				<text transform="matrix(0.8755 0 0 -0.8 77.3087 604.9082)" fill="#100F0D" font-family="'ArialNarrow-Bold'" font-size="5.6508">S</text>
			
				<text transform="matrix(0.8755 0 0 -0.8 79.8619 604.9082)" fill="#100F0D" font-family="'ArialNarrow-Bold'" font-size="5.6508">E</text>
			
				<text transform="matrix(0.8755 0 0 -0.8 82.1376 604.9082)" fill="#100F0D" font-family="'ArialNarrow-Bold'" font-size="5.6508">U</text>
			
				<text transform="matrix(0.8755 0 0 -0.8 84.9626 604.9082)" fill="#100F0D" font-family="'ArialNarrow-Bold'" font-size="5.6508">R</text>
			
				<text transform="matrix(0.8755 0 0 -0.8 67.9431 600.3871)" fill="#100F0D" font-family="'ArialNarrow-Bold'" font-size="5.6508">C</text>
			
				<text transform="matrix(0.8755 0 0 -0.8 70.6939 600.3871)" fill="#100F0D" font-family="'ArialNarrow-Bold'" font-size="5.6508">L</text>
			
				<text transform="matrix(0.8755 0 0 -0.8 72.8908 600.3871)" fill="#100F0D" font-family="'ArialNarrow-Bold'" font-size="5.6508">U</text>
			
				<text transform="matrix(0.8755 0 0 -0.8 75.9134 600.3871)" fill="#100F0D" font-family="'ArialNarrow-Bold'" font-size="5.6508">B</text>
			<text transform="matrix(0 0.8 0.8 0 73.8869 321.6269)" fill="#231F20" font-family="'ArialNarrow-Bold'" font-size="6.6427">S</text>
			<text transform="matrix(0 0.8 0.8 0 73.8869 324.5832)" fill="#231F20" font-family="'ArialNarrow-Bold'" font-size="6.6427">H</text>
			<text transform="matrix(0 0.8 0.8 0 73.8869 327.83)" fill="#231F20" font-family="'ArialNarrow-Bold'" font-size="6.6427">O</text>
			<text transform="matrix(0 0.8 0.8 0 73.8869 331.0769)" fill="#231F20" font-family="'ArialNarrow-Bold'" font-size="6.6427">R</text>
			<text transform="matrix(0 0.8 0.8 0 73.8869 334.0301)" fill="#231F20" font-family="'ArialNarrow-Bold'" font-size="6.6427">E</text>
			<text transform="matrix(0 0.8 0.8 0 79.3127 314.6801)" fill="#231F20" font-family="'ArialNarrow-Bold'" font-size="6.6427">E</text>
			<text transform="matrix(0 0.8 0.8 0 79.3127 317.3394)" fill="#231F20" font-family="'ArialNarrow-Bold'" font-size="6.6427">X</text>
			<text transform="matrix(0 0.8 0.8 0 79.3127 320.2925)" fill="#231F20" font-family="'ArialNarrow-Bold'" font-size="6.6427">C</text>
			<text transform="matrix(0 0.8 0.8 0 79.3127 323.2488)" fill="#231F20" font-family="'ArialNarrow-Bold'" font-size="6.6427">U</text>
			<text transform="matrix(0 0.8 0.8 0 79.3127 326.4957)" fill="#231F20" font-family="'ArialNarrow-Bold'" font-size="6.6427">R</text>
			<text transform="matrix(0 0.8 0.8 0 79.3127 329.4488)" fill="#231F20" font-family="'ArialNarrow-Bold'" font-size="6.6427">S</text>
			<text transform="matrix(0 0.8 0.8 0 79.3127 332.4051)" fill="#231F20" font-family="'ArialNarrow-Bold'" font-size="6.6427">I</text>
			<text transform="matrix(0 0.8 0.8 0 79.3127 333.8801)" fill="#231F20" font-family="'ArialNarrow-Bold'" font-size="6.6427">O</text>
			<text transform="matrix(0 0.8 0.8 0 79.3127 337.1269)" fill="#231F20" font-family="'ArialNarrow-Bold'" font-size="6.6427">N</text>
			<text transform="matrix(0 0.8 0.8 0 79.3127 340.6738)" fill="#231F20" font-family="'ArialNarrow-Bold'" font-size="6.6427">S</text>
			<text transform="matrix(0 0.8 0.8 0 80.2361 290.6019)" fill="#231F20" font-family="'ArialNarrow-Bold'" font-size="6.6427">G</text>
			<text transform="matrix(0 0.8 0.8 0 80.2361 293.8488)" fill="#231F20" font-family="'ArialNarrow-Bold'" font-size="6.6427">U</text>
			<text transform="matrix(0 0.8 0.8 0 80.2361 297.0957)" fill="#231F20" font-family="'ArialNarrow-Bold'" font-size="6.6427">E</text>
			<text transform="matrix(0 0.8 0.8 0 80.2361 299.7519)" fill="#231F20" font-family="'ArialNarrow-Bold'" font-size="6.6427">S</text>
			<text transform="matrix(0 0.8 0.8 0 80.2361 302.7082)" fill="#231F20" font-family="'ArialNarrow-Bold'" font-size="6.6427">T</text>
			<text transform="matrix(0 0.8 0.8 0 85.6626 287.2019)" fill="#231F20" font-family="'ArialNarrow-Bold'" font-size="6.6427">S</text>
			<text transform="matrix(0 0.8 0.8 0 85.6626 290.1551)" fill="#231F20" font-family="'ArialNarrow-Bold'" font-size="6.6427">E</text>
			<text transform="matrix(0 0.8 0.8 0 85.6626 292.8144)" fill="#231F20" font-family="'ArialNarrow-Bold'" font-size="6.6427">R</text>
			<text transform="matrix(0 0.8 0.8 0 85.6626 295.7675)" fill="#231F20" font-family="'ArialNarrow-Bold'" font-size="6.6427">V</text>
			<text transform="matrix(0 0.8 0.8 0 85.6626 298.7207)" fill="#231F20" font-family="'ArialNarrow-Bold'" font-size="6.6427">I</text>
			<text transform="matrix(0 0.8 0.8 0 85.6626 300.1988)" fill="#231F20" font-family="'ArialNarrow-Bold'" font-size="6.6427">C</text>
			<text transform="matrix(0 0.8 0.8 0 85.6626 303.1551)" fill="#231F20" font-family="'ArialNarrow-Bold'" font-size="6.6427">E</text>
			<text transform="matrix(0 0.8 0.8 0 85.6626 305.8113)" fill="#231F20" font-family="'ArialNarrow-Bold'" font-size="6.6427">S</text>
			<text transform="matrix(0.8 0 0 -0.8 60.7041 368.3363)" fill="#231F20" font-family="'ArialNarrow-Bold'" font-size="6.6427">C</text>
			<text transform="matrix(0.8 0 0 -0.8 63.6587 368.3363)" fill="#231F20" font-family="'ArialNarrow-Bold'" font-size="6.6427">U</text>
			<text transform="matrix(0.8 0 0 -0.8 66.9064 368.3363)" fill="#231F20" font-family="'ArialNarrow-Bold'" font-size="6.6427">P</text>
			<text transform="matrix(0.8 0 0 -0.8 69.8611 368.3363)" fill="#231F20" font-family="'ArialNarrow-Bold'" font-size="6.6427">C</text>
			<text transform="matrix(0.8 0 0 -0.8 72.8158 368.3363)" fill="#231F20" font-family="'ArialNarrow-Bold'" font-size="6.6427">A</text>
			<text transform="matrix(0.8 0 0 -0.8 76.0627 368.3363)" fill="#231F20" font-family="'ArialNarrow-Bold'" font-size="6.6427">K</text>
			<text transform="matrix(0.8 0 0 -0.8 79.0173 368.3363)" fill="#231F20" font-family="'ArialNarrow-Bold'" font-size="6.6427">E</text>
			<text transform="matrix(0.8 0 0 -0.8 58.6369 362.9105)" fill="#231F20" font-family="'ArialNarrow-Bold'" font-size="6.6427">C</text>
			<text transform="matrix(0.8 0 0 -0.8 61.5916 362.9105)" fill="#231F20" font-family="'ArialNarrow-Bold'" font-size="6.6427">U</text>
			<text transform="matrix(0.8 0 0 -0.8 64.8392 362.9105)" fill="#231F20" font-family="'ArialNarrow-Bold'" font-size="6.6427">P</text>
			<text transform="matrix(0.8 0 0 -0.8 67.7939 362.9105)" fill="#231F20" font-family="'ArialNarrow-Bold'" font-size="6.6427">B</text>
			<text transform="matrix(0.8 0 0 -0.8 71.0408 362.9105)" fill="#231F20" font-family="'ArialNarrow-Bold'" font-size="6.6427">O</text>
			<text transform="matrix(0.8 0 0 -0.8 74.2876 362.9105)" fill="#231F20" font-family="'ArialNarrow-Bold'" font-size="6.6427">A</text>
			<text transform="matrix(0.8 0 0 -0.8 77.5345 362.9105)" fill="#231F20" font-family="'ArialNarrow-Bold'" font-size="6.6427">R</text>
			<text transform="matrix(0.8 0 0 -0.8 80.4892 362.9105)" fill="#231F20" font-family="'ArialNarrow-Bold'" font-size="6.6427">D</text>
			<text transform="matrix(0 0.8 0.8 0 53.8166 496.5652)" fill="#231F20" font-family="'ArialNarrow-Bold'" font-size="7.3336">P</text>
			<text transform="matrix(0 0.8 0.8 0 53.8166 499.8262)" fill="#231F20" font-family="'ArialNarrow-Bold'" font-size="7.3336">R</text>
			<text transform="matrix(0 0.8 0.8 0 53.8166 503.0887)" fill="#231F20" font-family="'ArialNarrow-Bold'" font-size="7.3336">O</text>
			<text transform="matrix(0 0.8 0.8 0 53.8166 506.673)" fill="#231F20" font-family="'ArialNarrow-Bold'" font-size="7.3336">M</text>
			<text transform="matrix(0 0.8 0.8 0 53.8166 511.559)" fill="#231F20" font-family="'ArialNarrow-Bold'" font-size="7.3336">E</text>
			<text transform="matrix(0 0.8 0.8 0 53.8166 514.4933)" fill="#231F20" font-family="'ArialNarrow-Bold'" font-size="7.3336">N</text>
			<text transform="matrix(0 0.8 0.8 0 53.8166 518.4058)" fill="#231F20" font-family="'ArialNarrow-Bold'" font-size="7.3336">A</text>
			<text transform="matrix(0 0.8 0.8 0 53.8166 521.9918)" fill="#231F20" font-family="'ArialNarrow-Bold'" font-size="7.3336">D</text>
			<text transform="matrix(0 0.8 0.8 0 53.8166 525.5762)" fill="#231F20" font-family="'ArialNarrow-Bold'" font-size="7.3336">E</text>
			<text transform="matrix(0 0.8 0.8 0 53.8166 528.509)" fill="#231F20" font-family="'ArialNarrow-Bold'" font-size="7.3336"> </text>
			<text transform="matrix(0 0.8 0.8 0 53.8166 529.8121)" fill="#231F20" font-family="'ArialNarrow-Bold'" font-size="7.3336">S</text>
			<text transform="matrix(0 0.8 0.8 0 53.8166 533.0746)" fill="#231F20" font-family="'ArialNarrow-Bold'" font-size="7.3336">H</text>
			<text transform="matrix(0 0.8 0.8 0 53.8166 536.6589)" fill="#231F20" font-family="'ArialNarrow-Bold'" font-size="7.3336">O</text>
			<text transform="matrix(0 0.8 0.8 0 53.8166 540.2433)" fill="#231F20" font-family="'ArialNarrow-Bold'" font-size="7.3336">P</text>
			<text transform="matrix(0 0.8 0.8 0 53.8166 543.5059)" fill="#231F20" font-family="'ArialNarrow-Bold'" font-size="7.3336">S</text>
		</g>
	</g>
</g>
</svg>
