<?xml version="1.0" encoding="utf-8"?>
<!-- Generator: Adobe Illustrator 16.0.4, SVG Export Plug-In . SVG Version: 6.00 Build 0)  -->
<!DOCTYPE svg PUBLIC "-//W3C//DTD SVG 1.1//EN" "http://www.w3.org/Graphics/SVG/1.1/DTD/svg11.dtd">
<svg version="1.1"
	 id="svg2" xmlns:dc="http://purl.org/dc/elements/1.1/" xmlns:cc="http://creativecommons.org/ns#" xmlns:rdf="http://www.w3.org/1999/02/22-rdf-syntax-ns#" xmlns:svg="http://www.w3.org/2000/svg" xmlns:inkscape="http://www.inkscape.org/namespaces/inkscape"
	 xmlns="http://www.w3.org/2000/svg" xmlns:xlink="http://www.w3.org/1999/xlink" x="0px" y="0px" width="153.395px"
	 height="117.198px" viewBox="572.793 136.958 153.395 117.198" enable-background="new 572.793 136.958 153.395 117.198"
	 xml:space="preserve">
<g>
	<g>
		<g id="g10" transform="matrix(1.25,0,0,-1.25,0,990)">
			<g id="g13562">
				<g>
					<g id="g13564">
						<g id="g13570" transform="translate(458.6158,682.1679)">
							<path id="path13572" inkscape:connector-curvature="0" fill="#FFFFFF" d="M0,0l-0.137-93.26l121.969,0.172l0.163,62.906
								h-6.874H93.913H93.17v1.184v6.833l-3.179,0.019l0.018,5.557l0.018,6.893h-6.895H42.111v9.603L0,0z"/>
						</g>
						<g id="g13574" transform="translate(458.6158,682.1679)">
							<path id="path13576" inkscape:connector-curvature="0" fill="none" stroke="#918F90" stroke-width="0.843" d="M0,0
								l-0.137-93.26l121.969,0.172l0.163,62.906h-6.874H93.913H93.17v1.184v6.833l-3.179,0.019l0.018,5.557l0.018,6.893h-6.895
								H42.111v9.603L0,0z M83.133-16.571l-0.036-12.408l3.198-0.019V-46.65h7.618v9.593h21.208l-0.21-47.915L6.784-84.993
								L6.874-7.16h28.315v-9.411H83.133z"/>
						</g>
					</g>
				</g>
			</g>
			<g id="g13578">
				<g>
					<g id="g13580">
						<g id="g13586" transform="translate(529.0627,635.1346)">
							
								<path id="path13588" inkscape:connector-curvature="0" fill="none" stroke="#918F90" stroke-width="0.422" stroke-linejoin="round" d="
								M0,0h15.466v17.519h-3.199v12.18h-48.053V17.434h-2.199V0h15.095 M-18.789-0.968c-3.454,0.538-6.584,1.619-9.2,3.091
								c-2.166-2.075-5.602-2.056-7.736,0.079c-2.162,2.162-2.162,5.668,0,7.833c0.118,0.116,0.254,0.202,0.378,0.305
								c-0.296,0.952-0.466,1.933-0.466,2.943c0,2.102,0.677,4.094,1.877,5.899c-1.691,2.173-1.563,5.304,0.434,7.301
								c2.162,2.162,5.67,2.162,7.833,0c0.206-0.207,0.375-0.437,0.542-0.666c3.339,1.341,11.057,2.125,15.242,2.125
								c4.23,0,8.169-0.803,11.53-2.168c0.174,0.246,0.357,0.489,0.578,0.709c2.161,2.162,5.668,2.162,7.83,0
								c2.027-2.025,2.13-5.217,0.361-7.391c1.162-1.782,1.813-3.744,1.813-5.809c0-0.977-0.161-1.929-0.437-2.852
								c0.164-0.13,0.336-0.246,0.486-0.396c2.163-2.165,2.163-5.671,0-7.833c-2.149-2.149-5.624-2.159-7.79-0.034
								C1.852,0.674-1.31-0.425-4.797-0.968 M3.772,24.932c1.309,1.305,3.427,1.305,4.732,0c1.081-1.081,1.257-2.715,0.542-3.986
								l1.369-1.854c1.77,2.174,1.666,5.366-0.361,7.391c-2.162,2.162-5.669,2.162-7.83,0c-0.221-0.22-0.404-0.463-0.578-0.709
								L3.772,24.932z M6.56,3.3c1.555-0.993,3.624-0.54,4.617,1.016c0.826,1.289,0.645,2.921-0.324,4.009l0.938,2.106
								c2.194-1.745,2.78-4.884,1.234-7.297c-1.646-2.576-5.073-3.329-7.646-1.682C5.115,1.621,4.711,1.967,4.487,2.168L6.56,3.3z
								 M-27.296,25.021c-1.305,1.307-3.421,1.307-4.729,0c-1.082-1.082-1.255-2.714-0.541-3.983l-1.37-1.856
								c-1.769,2.175-1.666,5.366,0.362,7.392c2.163,2.162,5.668,2.162,7.829,0c0.223-0.222,0.405-0.465,0.58-0.708L-27.296,25.021z
								 M-30.061,3.254c-1.557-0.993-3.625-0.54-4.622,1.017c-0.823,1.287-0.642,2.921,0.327,4.008l-0.938,2.106
								c-2.195-1.745-2.778-4.885-1.234-7.296c1.648-2.577,5.071-3.33,7.648-1.683c0.263,0.167,0.666,0.515,0.891,0.717
								L-30.061,3.254z"/>
						</g>
						
							<path id="path13590" inkscape:connector-curvature="0" fill="#FFFFFF" stroke="#918F90" stroke-width="0.422" stroke-linejoin="round" d="
							M522.395,663.459H512.25v-3.437h10.145V663.459z"/>
						<path id="path13592" inkscape:connector-curvature="0" fill="#FFFFFF" stroke="#918F90" stroke-width="0.422" d="
							M554.293,633.791h6.643v1.887h-6.643V633.791z"/>
						<path id="path13594" inkscape:connector-curvature="0" fill="#FFFFFF" stroke="#918F90" stroke-width="0.422" d="
							M554.293,635.677h6.643v1.886h-6.643V635.677z"/>
						<path id="path13596" inkscape:connector-curvature="0" fill="#FFFFFF" stroke="#918F90" stroke-width="0.422" d="
							M554.293,637.563h6.643v1.887h-6.643V637.563z"/>
						<path id="path13598" inkscape:connector-curvature="0" fill="#FFFFFF" stroke="#918F90" stroke-width="0.422" d="
							M554.293,639.45h6.643v1.887h-6.643V639.45z"/>
						<path id="path13600" inkscape:connector-curvature="0" fill="#FFFFFF" stroke="#918F90" stroke-width="0.422" d="
							M552.419,627.162h1.888v6.643h-1.888V627.162z"/>
						<path id="path13602" inkscape:connector-curvature="0" fill="#FFFFFF" stroke="#918F90" stroke-width="0.422" d="
							M548.647,627.162h1.888v6.643h-1.888V627.162z"/>
						<path id="path13604" inkscape:connector-curvature="0" fill="#FFFFFF" stroke="#918F90" stroke-width="0.422" d="
							M550.534,627.162h1.884v6.643h-1.884V627.162z"/>
						<path id="path13606" inkscape:connector-curvature="0" fill="#FFFFFF" stroke="#918F90" stroke-width="0.422" d="
							M560.935,633.791h-6.629v-6.629h6.629V633.791z"/>
						<path id="path13608" inkscape:connector-curvature="0" fill="#FFFFFF" stroke="#918F90" stroke-width="0.422" d="
							M482.249,633.791h-6.641v1.887h6.641V633.791z"/>
						<path id="path13610" inkscape:connector-curvature="0" fill="#FFFFFF" stroke="#918F90" stroke-width="0.422" d="
							M482.249,635.677h-6.641v1.886h6.641V635.677z"/>
						<path id="path13612" inkscape:connector-curvature="0" fill="#FFFFFF" stroke="#918F90" stroke-width="0.422" d="
							M482.249,637.563h-6.641v1.887h6.641V637.563z"/>
						<path id="path13614" inkscape:connector-curvature="0" fill="#FFFFFF" stroke="#918F90" stroke-width="0.422" d="
							M482.249,639.45h-6.641v1.887h6.641V639.45z"/>
						<path id="path13616" inkscape:connector-curvature="0" fill="#FFFFFF" stroke="#918F90" stroke-width="0.422" d="
							M484.122,627.162h-1.886v6.643h1.886V627.162z"/>
						<path id="path13618" inkscape:connector-curvature="0" fill="#FFFFFF" stroke="#918F90" stroke-width="0.422" d="
							M487.897,627.162h-1.887v6.643h1.887V627.162z"/>
						<path id="path13620" inkscape:connector-curvature="0" fill="#FFFFFF" stroke="#918F90" stroke-width="0.422" d="
							M486.01,627.162h-1.888v6.643h1.888V627.162z"/>
						<path id="path13622" inkscape:connector-curvature="0" fill="#FFFFFF" d="M475.608,633.791h6.628v-6.629h-6.628V633.791z"/>
						<path id="path13624" inkscape:connector-curvature="0" fill="none" stroke="#918F90" stroke-width="0.422" d="
							M475.608,633.791h6.628v-6.629h-6.628V633.791z M483.485,645.31h-7.286v5.363h7.286V645.31z"/>
					</g>
				</g>
			</g>
			<text transform="matrix(0.8 0 0 -0.8 509.9961 614.6141)" fill="#231F20" font-family="'ArialNarrow-Bold'" font-size="7.5169">S</text>
			<text transform="matrix(0.8 0 0 -0.8 513.5203 614.6141)" fill="#231F20" font-family="'ArialNarrow-Bold'" font-size="7.5169">K</text>
			<text transform="matrix(0.8 0 0 -0.8 517.0438 614.6141)" fill="#231F20" font-family="'ArialNarrow-Bold'" font-size="7.5169">Y</text>
			<text transform="matrix(0.8 0 0 -0.8 520.568 614.6141)" fill="#231F20" font-family="'ArialNarrow-Bold'" font-size="7.5169">L</text>
			<text transform="matrix(0.8 0 0 -0.8 523.418 614.6141)" fill="#231F20" font-family="'ArialNarrow-Bold'" font-size="7.5169">I</text>
			<text transform="matrix(0.8 0 0 -0.8 525.2703 614.6141)" fill="#231F20" font-family="'ArialNarrow-Bold'" font-size="7.5169">G</text>
			<text transform="matrix(0.8 0 0 -0.8 529.125 614.6141)" fill="#231F20" font-family="'ArialNarrow-Bold'" font-size="7.5169">H</text>
			<text transform="matrix(0.8 0 0 -0.8 532.9797 614.6141)" fill="#231F20" font-family="'ArialNarrow-Bold'" font-size="7.5169">T</text>
			<text transform="matrix(0.8 0 0 -0.8 512.6844 608.6008)" fill="#231F20" font-family="'ArialNarrow-Bold'" font-size="7.5169">C</text>
			<text transform="matrix(0.8 0 0 -0.8 516.2078 608.6008)" fill="#231F20" font-family="'ArialNarrow-Bold'" font-size="7.5169">H</text>
			<text transform="matrix(0.8 0 0 -0.8 520.0625 608.6008)" fill="#231F20" font-family="'ArialNarrow-Bold'" font-size="7.5169">A</text>
			<text transform="matrix(0.8 0 0 -0.8 523.9172 608.6008)" fill="#231F20" font-family="'ArialNarrow-Bold'" font-size="7.5169">P</text>
			<text transform="matrix(0.8 0 0 -0.8 527.4414 608.6008)" fill="#231F20" font-family="'ArialNarrow-Bold'" font-size="7.5169">E</text>
			<text transform="matrix(0.8 0 0 -0.8 530.6282 608.6008)" fill="#231F20" font-family="'ArialNarrow-Bold'" font-size="7.5169">L</text>
		</g>
	</g>
</g>
</svg>
