<?xml version="1.0" encoding="utf-8"?>
<!-- Generator: Adobe Illustrator 16.0.4, SVG Export Plug-In . SVG Version: 6.00 Build 0)  -->
<!DOCTYPE svg PUBLIC "-//W3C//DTD SVG 1.1//EN" "http://www.w3.org/Graphics/SVG/1.1/DTD/svg11.dtd">
<svg version="1.1"
	 id="svg2" xmlns:dc="http://purl.org/dc/elements/1.1/" xmlns:cc="http://creativecommons.org/ns#" xmlns:rdf="http://www.w3.org/1999/02/22-rdf-syntax-ns#" xmlns:svg="http://www.w3.org/2000/svg" xmlns:inkscape="http://www.inkscape.org/namespaces/inkscape"
	 xmlns="http://www.w3.org/2000/svg" xmlns:xlink="http://www.w3.org/1999/xlink" x="0px" y="0px" width="141px" height="225.125px"
	 viewBox="578.125 137.75 141 225.125" enable-background="new 578.125 137.75 141 225.125" xml:space="preserve">
<g>
	<g>
		<g id="g10" transform="matrix(1.25,0,0,-1.25,0,990)">
			<g id="g12930">
				<g>
					<g id="g12932">
						<g id="g13468" transform="translate(518.6765,681.2816)">
							<path id="path13470" inkscape:connector-curvature="0" fill="#FFFFFF" d="M0,0l-3.149-0.166l-0.162-0.008l-0.163-0.022
								L-6.621-0.61l-0.275-0.036l-0.268-0.073l-3.066-0.828l-0.131-0.035l-0.131-0.045l-3.147-1.077l-0.172-0.06l-0.163-0.071
								l-3.565-1.576l-0.143-0.064l-0.139-0.074l-3.401-1.823l-0.102-0.055l-0.097-0.058l-3.397-2.073l-0.095-0.057l-0.091-0.06
								l-3.148-2.157l-0.112-0.076l-0.106-0.082l-3.066-2.403l-0.122-0.096l-0.113-0.105l-2.82-2.57l-0.069-0.063l-0.067-0.067
								l-2.736-2.737l-0.066-0.064l-0.062-0.069l-2.652-2.9l-0.107-0.116l-0.097-0.125l-2.404-3.067l-0.103-0.133l-0.095-0.141
								l-2.735-4.144l-0.085-0.13l-0.077-0.134l-2.403-4.311l-0.075-0.136l-0.066-0.143l-2.071-4.475l-0.066-0.141l-0.054-0.144
								l-1.743-4.643l-0.065-0.175l-0.048-0.177l-1.326-4.808l-0.037-0.13l-0.027-0.132l-0.995-4.808l-0.036-0.179l-0.024-0.18
								l-0.58-4.975l-0.015-0.135l-0.007-0.139l-0.248-4.974l-0.008-0.183l0.007-0.185l0.163-4.226l0.006-0.127l0.012-0.123
								l0.413-4.146l0.014-0.121l0.018-0.122l0.664-4.144l0.019-0.127l0.03-0.126l0.911-4.062l0.038-0.167l0.052-0.161l1.244-3.98
								l0.041-0.128l0.048-0.128l1.407-3.647l0.036-0.092l0.041-0.091l1.048-2.372l-0.994-5.106l-0.016-0.077l-0.011-0.078
								l-0.997-6.383l-0.02-0.134l-0.01-0.133l-0.581-6.466l-0.011-0.132l-0.004-0.131c0,0-0.167-6.465-0.167-6.573v-60.617
								l10.028,2.864v38.96l0.147,2.099l0.269,1.821l0.462,1.649l0.622,1.653l0.736,1.541l0.862,1.392l0.991,1.323
								c0.362,0.383,1.23,1.303,1.166,1.234l1.2,1.202l1.275,0.956l1.467,0.907l3.819,2.027l3.958,1.786l4.138,1.483l4.145,1.251
								l4.212,0.936l4.291,0.703l4.38,0.39l4.385,0.158l4.382-0.158l4.382-0.39l4.293-0.703l4.21-0.936l4.145-1.251l4.137-1.483
								l3.958-1.786l3.823-2.027l1.464-0.907l1.325-0.993l1.187-1.121l1.093-1.229l1.03-1.372l0.861-1.392l0.735-1.541l0.621-1.653
								l0.463-1.649l0.27-1.821l0.145-2.099v-38.96l10.03-2.864c0,0,0,60.617-0.002,60.725l-0.166,6.465l-0.005,0.131l-0.011,0.132
								l-0.581,6.466l-0.01,0.133l-0.02,0.134l-0.997,6.383L50.969-98.5l-0.016,0.077l-0.995,5.106l1.049,2.372l0.04,0.091
								l0.036,0.092l1.41,3.647l0.047,0.128l0.043,0.128l1.243,3.98l0.049,0.161l0.039,0.167l0.911,4.062l0.029,0.126l0.02,0.127
								l0.663,4.144l0.018,0.122l0.014,0.121l0.413,4.146l0.013,0.123l0.004,0.125l0.166,4.228l0.005,0.15l-0.005,0.151
								l-0.166,4.974l-0.005,0.206l-0.027,0.204l-0.664,4.971l-0.015,0.114l-0.02,0.112l-0.913,4.808l-0.038,0.2l-0.057,0.194
								l-1.408,4.807l-0.042,0.146l-0.054,0.143l-1.741,4.643l-0.055,0.144l-0.066,0.141l-2.073,4.475l-0.066,0.143l-0.075,0.136
								l-2.403,4.311l-0.077,0.134l-0.084,0.13l-2.735,4.144l-0.095,0.141l-0.103,0.133l-2.402,3.067l-0.077,0.098l-0.084,0.092
								l-2.568,2.902l-0.086,0.094l-0.088,0.088l-2.736,2.737l-0.089,0.088l-0.093,0.083l-2.901,2.57l-0.092,0.082l-0.098,0.078
								l-3.067,2.403l-0.106,0.082l-0.111,0.076l-3.15,2.157l-0.07,0.048l-0.073,0.045L21.976-6.51l-0.133,0.084l-0.139,0.073
								l-3.481,1.824L18.1-4.466l-0.126,0.055L14.41-2.835l-0.164,0.071l-0.17,0.06l-3.149,1.077l-0.127,0.045l-0.134,0.035
								L7.599-0.719L7.331-0.646L7.059-0.61L3.908-0.196L3.746-0.174L3.585-0.166L0.436,0L0.219,0.012L0,0z"/>
						</g>
						<g id="g13472" transform="translate(518.6765,681.2816)">
							
								<path id="path13474" inkscape:connector-curvature="0" fill="none" stroke="#918F90" stroke-width="0.837" stroke-linejoin="round" d="
								M0,0l-3.149-0.166l-0.162-0.008l-0.163-0.022L-6.621-0.61l-0.275-0.036l-0.268-0.073l-3.066-0.828l-0.131-0.035l-0.131-0.045
								l-3.147-1.077l-0.172-0.06l-0.163-0.071l-3.565-1.576l-0.143-0.064l-0.139-0.074l-3.401-1.823l-0.102-0.055l-0.097-0.058
								l-3.397-2.073l-0.095-0.057l-0.091-0.06l-3.148-2.157l-0.112-0.076l-0.106-0.082l-3.066-2.403l-0.122-0.096l-0.113-0.105
								l-2.82-2.57l-0.069-0.063l-0.067-0.067l-2.736-2.737l-0.066-0.064l-0.062-0.069l-2.652-2.9l-0.107-0.116l-0.097-0.125
								l-2.404-3.067l-0.103-0.133l-0.095-0.141l-2.735-4.144l-0.085-0.13l-0.077-0.134l-2.403-4.311l-0.075-0.136l-0.066-0.143
								l-2.071-4.475l-0.066-0.141l-0.054-0.144l-1.743-4.643l-0.065-0.175l-0.048-0.177l-1.326-4.808l-0.037-0.13l-0.027-0.132
								l-0.995-4.808l-0.036-0.179l-0.024-0.18l-0.58-4.975l-0.015-0.135l-0.007-0.139l-0.248-4.974l-0.008-0.183l0.007-0.185
								l0.163-4.226l0.006-0.127l0.012-0.123l0.413-4.146l0.014-0.121l0.018-0.122l0.664-4.144l0.019-0.127l0.03-0.126l0.911-4.062
								l0.038-0.167l0.052-0.161l1.244-3.98l0.041-0.128l0.048-0.128l1.407-3.647l0.036-0.092l0.041-0.091l1.048-2.372l-0.994-5.106
								l-0.016-0.077l-0.011-0.078l-0.997-6.383l-0.02-0.134l-0.01-0.133l-0.581-6.466l-0.011-0.132l-0.004-0.131
								c0,0-0.167-6.465-0.167-6.573v-60.617l10.028,2.864v38.96l0.147,2.099l0.269,1.821l0.462,1.649l0.622,1.653l0.736,1.541
								l0.862,1.392l0.991,1.323c0.362,0.383,1.23,1.303,1.166,1.234l1.2,1.202l1.275,0.956l1.467,0.907l3.819,2.027l3.958,1.786
								l4.138,1.483l4.145,1.251l4.212,0.936l4.291,0.703l4.38,0.39l4.385,0.158l4.382-0.158l4.382-0.39l4.293-0.703l4.21-0.936
								l4.145-1.251l4.137-1.483l3.958-1.786l3.823-2.027l1.464-0.907l1.325-0.993l1.187-1.121l1.093-1.229l1.03-1.372l0.861-1.392
								l0.735-1.541l0.621-1.653l0.463-1.649l0.27-1.821l0.145-2.099v-38.96l10.03-2.864c0,0,0,60.617-0.002,60.725l-0.166,6.465
								l-0.005,0.131l-0.011,0.132l-0.581,6.466l-0.01,0.133l-0.02,0.134l-0.997,6.383L50.969-98.5l-0.016,0.077l-0.995,5.106
								l1.049,2.372l0.04,0.091l0.036,0.092l1.41,3.647l0.047,0.128l0.043,0.128l1.243,3.98l0.049,0.161l0.039,0.167l0.911,4.062
								l0.029,0.126l0.02,0.127l0.663,4.144l0.018,0.122l0.014,0.121l0.413,4.146l0.013,0.123l0.004,0.125l0.166,4.228l0.005,0.15
								l-0.005,0.151l-0.166,4.974l-0.005,0.206l-0.027,0.204l-0.664,4.971l-0.015,0.114l-0.02,0.112l-0.913,4.808l-0.038,0.2
								l-0.057,0.194l-1.408,4.807l-0.042,0.146l-0.054,0.143l-1.741,4.643l-0.055,0.144l-0.066,0.141l-2.073,4.475l-0.066,0.143
								l-0.075,0.136l-2.403,4.311l-0.077,0.134l-0.084,0.13l-2.735,4.144l-0.095,0.141l-0.103,0.133l-2.402,3.067l-0.077,0.098
								l-0.084,0.092l-2.568,2.902l-0.086,0.094l-0.088,0.088l-2.736,2.737l-0.089,0.088l-0.093,0.083l-2.901,2.57l-0.092,0.082
								l-0.098,0.078l-3.067,2.403l-0.106,0.082l-0.111,0.076l-3.15,2.157l-0.07,0.048l-0.073,0.045L21.976-6.51l-0.133,0.084
								l-0.139,0.073l-3.481,1.824L18.1-4.466l-0.126,0.055L14.41-2.835l-0.164,0.071l-0.17,0.06l-3.149,1.077l-0.127,0.045
								l-0.134,0.035L7.599-0.719L7.331-0.646L7.059-0.61L3.908-0.196L3.746-0.174L3.585-0.166L0.436,0L0.219,0.012L0,0z"/>
						</g>
						<g id="g13476" transform="translate(524.8469,621.3646)">
							<path id="path13478" inkscape:connector-curvature="0" fill="#FFFFFF" d="M0,0v-7.149h-3.465v-2.558h15.583V2.407
								C5.62,0.364,1.882,0.046,0,0"/>
						</g>
						<g id="g13480" transform="translate(524.8469,621.3646)">
							<path id="path13482" inkscape:connector-curvature="0" fill="none" stroke="#918F90" stroke-width="0.418" d="M0,0v-7.149
								h-3.465v-2.558h15.583V2.407C5.62,0.364,1.882,0.046,0,0z M-33.471,1.649h-2.321l-0.997-6.879v-20.392"/>
						</g>
						<g id="g13484" transform="translate(508.9473,653.352)">
							<path id="path13486" inkscape:connector-curvature="0" fill="#FFFFFF" d="M0,0L0,0l2.157-1.74L3.98-4.061L5.141-6.63
								l0.58-3.151L5.638-12.35l-0.83-2.735l-1.411-2.569L1.41-19.809h-4.462V0H0z"/>
						</g>
						<g id="g13488" transform="translate(508.9473,653.352)">
							<path id="path13490" inkscape:connector-curvature="0" fill="none" stroke="#918F90" stroke-width="0.837" d="M0,0L0,0
								l2.157-1.74L3.98-4.061L5.141-6.63l0.58-3.151L5.638-12.35l-0.83-2.735l-1.411-2.569L1.41-19.809h-4.462V0H0z M6.798,23.625
								L3.647,23.21l-3.066-0.829l-3.151-1.077l-3.564-1.574l-3.397-1.826l-3.4-2.072l-3.15-2.155l-3.067-2.404l-2.818-2.57
								L-24.7,5.969l-2.655-2.901L-29.757,0l-2.738-4.144l-2.403-4.31l-2.073-4.475l-1.741-4.643l-1.323-4.808l-0.997-4.808
								l-0.58-4.973l-0.247-4.974l0.163-4.226l0.416-4.145l0.662-4.146l0.913-4.062l1.244-3.977l1.41-3.648l1.574-3.564
								l-1.245-6.382l-0.994-6.384l-0.58-6.466l-0.166-6.465v-18.65h1.739l0.167,2.404l0.331,2.237l0.579,2.073l0.748,1.99
								l0.912,1.906l1.077,1.741l1.243,1.657l1.411,1.491l1.409,1.411l1.659,1.242l1.74,1.079l4.061,2.155l4.227,1.905l4.394,1.576
								l4.395,1.327l4.475,0.993l4.559,0.747l4.641,0.415l4.643,0.166l4.641-0.166l4.644-0.415l4.558-0.747l4.475-0.993l4.394-1.327
								l4.393-1.576l4.228-1.905l4.063-2.155l1.74-1.079l1.657-1.242l1.491-1.411l1.328-1.491l1.242-1.657l1.079-1.741l0.911-1.906
								l0.747-1.99l0.581-2.073l0.33-2.237l0.166-2.404h1.74v18.65l-0.166,6.465l-0.58,6.466l-0.994,6.384l-1.245,6.382l1.577,3.564
								l1.407,3.648l1.244,3.977l0.912,4.062l0.662,4.146l0.416,4.145l0.166,4.226l-0.166,4.974l-0.663,4.973l-0.91,4.808
								l-1.409,4.808l-1.741,4.643l-2.074,4.475l-2.403,4.31L49.653,0l-2.405,3.068L44.68,5.969l-2.737,2.734l-2.902,2.57
								l-3.066,2.404l-3.15,2.155l-3.317,2.072l-3.481,1.826l-3.564,1.574l-3.15,1.077l-3.067,0.829l-3.148,0.415l-3.15,0.166
								L6.798,23.625z"/>
						</g>
						<g id="g13492" transform="translate(520.5524,621.131)">
							<path id="path13494" inkscape:connector-curvature="0" fill="#FFFFFF" d="M0,0c-5.464,0.108-8.968,0.848-12.82,1.959h-1.023
								V-9.473h10.071v3.481h0.704v2.713H0V0z"/>
						</g>
						<g id="g13496" transform="translate(520.5524,621.131)">
							<path id="path13498" inkscape:connector-curvature="0" fill="none" stroke="#918F90" stroke-width="0.418" d="M0,0
								c-5.464,0.108-8.968,0.848-12.82,1.959h-1.023V-9.473h10.071v3.481h0.704v2.713H0V0z"/>
						</g>
						<path id="path13500" inkscape:connector-curvature="0" fill="#FFFFFF" stroke="#918F90" stroke-width="0.418" d="
							M496.016,653.137h-5.884v-17.109h5.884V653.137z"/>
						<path id="path13502" inkscape:connector-curvature="0" fill="#FFFFFF" stroke="#918F90" stroke-width="0.418" d="
							M539.454,615.029h3.148v1.138h-3.148V615.029z"/>
						<path id="path13504" inkscape:connector-curvature="0" fill="#FFFFFF" stroke="#918F90" stroke-width="0.418" d="
							M539.454,616.168h3.148v1.138h-3.148V616.168z"/>
						<path id="path13506" inkscape:connector-curvature="0" fill="#FFFFFF" stroke="#918F90" stroke-width="0.418" d="
							M539.454,617.306h3.148v1.136h-3.148V617.306z"/>
						<path id="path13508" inkscape:connector-curvature="0" fill="#FFFFFF" stroke="#918F90" stroke-width="0.418" d="
							M539.454,618.442h3.148v1.137h-3.148V618.442z"/>
						<path id="path13510" inkscape:connector-curvature="0" fill="#FFFFFF" stroke="#918F90" stroke-width="0.418" d="
							M539.454,619.579h3.148v1.14h-3.148V619.579z"/>
						<path id="path13512" inkscape:connector-curvature="0" fill="#FFFFFF" stroke="#918F90" stroke-width="0.418" d="
							M539.454,620.719h3.148v1.137h-3.148V620.719z"/>
						<path id="path13514" inkscape:connector-curvature="0" fill="#FFFFFF" stroke="#918F90" stroke-width="0.418" d="
							M539.454,621.855h3.148v1.136h-3.148V621.855z"/>
						<path id="path13516" inkscape:connector-curvature="0" fill="#FFFFFF" stroke="#918F90" stroke-width="0.418" d="
							M538.324,611.658h1.139v3.38h-1.139V611.658z"/>
						<path id="path13518" inkscape:connector-curvature="0" fill="#FFFFFF" stroke="#918F90" stroke-width="0.418" d="
							M537.187,611.658h1.137v3.38h-1.137V611.658z"/>
						<path id="path13520" inkscape:connector-curvature="0" fill="#FFFFFF" stroke="#918F90" stroke-width="0.418" d="
							M542.602,615.029h-3.139v-3.372h3.139V615.029z"/>
						<path id="path13522" inkscape:connector-curvature="0" fill="#FFFFFF" stroke="#918F90" stroke-width="0.418" d="
							M543.348,617.884h3.145v1.137h-3.145V617.884z"/>
						<path id="path13524" inkscape:connector-curvature="0" fill="#FFFFFF" stroke="#918F90" stroke-width="0.418" d="
							M543.348,616.747h3.145v1.137h-3.145V616.747z"/>
						<path id="path13526" inkscape:connector-curvature="0" fill="#FFFFFF" stroke="#918F90" stroke-width="0.418" d="
							M543.348,619.021h3.145v1.14h-3.145V619.021z"/>
						<path id="path13528" inkscape:connector-curvature="0" fill="#FFFFFF" stroke="#918F90" stroke-width="0.418" d="
							M543.348,620.161h3.145v1.135h-3.145V620.161z"/>
						<path id="path13530" inkscape:connector-curvature="0" fill="#FFFFFF" stroke="#918F90" stroke-width="0.418" d="
							M543.348,621.296h3.145v1.138h-3.145V621.296z"/>
						<path id="path13532" inkscape:connector-curvature="0" fill="#FFFFFF" stroke="#918F90" stroke-width="0.418" d="
							M498.836,615.029h-3.148v1.138h3.148V615.029z"/>
						<path id="path13534" inkscape:connector-curvature="0" fill="#FFFFFF" stroke="#918F90" stroke-width="0.418" d="
							M498.836,616.168h-3.148v1.138h3.148V616.168z"/>
						<path id="path13536" inkscape:connector-curvature="0" fill="#FFFFFF" stroke="#918F90" stroke-width="0.418" d="
							M498.836,617.306h-3.148v1.136h3.148V617.306z"/>
						<path id="path13538" inkscape:connector-curvature="0" fill="#FFFFFF" stroke="#918F90" stroke-width="0.418" d="
							M498.836,618.442h-3.148v1.137h3.148V618.442z"/>
						<path id="path13540" inkscape:connector-curvature="0" fill="#FFFFFF" stroke="#918F90" stroke-width="0.418" d="
							M498.836,619.579h-3.148v1.14h3.148V619.579z"/>
						<path id="path13542" inkscape:connector-curvature="0" fill="#FFFFFF" stroke="#918F90" stroke-width="0.418" d="
							M498.836,620.719h-3.148v1.137h3.148V620.719z"/>
						<path id="path13544" inkscape:connector-curvature="0" fill="#FFFFFF" stroke="#918F90" stroke-width="0.418" d="
							M498.836,621.855h-3.148v1.136h3.148V621.855z"/>
						<path id="path13546" inkscape:connector-curvature="0" fill="#FFFFFF" stroke="#918F90" stroke-width="0.418" d="
							M499.965,611.658h-1.137v3.38h1.137V611.658z"/>
						<path id="path13548" inkscape:connector-curvature="0" fill="#FFFFFF" stroke="#918F90" stroke-width="0.418" d="
							M501.102,611.658h-1.138v3.38h1.138V611.658z"/>
						<path id="path13550" inkscape:connector-curvature="0" fill="#FFFFFF" stroke="#918F90" stroke-width="0.418" d="
							M495.688,615.029h3.139v-3.372h-3.139V615.029z"/>
						<path id="path13552" inkscape:connector-curvature="0" fill="#FFFFFF" stroke="#918F90" stroke-width="0.418" d="
							M494.941,617.884h-3.145v1.137h3.145V617.884z"/>
						<path id="path13554" inkscape:connector-curvature="0" fill="#FFFFFF" stroke="#918F90" stroke-width="0.418" d="
							M494.941,616.747h-3.145v1.137h3.145V616.747z"/>
						<path id="path13556" inkscape:connector-curvature="0" fill="#FFFFFF" stroke="#918F90" stroke-width="0.418" d="
							M494.941,619.021h-3.145v1.14h3.145V619.021z"/>
						<path id="path13558" inkscape:connector-curvature="0" fill="#FFFFFF" stroke="#918F90" stroke-width="0.418" d="
							M494.941,620.161h-3.145v1.135h3.145V620.161z"/>
						<path id="path13560" inkscape:connector-curvature="0" fill="#FFFFFF" d="M494.941,621.296h-3.145v1.138h3.145V621.296z"/>
						<path id="path13562" inkscape:connector-curvature="0" fill="none" stroke="#918F90" stroke-width="0.418" d="
							M494.941,621.296h-3.145v1.138h3.145V621.296z M470.609,595.743l22.59-0.012v-6.989c0-4.511,6.373-9.701,9.515-9.16
							c0,0,6.379,1.101,12.698,1.485v2.74h6.964v-2.691c6.327-0.323,12.363-1.483,12.363-1.483c5.381-0.779,9.934,6.125,9.934,9.343
							v6.685h22.629 M505.97,634.726h3.247c1.453,0,2.631,1.62,2.631,3.623c0,2.001-1.178,3.625-2.631,3.625h-3.247V634.726z
							 M505.97,644.091h3.247c1.453,0,2.631,1.624,2.631,3.625c0,2.001-1.178,3.625-2.631,3.625h-3.247V644.091z M505.97,644.091
							h3.247c1.453,0,2.631,1.624,2.631,3.625c0,2.001-1.178,3.625-2.631,3.625h-3.247V644.091z M544.673,595.661l3.73,14.424
							v16.246l4.891,1.657l1.327,2.486l-1.077,0.665c0,0,1.505,2.759-0.414,5.635 M546.58,639.261l0.084-0.58l-0.005-0.063
							c0.457,0.125,0.927,0.215,1.424,0.215c1.738,0,3.267-0.845,4.241-2.133l6.941,3.225l-0.912,1.905L546.58,639.261
							L546.58,639.261z"/>
						<g id="g13564" transform="translate(489.3025,567.9749)">
							<path id="path13566" inkscape:connector-curvature="0" fill="#FFFFFF" d="M0,0c-2.269,1.956-8.78,7.805-12.517,14.009
								l-3.102-2.411c-0.291-1.869-0.741-4.115-0.73-4.045c0,0-0.58-6.464-0.575-6.353c0,0-0.165-6.467-0.165-6.423v-5.885
								C-15.898-10.122-7.293-2.233,0,0"/>
						</g>
						<g id="g13568" transform="translate(489.3025,567.9749)">
							
								<path id="path13570" inkscape:connector-curvature="0" fill="none" stroke="#918F90" stroke-width="0.837" stroke-linejoin="round" d="
								M0,0c-2.269,1.956-8.78,7.805-12.517,14.009l-3.102-2.411c-0.291-1.869-0.741-4.115-0.73-4.045c0,0-0.58-6.464-0.575-6.353
								c0,0-0.165-6.467-0.165-6.423v-5.885C-15.898-10.122-7.293-2.233,0,0z"/>
						</g>
						<g id="g13572" transform="translate(481.5801,569.7566)">
							<path id="path13574" inkscape:connector-curvature="0" fill="#FFFFFF" d="M0,0c-3.035,2.916-5.693,6.215-7.898,9.816
								l3.103,2.411c2.181-3.52,4.796-6.748,7.78-9.606L0,0z"/>
						</g>
						<g id="g13576" transform="translate(481.5801,569.7566)">
							
								<path id="path13578" inkscape:connector-curvature="0" fill="none" stroke="#918F90" stroke-width="0.418" stroke-linejoin="round" d="
								M0,0c-3.035,2.916-5.693,6.215-7.898,9.816l3.103,2.411c2.181-3.52,4.796-6.748,7.78-9.606L0,0z"/>
						</g>
						<g id="g13580" transform="translate(480.7373,570.597)">
							<path id="path13582" inkscape:connector-curvature="0" fill="none" stroke="#918F90" stroke-width="0.418" d="M0,0
								l3.073,2.446 M-0.754,0.877L2.32,3.321 M-1.518,1.713l3.073,2.445 M-2.276,2.561l3.073,2.446 M-4.39,5.204l3.072,2.443
								 M-5.142,6.078l3.071,2.446 M-5.786,7.023l3.072,2.445 M-6.425,7.98l3.073,2.446"/>
						</g>
						<g id="g13584" transform="translate(548.4865,567.9749)">
							<path id="path13586" inkscape:connector-curvature="0" fill="#FFFFFF" d="M0,0c2.271,1.956,8.78,7.805,12.518,14.009
								l3.101-2.411c0.291-1.869,0.74-4.115,0.732-4.045c0,0,0.58-6.464,0.574-6.353c0,0,0.166-6.467,0.164-6.423v-5.885
								C15.897-10.122,7.292-2.233,0,0"/>
						</g>
						<g id="g13588" transform="translate(548.4865,567.9749)">
							
								<path id="path13590" inkscape:connector-curvature="0" fill="none" stroke="#918F90" stroke-width="0.837" stroke-linejoin="round" d="
								M0,0c2.271,1.956,8.78,7.805,12.518,14.009l3.101-2.411c0.291-1.869,0.74-4.115,0.732-4.045c0,0,0.58-6.464,0.574-6.353
								c0,0,0.166-6.467,0.164-6.423v-5.885C15.897-10.122,7.292-2.233,0,0z"/>
						</g>
						<g id="g13592" transform="translate(556.2082,569.7566)">
							<path id="path13594" inkscape:connector-curvature="0" fill="#FFFFFF" d="M0,0c3.038,2.916,5.694,6.215,7.898,9.816
								l-3.102,2.411c-2.18-3.52-4.798-6.748-7.78-9.606L0,0z"/>
						</g>
						<g id="g13596" transform="translate(556.2082,569.7566)">
							
								<path id="path13598" inkscape:connector-curvature="0" fill="none" stroke="#918F90" stroke-width="0.418" stroke-linejoin="round" d="
								M0,0c3.038,2.916,5.694,6.215,7.898,9.816l-3.102,2.411c-2.18-3.52-4.798-6.748-7.78-9.606L0,0z"/>
						</g>
						<g id="g13600" transform="translate(557.0515,570.597)">
							<path id="path13602" inkscape:connector-curvature="0" fill="none" stroke="#918F90" stroke-width="0.418" d="M0,0
								l-3.074,2.446 M0.753,0.877L-2.32,3.321 M1.518,1.713l-3.072,2.445 M2.275,2.561l-3.072,2.446 M4.389,5.204L1.317,7.647
								 M5.142,6.078L2.07,8.524 M5.786,7.023L2.714,9.468 M6.424,7.98l-3.073,2.446 M-89.3,53.451l21.083-2.518 M-69.023,92.147
								l7.988-9.607"/>
						</g>
					</g>
				</g>
			</g>
			<text transform="matrix(0 0.8 0.8 0 495.5359 637.8461)" fill="#231F20" font-family="'ArialNarrow-Bold'" font-size="7.5169">E</text>
			<text transform="matrix(0 0.8 0.8 0 495.5359 641.0336)" fill="#231F20" font-family="'ArialNarrow-Bold'" font-size="7.5169">L</text>
			<text transform="matrix(0 0.8 0.8 0 495.5359 643.8851)" fill="#231F20" font-family="'ArialNarrow-Bold'" font-size="7.5169">E</text>
			<text transform="matrix(0 0.8 0.8 0 495.5359 647.0711)" fill="#231F20" font-family="'ArialNarrow-Bold'" font-size="7.5169">V</text>
			<text transform="matrix(0 0.8 0.8 0 495.5359 650.1508)" fill="#231F20" font-family="'ArialNarrow-Bold'" font-size="7.5169">.</text>
			<text transform="matrix(0.8 0 0 -0.8 521.1516 650.5781)" fill="#231F20" font-family="'ArialNarrow-Bold'" font-size="7.5169">O</text>
			<text transform="matrix(0.8 0 0 -0.8 525.0062 650.5781)" fill="#231F20" font-family="'ArialNarrow-Bold'" font-size="7.5169">L</text>
			<text transform="matrix(0.8 0 0 -0.8 527.8571 650.5781)" fill="#231F20" font-family="'ArialNarrow-Bold'" font-size="7.5169">I</text>
			<text transform="matrix(0.8 0 0 -0.8 529.7094 650.5781)" fill="#231F20" font-family="'ArialNarrow-Bold'" font-size="7.5169">V</text>
			<text transform="matrix(0.8 0 0 -0.8 533.2328 650.5781)" fill="#231F20" font-family="'ArialNarrow-Bold'" font-size="7.5169">E</text>
			<text transform="matrix(0.8 0 0 -0.8 536.4203 650.5781)" fill="#231F20" font-family="'ArialNarrow-Bold'" font-size="7.5169"> </text>
			<text transform="matrix(0.8 0 0 -0.8 537.9352 650.5781)" fill="#231F20" font-family="'ArialNarrow-Bold'" font-size="7.5169">O</text>
			<text transform="matrix(0.8 0 0 -0.8 541.7899 650.5781)" fill="#231F20" font-family="'ArialNarrow-Bold'" font-size="7.5169">R</text>
			<text transform="matrix(0.8 0 0 -0.8 524.5977 644.5648)" fill="#231F20" font-family="'ArialNarrow-Bold'" font-size="7.5169">T</text>
			<text transform="matrix(0.8 0 0 -0.8 527.7844 644.5648)" fill="#231F20" font-family="'ArialNarrow-Bold'" font-size="7.5169">W</text>
			<text transform="matrix(0.8 0 0 -0.8 533.3109 644.5648)" fill="#231F20" font-family="'ArialNarrow-Bold'" font-size="7.5169">I</text>
			<text transform="matrix(0.8 0 0 -0.8 535.1633 644.5648)" fill="#231F20" font-family="'ArialNarrow-Bold'" font-size="7.5169">S</text>
			<text transform="matrix(0.8 0 0 -0.8 538.6875 644.5648)" fill="#231F20" font-family="'ArialNarrow-Bold'" font-size="7.5169">T</text>
			<text transform="matrix(0.8 0 0 -0.8 498.3008 598.9344)" fill="#231F20" font-family="'ArialNarrow-Bold'" font-size="7.5169">V</text>
			<text transform="matrix(0.8 0 0 -0.8 501.8242 598.9344)" fill="#231F20" font-family="'ArialNarrow-Bold'" font-size="7.5169">I</text>
			<text transform="matrix(0.8 0 0 -0.8 503.6766 598.9344)" fill="#231F20" font-family="'ArialNarrow-Bold'" font-size="7.5169">K</text>
			<text transform="matrix(0.8 0 0 -0.8 507.2008 598.9344)" fill="#231F20" font-family="'ArialNarrow-Bold'" font-size="7.5169">I</text>
			<text transform="matrix(0.8 0 0 -0.8 509.0523 598.9344)" fill="#231F20" font-family="'ArialNarrow-Bold'" font-size="7.5169">N</text>
			<text transform="matrix(0.8 0 0 -0.8 513.2438 598.9344)" fill="#231F20" font-family="'ArialNarrow-Bold'" font-size="7.5169">G</text>
			<text transform="matrix(0.8 0 0 -0.8 517.0984 598.9344)" fill="#231F20" font-family="'ArialNarrow-Bold'" font-size="7.5169"> </text>
			<text transform="matrix(0.8 0 0 -0.8 518.6141 598.9344)" fill="#231F20" font-family="'ArialNarrow-Bold'" font-size="7.5169">C</text>
			<text transform="matrix(0.8 0 0 -0.8 522.1383 598.9344)" fill="#231F20" font-family="'ArialNarrow-Bold'" font-size="7.5169">R</text>
			<text transform="matrix(0.8 0 0 -0.8 525.6617 598.9344)" fill="#231F20" font-family="'ArialNarrow-Bold'" font-size="7.5169">O</text>
			<text transform="matrix(0.8 0 0 -0.8 529.5164 598.9344)" fill="#231F20" font-family="'ArialNarrow-Bold'" font-size="7.5169">W</text>
			<text transform="matrix(0.8 0 0 -0.8 535.043 598.9344)" fill="#231F20" font-family="'ArialNarrow-Bold'" font-size="7.5169">N</text>
			<text transform="matrix(0.8 0 0 -0.8 507.868 592.9211)" fill="#231F20" font-family="'ArialNarrow-Bold'" font-size="7.5169">L</text>
			<text transform="matrix(0.8 0 0 -0.8 510.7188 592.9211)" fill="#231F20" font-family="'ArialNarrow-Bold'" font-size="7.5169">O</text>
			<text transform="matrix(0.8 0 0 -0.8 514.5726 592.9211)" fill="#231F20" font-family="'ArialNarrow-Bold'" font-size="7.5169">U</text>
			<text transform="matrix(0.8 0 0 -0.8 518.4274 592.9211)" fill="#231F20" font-family="'ArialNarrow-Bold'" font-size="7.5169">N</text>
			<text transform="matrix(0.8 0 0 -0.8 522.6188 592.9211)" fill="#231F20" font-family="'ArialNarrow-Bold'" font-size="7.5169">G</text>
			<text transform="matrix(0.8 0 0 -0.8 526.4734 592.9211)" fill="#231F20" font-family="'ArialNarrow-Bold'" font-size="7.5169">E</text>
			<text transform="matrix(0.8 0 0 -0.8 546.4023 605.8133)" fill="#231F20" font-family="'ArialNarrow-Bold'" font-size="7.5169">D</text>
			<text transform="matrix(0.8 0 0 -0.8 550.2571 605.8133)" fill="#231F20" font-family="'ArialNarrow-Bold'" font-size="7.5169">I</text>
			<text transform="matrix(0.8 0 0 -0.8 552.1094 605.8133)" fill="#231F20" font-family="'ArialNarrow-Bold'" font-size="7.5169">A</text>
			<text transform="matrix(0.8 0 0 -0.8 555.9641 605.8133)" fill="#231F20" font-family="'ArialNarrow-Bold'" font-size="7.5169">M</text>
			<text transform="matrix(0.8 0 0 -0.8 561.1539 605.8133)" fill="#231F20" font-family="'ArialNarrow-Bold'" font-size="7.5169">O</text>
			<text transform="matrix(0.8 0 0 -0.8 565.0086 605.8133)" fill="#231F20" font-family="'ArialNarrow-Bold'" font-size="7.5169">N</text>
			<text transform="matrix(0.8 0 0 -0.8 569.2 605.8133)" fill="#231F20" font-family="'ArialNarrow-Bold'" font-size="7.5169">D</text>
			<text transform="matrix(0.8 0 0 -0.8 552.6868 599.8)" fill="#231F20" font-family="'ArialNarrow-Bold'" font-size="7.5169">C</text>
			<text transform="matrix(0.8 0 0 -0.8 556.2102 599.8)" fill="#231F20" font-family="'ArialNarrow-Bold'" font-size="7.5169">L</text>
			<text transform="matrix(0.8 0 0 -0.8 559.0609 599.8)" fill="#231F20" font-family="'ArialNarrow-Bold'" font-size="7.5169">U</text>
			<text transform="matrix(0.8 0 0 -0.8 562.9156 599.8)" fill="#231F20" font-family="'ArialNarrow-Bold'" font-size="7.5169">B</text>
			<text transform="matrix(0.8 0 0 -0.8 470.9453 631.5336)" fill="#231F20" font-family="'ArialNarrow-Bold'" font-size="7.5169">C</text>
			<text transform="matrix(0.8 0 0 -0.8 474.4688 631.5336)" fill="#231F20" font-family="'ArialNarrow-Bold'" font-size="7.5169">L</text>
			<text transform="matrix(0.8 0 0 -0.8 477.3195 631.5336)" fill="#231F20" font-family="'ArialNarrow-Bold'" font-size="7.5169">O</text>
			<text transform="matrix(0.8 0 0 -0.8 481.1742 631.5336)" fill="#231F20" font-family="'ArialNarrow-Bold'" font-size="7.5169">U</text>
			<text transform="matrix(0.8 0 0 -0.8 485.0289 631.5336)" fill="#231F20" font-family="'ArialNarrow-Bold'" font-size="7.5169">D</text>
			<text transform="matrix(0.8 0 0 -0.8 473.2 625.5195)" fill="#231F20" font-family="'ArialNarrow-Bold'" font-size="7.5169">N</text>
			<text transform="matrix(0.8 0 0 -0.8 477.3914 625.5195)" fill="#231F20" font-family="'ArialNarrow-Bold'" font-size="7.5169">I</text>
			<text transform="matrix(0.8 0 0 -0.8 479.2437 625.5195)" fill="#231F20" font-family="'ArialNarrow-Bold'" font-size="7.5169">N</text>
			<text transform="matrix(0.8 0 0 -0.8 483.4352 625.5195)" fill="#231F20" font-family="'ArialNarrow-Bold'" font-size="7.5169">E</text>
			<text transform="matrix(0.8 0 0 -0.8 469.243 612.0438)" fill="#231F20" font-family="'ArialNarrow-Bold'" font-size="7.5169">S</text>
			<text transform="matrix(0.8 0 0 -0.8 472.7672 612.0438)" fill="#231F20" font-family="'ArialNarrow-Bold'" font-size="7.5169">E</text>
			<text transform="matrix(0.8 0 0 -0.8 475.9547 612.0438)" fill="#231F20" font-family="'ArialNarrow-Bold'" font-size="7.5169">V</text>
			<text transform="matrix(0.8 0 0 -0.8 479.4781 612.0438)" fill="#231F20" font-family="'ArialNarrow-Bold'" font-size="7.5169">E</text>
			<text transform="matrix(0.8 0 0 -0.8 482.6656 612.0438)" fill="#231F20" font-family="'ArialNarrow-Bold'" font-size="7.5169">N</text>
			<text transform="matrix(0.8 0 0 -0.8 467.4875 606.0305)" fill="#231F20" font-family="'ArialNarrow-Bold'" font-size="7.5169">H</text>
			<text transform="matrix(0.8 0 0 -0.8 471.3422 606.0305)" fill="#231F20" font-family="'ArialNarrow-Bold'" font-size="7.5169">E</text>
			<text transform="matrix(0.8 0 0 -0.8 474.5289 606.0305)" fill="#231F20" font-family="'ArialNarrow-Bold'" font-size="7.5169">A</text>
			<text transform="matrix(0.8 0 0 -0.8 478.3836 606.0305)" fill="#231F20" font-family="'ArialNarrow-Bold'" font-size="7.5169">R</text>
			<text transform="matrix(0.8 0 0 -0.8 481.9078 606.0305)" fill="#231F20" font-family="'ArialNarrow-Bold'" font-size="7.5169">T</text>
			<text transform="matrix(0.8 0 0 -0.8 485.0945 606.0305)" fill="#231F20" font-family="'ArialNarrow-Bold'" font-size="7.5169">S</text>
		</g>
	</g>
</g>
</svg>
